<svg aria-hidden="true" style="width:0;height:0;position:absolute;overflow:hidden" xmlns="http://www.w3.org/2000/svg"><defs><symbol id="icon-Group-3" viewBox="0 0 32 32"><path fill="#2394bc" style="fill:var(--color1,#2394bc)" d="m13.056 11.026-1.553 9.664h2.482l1.552-9.664h-2.481zm7.488 3.937c-.868-.428-1.399-.717-1.399-1.156.011-.398.45-.806 1.43-.806a4.32 4.32 0 0 1 1.849.358l.225.101.337-2.022a6.256 6.256 0 0 0-2.228-.398c-2.451 0-4.178 1.275-4.188 3.097-.02 1.345 1.236 2.092 2.176 2.539.96.459 1.287.757 1.287 1.165-.011.627-.776.916-1.491.916-.99 0-1.522-.149-2.33-.498l-.327-.149-.347 2.101c.583.259 1.655.487 2.769.499 2.605 0 4.3-1.255 4.322-3.198.009-1.066-.654-1.882-2.085-2.549zm8.806-3.907h-1.921c-.592 0-1.041.17-1.298.778l-3.687 8.857h2.605l.717-1.918h2.915l.372 1.925h2.298l-2.002-9.642zm-2.86 5.782c.05.005 1-3.13 1-3.13l.756 3.13H26.49zM9.429 11.026l-2.432 6.566-.265-1.295c-.45-1.494-1.86-3.118-3.433-3.924l2.227 8.308h2.626l3.903-9.654-2.626-.001z"/><path fill="#efc75e" style="fill:var(--color2,#efc75e)" d="M5.914 12.273c-.19-.737-.794-1.234-1.615-1.245H.447l-.04.179c3.005.741 5.527 3.02 6.345 5.164l-.838-4.098z"/></symbol><symbol id="icon-quotes-left" viewBox="0 0 35 32"><path fill="#f6762c" style="fill:var(--color2,#f6762c)" d="M22.951 0h8.099c1.125 0 2.081.424 2.869 1.273S35.1 3.152 35.1 4.364v8.727c0 1.212-.394 2.242-1.181 3.091s-1.744 1.273-2.869 1.273h-4.725c-.562 0-1.04.212-1.434.636s-.591.939-.591 1.546v.727c0 1.606.527 2.977 1.582 4.114s2.327 1.704 3.818 1.704h1.35c.366 0 .682.144.949.432s.401.629.401 1.023v2.909c0 .393-.133.735-.401 1.023s-.584.432-.949.432H29.7c-1.462 0-2.858-.307-4.187-.921s-2.478-1.443-3.448-2.489c-.97-1.046-1.74-2.284-2.309-3.716s-.854-2.936-.854-4.511v-16c0-1.212.394-2.243 1.181-3.091S21.827 0 22.951 0zM1.183 1.273C1.97.425 2.926 0 4.051 0h8.099c1.125 0 2.081.424 2.868 1.273s1.181 1.879 1.181 3.091v8.727c0 1.212-.394 2.242-1.181 3.091s-1.743 1.273-2.868 1.273H7.425c-.562 0-1.041.212-1.434.636s-.591.939-.591 1.546v.727c0 1.606.527 2.977 1.582 4.114s2.327 1.704 3.817 1.704h1.35c.366 0 .682.144.949.432s.401.629.401 1.023v2.909c0 .393-.134.735-.401 1.023s-.584.432-.949.432h-1.35c-1.462 0-2.858-.307-4.187-.921s-2.478-1.443-3.448-2.489c-.97-1.046-1.741-2.284-2.31-3.716S0 21.939 0 20.364v-16c0-1.212.394-2.243 1.181-3.091z"/></symbol><symbol id="icon-quotes-right" viewBox="0 0 35 32"><path fill="#f6762c" style="fill:var(--color2,#f6762c)" d="M12.149 0H4.05C2.925 0 1.969.424 1.181 1.273S0 3.152 0 4.364v8.727c0 1.212.394 2.242 1.181 3.091s1.744 1.273 2.869 1.273h4.725c.562 0 1.04.212 1.434.636s.591.939.591 1.546v.727c0 1.606-.527 2.977-1.582 4.114S6.891 26.182 5.4 26.182H4.05c-.366 0-.682.144-.949.432s-.401.629-.401 1.023v2.909c0 .393.134.735.401 1.023s.583.432.949.432H5.4c1.463 0 2.858-.307 4.187-.921s2.478-1.443 3.448-2.489c.97-1.046 1.74-2.284 2.309-3.716s.854-2.936.854-4.511v-16c0-1.212-.394-2.243-1.181-3.091S13.273 0 12.149 0zM33.917 1.273C33.13.425 32.174 0 31.049 0H22.95c-1.125 0-2.081.424-2.868 1.273s-1.181 1.879-1.181 3.091v8.727c0 1.212.394 2.242 1.181 3.091s1.743 1.273 2.868 1.273h4.725c.562 0 1.041.212 1.434.636s.591.939.591 1.546v.727c0 1.606-.527 2.977-1.582 4.114s-2.327 1.704-3.817 1.704h-1.35c-.366 0-.682.144-.949.432s-.401.629-.401 1.023v2.909c0 .393.134.735.401 1.023s.584.432.949.432h1.35c1.462 0 2.858-.307 4.187-.921s2.478-1.443 3.448-2.489c.97-1.046 1.741-2.284 2.31-3.716s.854-2.936.854-4.511v-16c0-1.212-.394-2.243-1.181-3.091z"/></symbol><symbol id="icon-right-arrow-1" viewBox="0 0 32 32"><path fill="#d64374" style="fill:var(--color1,#d64374)" opacity=".5" d="m7.112 17.249 14.24 14.24c.329.33.769.511 1.238.511s.908-.181 1.238-.511l1.049-1.048a1.752 1.752 0 0 0 0-2.476L12.919 16.007 24.89 4.036c.329-.33.511-.769.511-1.238s-.182-.908-.511-1.238L23.841.512c-.33-.33-.769-.511-1.238-.511s-.908.182-1.238.511L7.111 14.765c-.33.331-.511.772-.51 1.242-.001.471.18.912.51 1.243z"/></symbol><symbol id="icon-right-arrow-2" viewBox="0 0 32 32"><path fill="#d64374" style="fill:var(--color1,#d64374)" d="m24.888 17.249-14.24 14.24c-.329.33-.769.511-1.238.511s-.908-.181-1.238-.511l-1.049-1.048a1.754 1.754 0 0 1 0-2.476l11.958-11.958L7.11 4.036c-.329-.33-.511-.769-.511-1.238s.182-.908.511-1.238L8.159.512c.33-.33.769-.511 1.238-.511s.908.182 1.238.511l14.254 14.253c.33.331.512.772.51 1.242.001.471-.18.912-.51 1.243z"/></symbol><symbol id="icon-Group-117" viewBox="0 0 32 32"><path fill="#ffb600" style="fill:var(--color3,#ffb600)" d="M31.655 16.317c0 5.108-4.126 9.284-9.283 9.284-5.108 0-9.284-4.175-9.284-9.284s4.126-9.284 9.234-9.284c5.207 0 9.333 4.175 9.333 9.284z"/><path fill="#f7981d" style="fill:var(--color4,#f7981d)" d="M22.372 7.033c5.108 0 9.283 4.175 9.283 9.284s-4.126 9.284-9.283 9.284c-5.108 0-9.284-4.175-9.284-9.284z"/><path fill="#ff8500" style="fill:var(--color5,#ff8500)" d="M22.372 7.033c5.108 0 9.284 4.175 9.284 9.284s-4.126 9.284-9.284 9.284z"/><path fill="#ff5050" style="fill:var(--color6,#ff5050)" d="M9.896 7.033C4.837 7.082.711 11.208.711 16.317s4.126 9.284 9.284 9.284c2.407 0 4.568-.933 6.238-2.407.344-.295.639-.639.933-.982H15.25a11.535 11.535 0 0 1-.688-.933h3.291c.196-.295.393-.639.54-.982h-4.372a5.899 5.899 0 0 1-.393-.982h5.108c.295-.933.491-1.916.491-2.947 0-.688-.098-1.326-.196-1.965h-5.698c.049-.344.147-.639.246-.982h5.108a5.83 5.83 0 0 0-.393-.982h-4.322c.147-.344.344-.639.54-.982h3.291a4.622 4.622 0 0 0-.737-.982h-1.817c.295-.344.589-.639.933-.933-1.621-1.523-3.831-2.407-6.238-2.407 0-.098 0-.098-.049-.098z"/><path fill="#e52836" style="fill:var(--color7,#e52836)" d="M.711 16.317c0 5.108 4.126 9.284 9.284 9.284 2.407 0 4.568-.933 6.238-2.407.344-.295.639-.639.933-.982H15.25a11.535 11.535 0 0 1-.688-.933h3.291c.196-.295.393-.639.54-.982h-4.372a5.899 5.899 0 0 1-.393-.982h5.108c.295-.933.491-1.916.491-2.947 0-.688-.098-1.326-.196-1.965h-5.698c.049-.344.147-.639.246-.982h5.108a5.83 5.83 0 0 0-.393-.982h-4.322c.147-.344.344-.639.54-.982h3.291a4.622 4.622 0 0 0-.737-.982h-1.817c.295-.344.589-.639.933-.933-1.621-1.523-3.831-2.407-6.238-2.407h-.049z"/><path fill="#cb2026" style="fill:var(--color8,#cb2026)" d="M9.995 25.6c2.407 0 4.568-.933 6.238-2.407.344-.295.639-.639.933-.982H15.25a11.535 11.535 0 0 1-.688-.933h3.291c.196-.295.393-.639.54-.982h-4.372a5.899 5.899 0 0 1-.393-.982h5.108c.295-.933.491-1.916.491-2.947 0-.688-.098-1.326-.196-1.965h-5.698c.049-.344.147-.639.246-.982h5.108a5.83 5.83 0 0 0-.393-.982h-4.322c.147-.344.344-.639.54-.982h3.291a4.622 4.622 0 0 0-.737-.982h-1.817c.295-.344.589-.639.933-.933-1.621-1.523-3.831-2.407-6.238-2.407h-.049z"/><path fill="#fff" style="fill:var(--color9,#fff)" d="m13.284 18.673.147-.835c-.049 0-.147.049-.246.049-.344 0-.393-.196-.344-.295l.295-1.719h.54l.147-.933h-.491l.098-.589h-.982s-.589 3.242-.589 3.635c0 .589.344.835.786.835.295 0 .54-.098.639-.147zM13.631 17.101c0 1.375.933 1.719 1.719 1.719.737 0 1.031-.147 1.031-.147l.196-.933s-.54.246-1.031.246c-1.081 0-.884-.786-.884-.786h2.014s.147-.639.147-.884c0-.639-.344-1.425-1.424-1.425-1.031-.098-1.768.982-1.768 2.21zm1.719-1.424c.54 0 .442.639.442.688h-1.081c0-.049.098-.688.639-.688zM21.593 18.673l.196-1.081s-.491.246-.835.246c-.688 0-.982-.54-.982-1.13 0-1.179.589-1.817 1.277-1.817.491 0 .884.295.884.295l.147-1.031s-.589-.246-1.13-.246c-1.13 0-2.259.982-2.259 2.849 0 1.228.589 2.063 1.768 2.063.393 0 .933-.147.933-.147zM7.883 14.793c-.688 0-1.179.196-1.179.196l-.147.835s.442-.196 1.081-.196c.344 0 .639.049.639.344 0 .196-.049.246-.049.246h-.442c-.835 0-1.768.344-1.768 1.474 0 .884.589 1.081.933 1.081.688 0 .982-.442 1.032-.442l-.049.393h.884l.393-2.702c0-1.179-.982-1.228-1.326-1.228zm.197 2.21c0 .147-.098.933-.688.933-.295 0-.393-.246-.393-.393 0-.246.147-.589.884-.589.147.049.196.049.196.049zM10.143 18.772c.246 0 1.474.049 1.474-1.277 0-1.228-1.179-.982-1.179-1.474 0-.246.196-.344.54-.344.147 0 .688.049.688.049l.147-.884s-.344-.098-.933-.098c-.737 0-1.474.295-1.474 1.277 0 1.13 1.228 1.032 1.228 1.474 0 .295-.344.344-.589.344-.442 0-.884-.147-.884-.147l-.147.884c.049.098.295.196 1.13.196zM29.745 14.007l-.196 1.326s-.393-.491-.933-.491c-.884 0-1.67 1.081-1.67 2.358 0 .786.393 1.621 1.228 1.621.589 0 .933-.393.933-.393l-.049.344h.982l.737-4.715-1.032-.049zm-.442 2.603c0 .54-.246 1.228-.786 1.228-.344 0-.54-.295-.54-.786 0-.786.344-1.277.786-1.277.344 0 .54.246.54.835zM2.532 18.723l.589-3.537.098 3.537h.688l1.277-3.537-.54 3.537h1.032l.786-4.715H4.841l-.982 2.898-.049-2.898H2.386L1.6 18.723h.933zM17.759 18.722c.295-1.621.344-2.947 1.032-2.702.098-.639.246-.884.344-1.13h-.196c-.442 0-.786.589-.786.589l.098-.54h-.933l-.639 3.831h1.081v-.049zM23.852 14.793c-.688 0-1.179.196-1.179.196l-.147.835s.442-.196 1.081-.196c.344 0 .639.049.639.344 0 .196-.049.246-.049.246h-.442c-.835 0-1.768.344-1.768 1.474 0 .884.589 1.081.933 1.081.688 0 .982-.442 1.032-.442l-.049.393h.884l.393-2.702c.049-1.179-.982-1.228-1.326-1.228zm.245 2.21c0 .147-.098.933-.688.933-.295 0-.393-.246-.393-.393 0-.246.147-.589.884-.589.147.049.147.049.196.049zM26.009 18.722c.295-1.621.344-2.947 1.032-2.702.098-.639.246-.884.344-1.13h-.196c-.442 0-.786.589-.786.589l.098-.54h-.933l-.639 3.831h1.081v-.049z"/><path fill="#dce5e5" style="fill:var(--color10,#dce5e5)" d="M11.763 17.986c0 .589.344.835.786.835.344 0 .639-.098.737-.147l.147-.835c-.049 0-.147.049-.246.049-.344 0-.393-.196-.344-.295l.295-1.719h.54l.147-.933h-.491l.098-.589zM14.12 17.101c0 1.375.442 1.719 1.228 1.719.737 0 1.031-.147 1.031-.147l.196-.933s-.54.246-1.031.246c-1.081 0-.884-.786-.884-.786h2.014s.147-.639.147-.884c0-.639-.344-1.425-1.424-1.425-1.031-.098-1.277.982-1.277 2.21zm1.228-1.424c.54 0 .639.639.639.688H14.71c0-.049.098-.688.639-.688zM21.592 18.673l.196-1.081s-.491.246-.835.246c-.688 0-.982-.54-.982-1.13 0-1.179.589-1.817 1.277-1.817.491 0 .884.295.884.295l.147-1.031s-.589-.246-1.13-.246c-1.13 0-1.768.982-1.768 2.849 0 1.228.098 2.063 1.277 2.063.393 0 .933-.147.933-.147zM6.557 15.873s.442-.196 1.081-.196c.344 0 .639.049.639.344 0 .196-.049.246-.049.246h-.442c-.835 0-1.768.344-1.768 1.474 0 .884.589 1.081.933 1.081.688 0 .982-.442 1.032-.442l-.049.393h.884l.393-2.702c0-1.13-.982-1.179-1.375-1.179l-1.277.982zm2.014 1.13c0 .147-.589.933-1.179.933-.295 0-.393-.246-.393-.393 0-.246.147-.589.884-.589.147.049.688.049.688.049zM9.063 18.673s.295.098 1.13.098c.246 0 1.474.049 1.474-1.277 0-1.228-1.179-.982-1.179-1.474 0-.246.196-.344.54-.344.147 0 .688.049.688.049l.147-.884s-.344-.098-.933-.098c-.737 0-.982.295-.982 1.277 0 1.13.737 1.032.737 1.474 0 .295-.344.344-.589.344zM29.547 15.333s-.393-.491-.933-.491c-.884 0-1.179 1.081-1.179 2.358 0 .786-.098 1.621.737 1.621.589 0 .933-.393.933-.393l-.049.344h.982l.737-4.715-1.228 1.277zm-.05 1.277c0 .54-.442 1.228-.982 1.228-.344 0-.54-.295-.54-.786 0-.786.344-1.277.786-1.277.344 0 .737.246.737.835zM2.532 18.723l.589-3.537.098 3.537h.688l1.277-3.537-.54 3.537h1.032l.786-4.715H5.234l-1.375 2.898-.049-2.898h-.54L1.6 18.723h.933zM16.727 18.722h1.032c.295-1.621.344-2.947 1.032-2.702.098-.639.246-.884.344-1.13h-.196c-.442 0-.786.589-.786.589l.098-.54zM22.526 15.873s.442-.196 1.081-.196c.344 0 .639.049.639.344 0 .196-.049.246-.049.246h-.442c-.835 0-1.768.344-1.768 1.474 0 .884.589 1.081.933 1.081.688 0 .982-.442 1.032-.442l-.049.393h.884l.393-2.702c0-1.13-.982-1.179-1.375-1.179l-1.277.982zm2.013 1.13c0 .147-.589.933-1.179.933-.295 0-.393-.246-.393-.393 0-.246.147-.589.884-.589.196.049.688.049.688.049zM24.981 18.722h1.032c.295-1.621.344-2.947 1.032-2.702.098-.639.246-.884.344-1.13h-.196c-.442 0-.786.589-.786.589l.098-.54z"/></symbol><symbol id="icon-linkedin-1" viewBox="0 0 32 32"><path d="M0 0h32v32H0V0z"/></symbol><symbol id="icon-twitter-1" viewBox="0 0 32 32"><path d="M0 0h32v32H0V0z"/></symbol><symbol id="icon-Group-2" viewBox="0 0 32 32"><path fill="#f98aab" style="fill:var(--color11,#f98aab)" d="M4.313 12.104h4.843a.625.625 0 0 0 0-1.25H4.313a.625.625 0 0 0 0 1.25zM4.313 16.434h4.843a.625.625 0 0 0 0-1.25H4.313a.625.625 0 0 0 0 1.25zM10.318 26.91c-.131-.314-.501-.469-.816-.338s-.468.502-.338.816c.131.315.501.468.816.338s.469-.502.338-.816z"/><path fill="#f98aab" style="fill:var(--color11,#f98aab)" d="m31.832 17.238-7.434-7.98 2.276-2.271c.395-.391.613-.913.613-1.469 0-.548-.212-1.065-.598-1.454a2.085 2.085 0 0 0-2.925-.023l-.006.006-3.121 3.113h-1.166v-2.4a.625.625 0 0 0-.625-.625h-3.31v-.511a.625.625 0 0 0-1.25 0v.511h-2.283v-.511a.625.625 0 0 0-1.25 0v.511H8.47v-.511a.625.625 0 0 0-1.25 0v.511H4.937v-.511a.625.625 0 0 0-1.25 0v.511H.624a.625.625 0 0 0-.625.625v22.388c0 .345.28.625.625.625h6.38a.625.625 0 0 0 0-1.25H1.249V5.385h2.438v.567a.625.625 0 0 0 1.25 0v-.567H7.22v.567a.625.625 0 0 0 1.25 0v-.567h2.283v.567a.625.625 0 0 0 1.25 0v-.567h2.283v.567a.625.625 0 0 0 1.25 0v-.567h2.685v1.779a4.522 4.522 0 0 0-2.991 1.311l-4.599 4.599a.631.631 0 0 0 .102.967 4.244 4.244 0 0 0 2.319.683h.003l-.717.716a.64.64 0 0 0-.124.178l-2.005 3.012a1.362 1.362 0 0 0-.227.882h-5.67a.625.625 0 0 0 0 1.25h7.039c.271 0 .543-.09.766-.242l3.047-2.071a.67.67 0 0 0 .101-.082l1.413-1.41 1.542 1.539v8.028h-5.719a.625.625 0 0 0 0 1.25h6.344c.345 0 .625-.28.625-.625v-7.433a4.384 4.384 0 0 0 2.816 1.014h2.493c.519 0 1.021.215 1.376.587l4.762 5.06c.379.403 1.08.125 1.08-.428v-8.284c0-.158-.06-.31-.168-.426zM16.116 9.359a3.25 3.25 0 0 1 2.291-.949h.979l-3.894 3.885c-.36.346-.701.685-1.163.899a3.052 3.052 0 0 1-2.188.14l3.975-3.975zm8.523-4.423a.83.83 0 0 1 1.163.008.81.81 0 0 1 .236.574.81.81 0 0 1-.244.582l-6.532 6.517-.315-.315a2.438 2.438 0 0 0-1.068-.622l6.76-6.744zm-13.223 14.55c-.053.036-.103.032-.15-.014-.069-.069-.034-.121-.015-.15l1.633-2.453.965.963-2.433 1.653zm3.41-2.445-1.16-1.16 1.191-1.188c.112.407.335.778.633 1.076l.305.304-.969.967zm15.924 7.331-3.685-3.916a3.172 3.172 0 0 0-2.284-.977h-2.493a3.147 3.147 0 0 1-2.236-.924l-3.68-3.672c-.531-.398-.413-1.282 0-1.701.464-.451 1.237-.45 1.691.003l2.99 2.99c.241.24.643.241.884 0a.625.625 0 0 0 0-.884L20.145 13.5l3.367-3.359 7.237 7.769v6.462z"/></symbol><symbol id="icon-Group-91" viewBox="0 0 32 32"><path fill="#f98aab" style="fill:var(--color11,#f98aab)" d="M17.664 7.765c1.64-.681 2.522-2.267 2.123-3.818S17.815 1.294 16 1.294s-3.388 1.102-3.787 2.653.483 3.137 2.124 3.818h3.327z"/><path fill="#f98aab" style="fill:var(--color11,#f98aab)" d="M11.6 9.059a.503.503 0 0 1-.377-.172c-2.15-2.406-2.266-6.128-.27-8.678.116-.156.303-.233.489-.202s.34.167.404.353a.569.569 0 0 1-.096.545c-1.664 2.125-1.566 5.228.227 7.231.141.159.18.392.098.592s-.269.33-.475.33zM21.208 6.471c-.199 0-.383-.084-.486-.221s-.111-.308-.021-.451c1.04-1.637.773-3.618-.679-5.035-.136-.127-.176-.303-.105-.46s.241-.272.446-.298.411.039.539.17c1.742 1.701 2.063 4.078.815 6.044-.098.154-.294.251-.508.251z"/><path fill="#f98aab" style="fill:var(--color11,#f98aab)" d="M26.353 14.804v8.346s0 2.842-1.729 4.487a1.027 1.027 0 0 0-.299.749v1.618c-.002.582-.455 1.053-1.014 1.055h-8.114c-.56-.002-1.013-.473-1.014-1.055v-.195a3.197 3.197 0 0 0-.908-2.246c-.979-.991-2.49-2.705-3.149-4.413-1.014-2.636-3.043-6.327-4.057-7.381s0-2.109 1.014-2.109 3.043 2.109 4.057 3.691c.323.509.701.978 1.126 1.397.252.244.607.337.941.248s.6-.35.707-.691c.193-.65.284-1.329.269-2.009V4.17c-.003-.67.405-1.268 1.014-1.487.162-.064.334-.096.507-.095.84 0 1.522.708 1.522 1.582v6.327c-.003-.67.405-1.268 1.014-1.487.162-.064.334-.096.507-.095.84 0 1.521.708 1.521 1.582v1.582c0-.419.161-.822.446-1.118a1.43 1.43 0 0 1 .568-.369c.162-.064.334-.096.507-.095.84 0 1.521.708 1.521 1.582v2.636c0-.419.16-.822.446-1.118a1.43 1.43 0 0 1 .568-.369c.198-.075.409-.106.619-.089.815.09 1.427.814 1.41 1.666z"/><path fill="#f8edf0" style="fill:var(--color12,#f8edf0)" d="M16.028 2.621a1.452 1.452 0 0 0-.522.094 1.551 1.551 0 0 0-1.045 1.473v12.015a6.24 6.24 0 0 1-.277 1.99 1.06 1.06 0 0 1-.47.575 1.04 1.04 0 0 0 1.515-.574 6.24 6.24 0 0 0 .277-1.99V4.189a1.55 1.55 0 0 1 1.045-1.473 1.458 1.458 0 0 0-.523-.094zM18.641 8.984a1.551 1.551 0 0 0-1.045 1.473v4.702a.522.522 0 1 0 1.045 0v-4.702a1.55 1.55 0 0 1 1.045-1.473 1.503 1.503 0 0 0-1.045 0zM21.781 10.552a1.565 1.565 0 0 0-1.045 1.473v3.135a.522.522 0 1 0 1.045 0v-3.135a1.551 1.551 0 0 1 1.045-1.473 1.503 1.503 0 0 0-1.045 0zM25.436 13.069a1.452 1.452 0 0 0-.522.094 1.565 1.565 0 0 0-1.045 1.473v1.045a.523.523 0 1 0 1.045 0v-1.045a1.551 1.551 0 0 1 1.045-1.473 1.456 1.456 0 0 0-.522-.094zM24.412 18.118c-.357 0-.647.217-.647.485v2.912c0 .268.29.485.647.485s.647-.217.647-.485v-2.912c0-.268-.29-.485-.647-.485zM24.64 23.294c-.232.005-.422.276-.44.623-.032.329-.14.63-.304.852-.112.162-.156.403-.117.629s.157.403.307.462.31-.008.418-.177c.327-.456.526-1.083.555-1.752 0-.349-.187-.633-.419-.638zM16.863 28.471h-.431c-.238 0-.431.29-.431.647s.193.647.431.647h.431c.238 0 .431-.29.431-.647s-.193-.647-.431-.647zM22.039 28.471h-3.02c-.238 0-.431.29-.431.647s.193.647.431.647h3.02c.238 0 .431-.29.431-.647s-.193-.647-.431-.647z"/></symbol><symbol id="icon-fast-delivery-1" viewBox="0 0 32 32"><path fill="#e0e2e5" style="fill:var(--color13,#e0e2e5)" d="M25.889 18H21a.498.498 0 0 1-.5-.5.498.498 0 0 1 .5-.5h4.889a.498.498 0 0 1 .5.5.498.498 0 0 1-.5.5z"/><path fill="#93573d" style="fill:var(--color14,#93573d)" d="m15 11.5 1 12v1h6v-1l1-12h-8z"/><path fill="#fdd14b" style="fill:var(--color15,#fdd14b)" d="M10 11.5V11H8v1.5H6v5h4V17h2v-5.5h-2z"/><path fill="#e4bc43" style="fill:var(--color16,#e4bc43)" d="M8 19a.498.498 0 0 1-.5-.5V13a.498.498 0 0 1 .5-.5.5.5 0 0 1 .5.5v5.5a.498.498 0 0 1-.5.5zM10.072 20a.5.5 0 0 1-.5-.496l-.071-7.5a.5.5 0 0 1 1-.01l.071 7.5a.5.5 0 0 1-.495.505h-.005z"/><path fill="#e74444" style="fill:var(--color17,#e74444)" d="m5.5 16.5 1 7v1h6v-8h-7z"/><path fill="#e0e2e5" style="fill:var(--color13,#e0e2e5)" d="M29 18h-1a.498.498 0 0 1-.5-.5.498.498 0 0 1 .5-.5h1a.498.498 0 0 1 .5.5.498.498 0 0 1-.5.5z"/><path fill="#a4d4f4" style="fill:var(--color18,#a4d4f4)" d="m23 11.5-.167 2h-7.666l-.167-2h8z"/><path fill="#e0e2e5" style="fill:var(--color13,#e0e2e5)" d="M14.029 8.5a.505.505 0 0 1-.441-.264.507.507 0 0 1 .025-.513l.475-.713a.503.503 0 0 0-.116-.678l-.486-.365a1.5 1.5 0 0 1-.348-2.032l.475-.713a.518.518 0 0 1 .318-.213.492.492 0 0 1 .375.074.49.49 0 0 1 .213.318.492.492 0 0 1-.075.375l-.475.713a.503.503 0 0 0 .116.678l.486.365a1.506 1.506 0 0 1 .348 2.032l-.475.713a.505.505 0 0 1-.416.223zM10.029 8.5a.505.505 0 0 1-.441-.264.507.507 0 0 1 .025-.513l.475-.713a.503.503 0 0 0-.116-.678l-.486-.365a1.5 1.5 0 0 1-.348-2.032l.475-.713a.503.503 0 0 1 .693-.139.503.503 0 0 1 .139.693l-.475.713a.503.503 0 0 0 .116.678l.486.365a1.506 1.506 0 0 1 .348 2.032l-.475.713a.505.505 0 0 1-.416.223zM17.973 8.5a.507.507 0 0 1-.441-.264.507.507 0 0 1 .025-.513l.475-.713a.503.503 0 0 0-.116-.678l-.486-.365a1.506 1.506 0 0 1-.348-2.032l.475-.713a.503.503 0 0 1 .693-.139.518.518 0 0 1 .213.318.492.492 0 0 1-.075.375l-.475.713a.503.503 0 0 0 .116.678l.486.365a1.506 1.506 0 0 1 .348 2.032l-.475.713a.5.5 0 0 1-.418.223zM30.5 15H25a.498.498 0 0 1-.5-.5.498.498 0 0 1 .5-.5h5.5a.498.498 0 0 1 .5.5.498.498 0 0 1-.5.5zM27 21h-3a.498.498 0 0 1-.5-.5.498.498 0 0 1 .5-.5h3a.498.498 0 0 1 .5.5.498.498 0 0 1-.5.5z"/><path fill="#c2c5c6" style="fill:var(--color19,#c2c5c6)" d="M30.5 29h-29a.498.498 0 0 1-.5-.5.498.498 0 0 1 .5-.5h29a.498.498 0 0 1 .5.5.498.498 0 0 1-.5.5z"/><path fill="#fdd14b" style="fill:var(--color15,#fdd14b)" d="M1.5 23.5h25v1a.997.997 0 0 1-1 1h-23a.997.997 0 0 1-1-1v-1z"/><path fill="#6a7073" style="fill:var(--color20,#6a7073)" d="M21.5 28.5a3 3 0 1 0 0-6 3 3 0 0 0 0 6z"/><path fill="#99a2a7" style="fill:var(--color21,#99a2a7)" d="M21.5 26.5a1 1 0 1 0 0-2 1 1 0 0 0 0 2z"/><path fill="#6a7073" style="fill:var(--color20,#6a7073)" d="M6.5 28.5a3 3 0 1 0 0-6 3 3 0 0 0 0 6z"/><path fill="#99a2a7" style="fill:var(--color21,#99a2a7)" d="M6.5 26.5a1 1 0 1 0 0-2 1 1 0 0 0 0 2z"/><path fill="#ea8333" style="fill:var(--color22,#ea8333)" d="M9.5 21.5h9v1a.997.997 0 0 1-1 1h-7a.997.997 0 0 1-1-1v-1z"/><path fill="#794832" style="fill:var(--color23,#794832)" d="M18.091 19.5c.502 0 .909.448.909 1s-.407 1-.909 1H9.909c-.502 0-.909-.448-.909-1s.407-1 .909-1h8.182z"/><path fill="#fdd14b" style="fill:var(--color15,#fdd14b)" d="M10 17.5h8v2h-8v-2z"/><path fill="#3ba673" style="fill:var(--color24,#3ba673)" d="M19.5 18c0 .828-.704 1.5-1.571 1.5a1.587 1.587 0 0 1-1.31-.671 1.623 1.623 0 0 1-2.046.493 1.615 1.615 0 0 1-.574-.493 1.623 1.623 0 0 1-2.046.493 1.615 1.615 0 0 1-.574-.493 1.593 1.593 0 0 1-1.31.671c-.868 0-1.571-.672-1.571-1.5a.498.498 0 0 1 .5-.5h10a.498.498 0 0 1 .5.5z"/><path fill="#e74444" style="fill:var(--color17,#e74444)" d="M18.5 13.5v-4a.497.497 0 0 1 .314-.464l2.5-1a.504.504 0 0 1 .544.114.492.492 0 0 1 .142.356.507.507 0 0 1-.314.458l-2.186.874V13.5h-1z"/><path fill="#ce3536" style="fill:var(--color25,#ce3536)" d="M18.5 11.5h1v2h-1v-2z"/></symbol><symbol id="icon-cash-back-1" viewBox="0 0 32 32"><path d="M25.872 22.088H9.122a.679.679 0 0 1-.679-.679v-7.824c0-.375.304-.679.679-.679h16.75c.375 0 .679.304.679.679v7.824a.679.679 0 0 1-.679.679z"/><path d="m8.462 21.127.961.961h16.449a.679.679 0 0 0 .679-.679v-7.824a.679.679 0 0 0-.679-.679H9.122a.679.679 0 0 0-.679.679v7.502l.018.04z"/><path d="M24.852 21.07H8.102a.679.679 0 0 1-.679-.679v-7.824c0-.375.304-.679.679-.679h16.75c.375 0 .679.304.679.679v7.824a.679.679 0 0 1-.679.679z"/><path d="m7.442 20.109.961.961h16.449a.679.679 0 0 0 .679-.679v-7.824a.679.679 0 0 0-.679-.679H8.102a.679.679 0 0 0-.679.679v7.502l.018.04z"/><path d="M23.835 20.052H7.085a.679.679 0 0 1-.679-.679v-7.824c0-.375.304-.679.679-.679h16.75c.375 0 .679.304.679.679v7.824a.679.679 0 0 1-.679.679z"/><path d="m6.425 19.09.961.961h16.449a.679.679 0 0 0 .679-.679v-7.824a.679.679 0 0 0-.679-.679H7.085a.679.679 0 0 0-.679.679v7.502l.018.04z"/><path d="M22.878 19.093H6.128a.679.679 0 0 1-.679-.679V10.59c0-.375.304-.679.679-.679h16.75c.375 0 .679.304.679.679v7.824a.679.679 0 0 1-.679.679z"/><path d="M22.533 11.853a.978.978 0 0 1-.918-.919.948.948 0 0 1 .035-.312H7.355c.028.099.04.204.035.312a.978.978 0 0 1-.918.919.965.965 0 0 1-.468-.092v5.484a.965.965 0 0 1 .468-.092.978.978 0 0 1 .883 1.232H21.65a.975.975 0 0 1-.035-.312.979.979 0 0 1 .918-.92.963.963 0 0 1 .468.092v-5.484a.965.965 0 0 1-.468.092z"/><path d="M14.502 16.853a2.35 2.35 0 1 0 0-4.702 2.35 2.35 0 0 0 0 4.702zM11.27 11.485H7.659v1.039h3.611v-1.039zM21.344 16.481h-3.611v1.039h3.611v-1.039z"/><path d="M31.078 7.253a1.404 1.404 0 0 0-1.692.608 15.688 15.688 0 0 0-4.151-4.524C22.53 1.352 19.322.303 15.957.303S9.385 1.352 6.679 3.337a15.63 15.63 0 0 0-5.624 7.717 1.405 1.405 0 0 0 2.666.884 12.838 12.838 0 0 1 4.62-6.337c2.22-1.629 4.854-2.49 7.616-2.49s5.396.861 7.616 2.49a12.902 12.902 0 0 1 3.236 3.436 1.404 1.404 0 0 0-.69 2.708l2.924 1.07.021.007.074.024a2.072 2.072 0 0 0 .116.028l.039.008c.027.005.055.008.082.011l.034.004c.038.003.077.005.116.005.036 0 .073-.002.109-.004l.026-.003.083-.01.032-.006c.026-.005.051-.009.076-.015a1.47 1.47 0 0 0 .106-.03l.011-.003.02-.008a1.461 1.461 0 0 0 .217-.097l.027-.015a1.533 1.533 0 0 0 .201-.143l.034-.029c.024-.021.046-.044.069-.066l.019-.019c.029-.031.057-.063.083-.097l.005-.007a1.603 1.603 0 0 0 .082-.122c.016-.027.032-.054.046-.082l.018-.035c.013-.026.024-.053.036-.08l.016-.038a.07.07 0 0 0 .005-.013l1.07-2.924a1.404 1.404 0 0 0-.836-1.801zM.922 24.747a1.402 1.402 0 0 0 1.692-.608 15.688 15.688 0 0 0 4.151 4.524c2.705 1.985 5.913 3.034 9.278 3.034s6.572-1.049 9.278-3.034a15.63 15.63 0 0 0 5.624-7.717 1.405 1.405 0 0 0-2.666-.884 12.838 12.838 0 0 1-4.62 6.337c-2.22 1.629-4.854 2.49-7.616 2.49s-5.396-.861-7.616-2.49a12.902 12.902 0 0 1-3.236-3.436 1.404 1.404 0 0 0 .69-2.708l-2.924-1.07-.021-.007a1.048 1.048 0 0 0-.114-.034 2.072 2.072 0 0 0-.076-.017l-.039-.008c-.027-.005-.055-.008-.082-.011l-.034-.004a1.479 1.479 0 0 0-.116-.005c-.036 0-.073.002-.109.004l-.026.003a2.347 2.347 0 0 0-.083.01l-.032.006c-.026.005-.051.009-.076.015a1.47 1.47 0 0 0-.106.03l-.011.003-.02.008a1.461 1.461 0 0 0-.092.036l-.038.017-.087.044-.027.015a1.533 1.533 0 0 0-.201.143l-.034.029c-.024.021-.046.044-.069.066l-.019.019a1.518 1.518 0 0 0-.083.097l-.005.007a2.016 2.016 0 0 0-.082.122c-.016.027-.032.054-.046.082l-.018.035c-.013.026-.024.053-.036.08l-.016.038a.07.07 0 0 0-.005.013l-1.07 2.924a1.404 1.404 0 0 0 .836 1.801z"/></symbol><symbol id="icon-Group-1" viewBox="0 0 32 32"><path d="M15.916 13.86 5.814 15.692l3.792 14.873a.94.94 0 0 0 .898.696h10.99a.94.94 0 0 0 .898-.696l3.792-14.873-10.266-1.832zm-1.75-2.748c.506 0 .916-.41.916-.916V.916a.916.916 0 1 0-1.832 0v9.28c0 .506.41.916.916.916zm3.664 0c.506 0 .916-.41.916-.916V.916a.916.916 0 1 0-1.832 0v9.28c0 .506.41.916.916.916z"/><path d="M27.393 11.204c-.44-.22-.989-.037-1.227.421l-1.117 2.235-2.784-4.176a.932.932 0 0 0-.769-.403h-10.99a.932.932 0 0 0-.769.403L6.953 13.86l-1.117-2.235c-.238-.458-.788-.641-1.227-.421-.458.238-.641.788-.421 1.227l1.63 3.26h20.368l1.63-3.26c.22-.44.037-.989-.421-1.227zM16 20.27c-1.515 0-2.748 1.232-2.748 2.747s1.233 2.748 2.748 2.748 2.747-1.232 2.747-2.748A2.75 2.75 0 0 0 16 20.27z"/></symbol><symbol id="icon-Group" viewBox="0 0 32 32"><path fill="#289bc3" style="fill:var(--color26,#289bc3)" d="M23.015 24.954v-13.6H2.092v13.6c0 .578.468 1.046 1.046 1.046h18.831c.578 0 1.046-.468 1.046-1.046z"/><path fill="#32283c" style="fill:var(--color27,#32283c)" d="M8.37 22.861H6.278a3.138 3.138 0 0 0 0 6.276H8.37a3.138 3.138 0 0 0 0-6.276zM27.199 22.861h-2.092a3.138 3.138 0 0 0 0 6.276h2.092a3.138 3.138 0 0 0 0-6.276z"/><path fill="#555a6e" style="fill:var(--color28,#555a6e)" d="M25.107 29.138a3.138 3.138 0 1 0 0-6.276 3.138 3.138 0 0 0 0 6.276z"/><path fill="#e6e6eb" style="fill:var(--color29,#e6e6eb)" d="M25.106 27.046a1.046 1.046 0 1 0 0-2.091 1.046 1.046 0 0 0 0 2.091z"/><path fill="#32283c" style="fill:var(--color27,#32283c)" d="M18.831 22.861h-2.092a3.138 3.138 0 0 0 0 6.276h2.092a3.138 3.138 0 0 0 0-6.276z"/><path fill="#a5c3dc" style="fill:var(--color30,#a5c3dc)" d="M29.294 12.4H13.602c-.578 0-1.046.468-1.046 1.046v1.046h16.738a1.046 1.046 0 1 0 0-2.092z"/><path fill="#d7e6f0" style="fill:var(--color31,#d7e6f0)" d="M18.832 12.4h-5.231c-.578 0-1.046.468-1.046 1.046v1.046h6.277a1.046 1.046 0 1 0 0-2.092z"/><path fill="#463c4b" style="fill:var(--color32,#463c4b)" d="M12.555 14.492h16.738v5.231H12.555v-5.231z"/><path fill="#555a6e" style="fill:var(--color28,#555a6e)" d="M12.555 14.492h6.277v5.231h-6.277v-5.231z"/><path fill="#a5c3dc" style="fill:var(--color30,#a5c3dc)" d="M30.34 26H13.602a1.046 1.046 0 0 1-1.046-1.046v-5.231h16.738c1.155 0 2.092.937 2.092 2.092v3.138c0 .578-.468 1.046-1.046 1.046z"/><path fill="#d7e6f0" style="fill:var(--color31,#d7e6f0)" d="M19.878 26h-6.277a1.046 1.046 0 0 1-1.046-1.046v-5.231h6.277c1.155 0 2.092.937 2.092 2.092v3.138c0 .578-.468 1.046-1.046 1.046z"/><path fill="#555a6e" style="fill:var(--color28,#555a6e)" d="M23.451 21.815h5.405a1.481 1.481 0 1 1 0 2.964h-5.405a1.482 1.482 0 1 1 0-2.964z"/><path fill="#00d2d2" style="fill:var(--color33,#00d2d2)" d="M23.453 24.082a.785.785 0 1 0 0-1.57.785.785 0 0 0 0 1.57zM28.854 24.082a.785.785 0 1 0 0-1.57.785.785 0 0 0 0 1.57z"/><path fill="#a5c3dc" style="fill:var(--color30,#a5c3dc)" d="M9.938 2.462H6.8a.523.523 0 1 0 0 1.046 3.666 3.666 0 0 1 3.662 3.662c0 .289.234.523.523.523h3.138a.523.523 0 0 0 .523-.523 4.713 4.713 0 0 0-4.708-4.708z"/><path fill="#a5c3dc" style="fill:var(--color30,#a5c3dc)" d="M18.307 2.462h-3.138a4.713 4.713 0 0 0-4.708 4.708c0 .289.234.523.523.523h3.138a.523.523 0 0 0 .523-.523 3.666 3.666 0 0 1 3.661-3.662.523.523 0 1 0 0-1.046z"/><path fill="#a5c3dc" style="fill:var(--color30,#a5c3dc)" d="M20.4 2.462h-3.138a.523.523 0 1 0 0 1.046c.865 0 1.569.704 1.569 1.569s-.704 1.569-1.569 1.569a.523.523 0 1 0 0 1.046H20.4c1.442 0 2.615-1.173 2.615-2.615S21.842 2.462 20.4 2.462zM7.845 6.646c-.865 0-1.569-.704-1.569-1.569s.704-1.569 1.569-1.569a.523.523 0 1 0 0-1.046H4.707c-1.442 0-2.615 1.173-2.615 2.615s1.173 2.615 2.615 2.615h3.138a.523.523 0 1 0 0-1.046z"/><path fill="#289bc3" style="fill:var(--color26,#289bc3)" d="M24.061 7.692H1.046C.468 7.692 0 8.16 0 8.738v1.569c0 .578.468 1.046 1.046 1.046h23.015c.578 0 1.046-.468 1.046-1.046V8.738c0-.578-.468-1.046-1.046-1.046z"/><path fill="#00d2d2" style="fill:var(--color33,#00d2d2)" d="M11.507 26H3.138a1.046 1.046 0 0 1-1.046-1.046V14.493h10.461v10.461c0 .578-.468 1.046-1.046 1.046zM12.554 7.692H1.046C.468 7.692 0 8.16 0 8.738v1.569c0 .578.468 1.046 1.046 1.046h11.508c.578 0 1.046-.468 1.046-1.046V8.738c0-.578-.468-1.046-1.046-1.046z"/><path fill="#d7e6f0" style="fill:var(--color31,#d7e6f0)" d="M7.322 10.308c0 .578.468 1.046 1.046 1.046H5.23a1.046 1.046 0 0 1-1.046-1.046V8.739c0-.578.468-1.046 1.046-1.046h3.138c-.578 0-1.046.468-1.046 1.046v1.569z"/><path fill="#a5c3dc" style="fill:var(--color30,#a5c3dc)" d="M17.787 10.308c0 .578-.468 1.046-1.046 1.046h3.138c.578 0 1.046-.468 1.046-1.046V8.739c0-.578-.468-1.046-1.046-1.046h-3.138c.578 0 1.046.468 1.046 1.046v1.569z"/><path fill="#d7e6f0" style="fill:var(--color31,#d7e6f0)" d="M17.263 7.692h-6.8v-.523a4.713 4.713 0 0 1 4.708-4.708h2.092c1.442 0 2.615 1.173 2.615 2.615s-1.173 2.615-2.615 2.615zm-5.716-1.046h5.717c.865 0 1.569-.704 1.569-1.569s-.704-1.569-1.569-1.569h-2.092a3.667 3.667 0 0 0-3.624 3.138z"/><path fill="#d7e6f0" style="fill:var(--color31,#d7e6f0)" d="M11.507 7.692h-6.8c-1.442 0-2.615-1.173-2.615-2.615s1.173-2.615 2.615-2.615h2.092a4.713 4.713 0 0 1 4.708 4.708v.523zm-6.8-4.184c-.865 0-1.569.704-1.569 1.569s.704 1.569 1.569 1.569h5.717A3.667 3.667 0 0 0 6.8 3.508H4.708z"/><path fill="#555a6e" style="fill:var(--color28,#555a6e)" d="M16.739 29.138a3.138 3.138 0 1 0 0-6.276 3.138 3.138 0 0 0 0 6.276z"/><path fill="#e6e6eb" style="fill:var(--color29,#e6e6eb)" d="M16.738 27.046a1.046 1.046 0 1 0 0-2.091 1.046 1.046 0 0 0 0 2.091z"/><path fill="#555a6e" style="fill:var(--color28,#555a6e)" d="M6.278 29.138a3.138 3.138 0 1 0 0-6.276 3.138 3.138 0 0 0 0 6.276z"/><path fill="#e6e6eb" style="fill:var(--color29,#e6e6eb)" d="M6.275 27.046a1.046 1.046 0 1 0 0-2.091 1.046 1.046 0 0 0 0 2.091z"/></symbol><symbol id="icon-images-removebg-preview-1" viewBox="0 0 32 32"><path d="M0 0h32v32H0V0z"/></symbol><symbol id="icon-Group-1171" viewBox="0 0 32 32"><path fill="#ffb600" style="fill:var(--color3,#ffb600)" d="M31.655 16.317c0 5.108-4.126 9.284-9.283 9.284-5.108 0-9.284-4.175-9.284-9.284s4.126-9.284 9.234-9.284c5.207 0 9.333 4.175 9.333 9.284z"/><path fill="#f7981d" style="fill:var(--color4,#f7981d)" d="M22.372 7.033c5.108 0 9.283 4.175 9.283 9.284s-4.126 9.284-9.283 9.284c-5.108 0-9.284-4.175-9.284-9.284z"/><path fill="#ff8500" style="fill:var(--color5,#ff8500)" d="M22.372 7.033c5.108 0 9.284 4.175 9.284 9.284s-4.126 9.284-9.284 9.284z"/><path fill="#ff5050" style="fill:var(--color6,#ff5050)" d="M9.896 7.033C4.837 7.082.711 11.208.711 16.317s4.126 9.284 9.284 9.284c2.407 0 4.568-.933 6.238-2.407.344-.295.639-.639.933-.982H15.25a11.535 11.535 0 0 1-.688-.933h3.291c.196-.295.393-.639.54-.982h-4.372a5.899 5.899 0 0 1-.393-.982h5.108c.295-.933.491-1.916.491-2.947 0-.688-.098-1.326-.196-1.965h-5.698c.049-.344.147-.639.246-.982h5.108a5.83 5.83 0 0 0-.393-.982h-4.322c.147-.344.344-.639.54-.982h3.291a4.622 4.622 0 0 0-.737-.982h-1.817c.295-.344.589-.639.933-.933-1.621-1.523-3.831-2.407-6.238-2.407 0-.098 0-.098-.049-.098z"/><path fill="#e52836" style="fill:var(--color7,#e52836)" d="M.711 16.317c0 5.108 4.126 9.284 9.284 9.284 2.407 0 4.568-.933 6.238-2.407.344-.295.639-.639.933-.982H15.25a11.535 11.535 0 0 1-.688-.933h3.291c.196-.295.393-.639.54-.982h-4.372a5.899 5.899 0 0 1-.393-.982h5.108c.295-.933.491-1.916.491-2.947 0-.688-.098-1.326-.196-1.965h-5.698c.049-.344.147-.639.246-.982h5.108a5.83 5.83 0 0 0-.393-.982h-4.322c.147-.344.344-.639.54-.982h3.291a4.622 4.622 0 0 0-.737-.982h-1.817c.295-.344.589-.639.933-.933-1.621-1.523-3.831-2.407-6.238-2.407h-.049z"/><path fill="#cb2026" style="fill:var(--color8,#cb2026)" d="M9.995 25.6c2.407 0 4.568-.933 6.238-2.407.344-.295.639-.639.933-.982H15.25a11.535 11.535 0 0 1-.688-.933h3.291c.196-.295.393-.639.54-.982h-4.372a5.899 5.899 0 0 1-.393-.982h5.108c.295-.933.491-1.916.491-2.947 0-.688-.098-1.326-.196-1.965h-5.698c.049-.344.147-.639.246-.982h5.108a5.83 5.83 0 0 0-.393-.982h-4.322c.147-.344.344-.639.54-.982h3.291a4.622 4.622 0 0 0-.737-.982h-1.817c.295-.344.589-.639.933-.933-1.621-1.523-3.831-2.407-6.238-2.407h-.049z"/><path fill="#fff" style="fill:var(--color9,#fff)" d="m13.284 18.673.147-.835c-.049 0-.147.049-.246.049-.344 0-.393-.196-.344-.295l.295-1.719h.54l.147-.933h-.491l.098-.589h-.982s-.589 3.242-.589 3.635c0 .589.344.835.786.835.295 0 .54-.098.639-.147zM13.631 17.101c0 1.375.933 1.719 1.719 1.719.737 0 1.031-.147 1.031-.147l.196-.933s-.54.246-1.031.246c-1.081 0-.884-.786-.884-.786h2.014s.147-.639.147-.884c0-.639-.344-1.425-1.424-1.425-1.031-.098-1.768.982-1.768 2.21zm1.719-1.424c.54 0 .442.639.442.688h-1.081c0-.049.098-.688.639-.688zM21.593 18.673l.196-1.081s-.491.246-.835.246c-.688 0-.982-.54-.982-1.13 0-1.179.589-1.817 1.277-1.817.491 0 .884.295.884.295l.147-1.031s-.589-.246-1.13-.246c-1.13 0-2.259.982-2.259 2.849 0 1.228.589 2.063 1.768 2.063.393 0 .933-.147.933-.147zM7.883 14.793c-.688 0-1.179.196-1.179.196l-.147.835s.442-.196 1.081-.196c.344 0 .639.049.639.344 0 .196-.049.246-.049.246h-.442c-.835 0-1.768.344-1.768 1.474 0 .884.589 1.081.933 1.081.688 0 .982-.442 1.032-.442l-.049.393h.884l.393-2.702c0-1.179-.982-1.228-1.326-1.228zm.197 2.21c0 .147-.098.933-.688.933-.295 0-.393-.246-.393-.393 0-.246.147-.589.884-.589.147.049.196.049.196.049zM10.143 18.772c.246 0 1.474.049 1.474-1.277 0-1.228-1.179-.982-1.179-1.474 0-.246.196-.344.54-.344.147 0 .688.049.688.049l.147-.884s-.344-.098-.933-.098c-.737 0-1.474.295-1.474 1.277 0 1.13 1.228 1.032 1.228 1.474 0 .295-.344.344-.589.344-.442 0-.884-.147-.884-.147l-.147.884c.049.098.295.196 1.13.196zM29.745 14.007l-.196 1.326s-.393-.491-.933-.491c-.884 0-1.67 1.081-1.67 2.358 0 .786.393 1.621 1.228 1.621.589 0 .933-.393.933-.393l-.049.344h.982l.737-4.715-1.032-.049zm-.442 2.603c0 .54-.246 1.228-.786 1.228-.344 0-.54-.295-.54-.786 0-.786.344-1.277.786-1.277.344 0 .54.246.54.835zM2.532 18.723l.589-3.537.098 3.537h.688l1.277-3.537-.54 3.537h1.032l.786-4.715H4.841l-.982 2.898-.049-2.898H2.386L1.6 18.723h.933zM17.759 18.722c.295-1.621.344-2.947 1.032-2.702.098-.639.246-.884.344-1.13h-.196c-.442 0-.786.589-.786.589l.098-.54h-.933l-.639 3.831h1.081v-.049zM23.852 14.793c-.688 0-1.179.196-1.179.196l-.147.835s.442-.196 1.081-.196c.344 0 .639.049.639.344 0 .196-.049.246-.049.246h-.442c-.835 0-1.768.344-1.768 1.474 0 .884.589 1.081.933 1.081.688 0 .982-.442 1.032-.442l-.049.393h.884l.393-2.702c.049-1.179-.982-1.228-1.326-1.228zm.245 2.21c0 .147-.098.933-.688.933-.295 0-.393-.246-.393-.393 0-.246.147-.589.884-.589.147.049.147.049.196.049zM26.009 18.722c.295-1.621.344-2.947 1.032-2.702.098-.639.246-.884.344-1.13h-.196c-.442 0-.786.589-.786.589l.098-.54h-.933l-.639 3.831h1.081v-.049z"/><path fill="#dce5e5" style="fill:var(--color10,#dce5e5)" d="M11.763 17.986c0 .589.344.835.786.835.344 0 .639-.098.737-.147l.147-.835c-.049 0-.147.049-.246.049-.344 0-.393-.196-.344-.295l.295-1.719h.54l.147-.933h-.491l.098-.589zM14.12 17.101c0 1.375.442 1.719 1.228 1.719.737 0 1.031-.147 1.031-.147l.196-.933s-.54.246-1.031.246c-1.081 0-.884-.786-.884-.786h2.014s.147-.639.147-.884c0-.639-.344-1.425-1.424-1.425-1.031-.098-1.277.982-1.277 2.21zm1.228-1.424c.54 0 .639.639.639.688H14.71c0-.049.098-.688.639-.688zM21.592 18.673l.196-1.081s-.491.246-.835.246c-.688 0-.982-.54-.982-1.13 0-1.179.589-1.817 1.277-1.817.491 0 .884.295.884.295l.147-1.031s-.589-.246-1.13-.246c-1.13 0-1.768.982-1.768 2.849 0 1.228.098 2.063 1.277 2.063.393 0 .933-.147.933-.147zM6.557 15.873s.442-.196 1.081-.196c.344 0 .639.049.639.344 0 .196-.049.246-.049.246h-.442c-.835 0-1.768.344-1.768 1.474 0 .884.589 1.081.933 1.081.688 0 .982-.442 1.032-.442l-.049.393h.884l.393-2.702c0-1.13-.982-1.179-1.375-1.179l-1.277.982zm2.014 1.13c0 .147-.589.933-1.179.933-.295 0-.393-.246-.393-.393 0-.246.147-.589.884-.589.147.049.688.049.688.049zM9.063 18.673s.295.098 1.13.098c.246 0 1.474.049 1.474-1.277 0-1.228-1.179-.982-1.179-1.474 0-.246.196-.344.54-.344.147 0 .688.049.688.049l.147-.884s-.344-.098-.933-.098c-.737 0-.982.295-.982 1.277 0 1.13.737 1.032.737 1.474 0 .295-.344.344-.589.344zM29.547 15.333s-.393-.491-.933-.491c-.884 0-1.179 1.081-1.179 2.358 0 .786-.098 1.621.737 1.621.589 0 .933-.393.933-.393l-.049.344h.982l.737-4.715-1.228 1.277zm-.05 1.277c0 .54-.442 1.228-.982 1.228-.344 0-.54-.295-.54-.786 0-.786.344-1.277.786-1.277.344 0 .737.246.737.835zM2.532 18.723l.589-3.537.098 3.537h.688l1.277-3.537-.54 3.537h1.032l.786-4.715H5.234l-1.375 2.898-.049-2.898h-.54L1.6 18.723h.933zM16.727 18.722h1.032c.295-1.621.344-2.947 1.032-2.702.098-.639.246-.884.344-1.13h-.196c-.442 0-.786.589-.786.589l.098-.54zM22.526 15.873s.442-.196 1.081-.196c.344 0 .639.049.639.344 0 .196-.049.246-.049.246h-.442c-.835 0-1.768.344-1.768 1.474 0 .884.589 1.081.933 1.081.688 0 .982-.442 1.032-.442l-.049.393h.884l.393-2.702c0-1.13-.982-1.179-1.375-1.179l-1.277.982zm2.013 1.13c0 .147-.589.933-1.179.933-.295 0-.393-.246-.393-.393 0-.246.147-.589.884-.589.196.049.688.049.688.049zM24.981 18.722h1.032c.295-1.621.344-2.947 1.032-2.702.098-.639.246-.884.344-1.13h-.196c-.442 0-.786.589-.786.589l.098-.54z"/></symbol><symbol id="icon-linkedin-11" viewBox="0 0 32 32"><path d="M0 0h32v32H0V0z"/></symbol><symbol id="icon-twitter-11" viewBox="0 0 32 32"><path d="M0 0h32v32H0V0z"/></symbol><symbol id="icon-Group-21" viewBox="0 0 32 32"><path fill="#f98aab" style="fill:var(--color11,#f98aab)" d="M4.313 12.104h4.843a.625.625 0 0 0 0-1.25H4.313a.625.625 0 0 0 0 1.25zM4.313 16.434h4.843a.625.625 0 0 0 0-1.25H4.313a.625.625 0 0 0 0 1.25zM10.318 26.91c-.131-.314-.501-.469-.816-.338s-.468.502-.338.816c.131.315.501.468.816.338s.469-.502.338-.816z"/><path fill="#f98aab" style="fill:var(--color11,#f98aab)" d="m31.832 17.238-7.434-7.98 2.276-2.271c.395-.391.613-.913.613-1.469 0-.548-.212-1.065-.598-1.454a2.085 2.085 0 0 0-2.925-.023l-.006.006-3.121 3.113h-1.166v-2.4a.625.625 0 0 0-.625-.625h-3.31v-.511a.625.625 0 0 0-1.25 0v.511h-2.283v-.511a.625.625 0 0 0-1.25 0v.511H8.47v-.511a.625.625 0 0 0-1.25 0v.511H4.937v-.511a.625.625 0 0 0-1.25 0v.511H.624a.625.625 0 0 0-.625.625v22.388c0 .345.28.625.625.625h6.38a.625.625 0 0 0 0-1.25H1.249V5.385h2.438v.567a.625.625 0 0 0 1.25 0v-.567H7.22v.567a.625.625 0 0 0 1.25 0v-.567h2.283v.567a.625.625 0 0 0 1.25 0v-.567h2.283v.567a.625.625 0 0 0 1.25 0v-.567h2.685v1.779a4.522 4.522 0 0 0-2.991 1.311l-4.599 4.599a.631.631 0 0 0 .102.967 4.244 4.244 0 0 0 2.319.683h.003l-.717.716a.64.64 0 0 0-.124.178l-2.005 3.012a1.362 1.362 0 0 0-.227.882h-5.67a.625.625 0 0 0 0 1.25h7.039c.271 0 .543-.09.766-.242l3.047-2.071a.67.67 0 0 0 .101-.082l1.413-1.41 1.542 1.539v8.028h-5.719a.625.625 0 0 0 0 1.25h6.344c.345 0 .625-.28.625-.625v-7.433a4.384 4.384 0 0 0 2.816 1.014h2.493c.519 0 1.021.215 1.376.587l4.762 5.06c.379.403 1.08.125 1.08-.428v-8.284c0-.158-.06-.31-.168-.426zM16.116 9.359a3.25 3.25 0 0 1 2.291-.949h.979l-3.894 3.885c-.36.346-.701.685-1.163.899a3.052 3.052 0 0 1-2.188.14l3.975-3.975zm8.523-4.423a.83.83 0 0 1 1.163.008.81.81 0 0 1 .236.574.81.81 0 0 1-.244.582l-6.532 6.517-.315-.315a2.438 2.438 0 0 0-1.068-.622l6.76-6.744zm-13.223 14.55c-.053.036-.103.032-.15-.014-.069-.069-.034-.121-.015-.15l1.633-2.453.965.963-2.433 1.653zm3.41-2.445-1.16-1.16 1.191-1.188c.112.407.335.778.633 1.076l.305.304-.969.967zm15.924 7.331-3.685-3.916a3.172 3.172 0 0 0-2.284-.977h-2.493a3.147 3.147 0 0 1-2.236-.924l-3.68-3.672c-.531-.398-.413-1.282 0-1.701.464-.451 1.237-.45 1.691.003l2.99 2.99c.241.24.643.241.884 0a.625.625 0 0 0 0-.884L20.145 13.5l3.367-3.359 7.237 7.769v6.462z"/></symbol><symbol id="icon-Group-911" viewBox="0 0 32 32"><path fill="#f98aab" style="fill:var(--color11,#f98aab)" d="M17.664 7.765c1.64-.681 2.522-2.267 2.123-3.818S17.815 1.294 16 1.294s-3.388 1.102-3.787 2.653.483 3.137 2.124 3.818h3.327z"/><path fill="#f98aab" style="fill:var(--color11,#f98aab)" d="M11.6 9.059a.503.503 0 0 1-.377-.172c-2.15-2.406-2.266-6.128-.27-8.678.116-.156.303-.233.489-.202s.34.167.404.353a.569.569 0 0 1-.096.545c-1.664 2.125-1.566 5.228.227 7.231.141.159.18.392.098.592s-.269.33-.475.33zM21.208 6.471c-.199 0-.383-.084-.486-.221s-.111-.308-.021-.451c1.04-1.637.773-3.618-.679-5.035-.136-.127-.176-.303-.105-.46s.241-.272.446-.298.411.039.539.17c1.742 1.701 2.063 4.078.815 6.044-.098.154-.294.251-.508.251z"/><path fill="#f98aab" style="fill:var(--color11,#f98aab)" d="M26.353 14.804v8.346s0 2.842-1.729 4.487a1.027 1.027 0 0 0-.299.749v1.618c-.002.582-.455 1.053-1.014 1.055h-8.114c-.56-.002-1.013-.473-1.014-1.055v-.195a3.197 3.197 0 0 0-.908-2.246c-.979-.991-2.49-2.705-3.149-4.413-1.014-2.636-3.043-6.327-4.057-7.381s0-2.109 1.014-2.109 3.043 2.109 4.057 3.691c.323.509.701.978 1.126 1.397.252.244.607.337.941.248s.6-.35.707-.691c.193-.65.284-1.329.269-2.009V4.17c-.003-.67.405-1.268 1.014-1.487.162-.064.334-.096.507-.095.84 0 1.522.708 1.522 1.582v6.327c-.003-.67.405-1.268 1.014-1.487.162-.064.334-.096.507-.095.84 0 1.521.708 1.521 1.582v1.582c0-.419.161-.822.446-1.118a1.43 1.43 0 0 1 .568-.369c.162-.064.334-.096.507-.095.84 0 1.521.708 1.521 1.582v2.636c0-.419.16-.822.446-1.118a1.43 1.43 0 0 1 .568-.369c.198-.075.409-.106.619-.089.815.09 1.427.814 1.41 1.666z"/><path fill="#f8edf0" style="fill:var(--color12,#f8edf0)" d="M16.028 2.621a1.452 1.452 0 0 0-.522.094 1.551 1.551 0 0 0-1.045 1.473v12.015a6.24 6.24 0 0 1-.277 1.99 1.06 1.06 0 0 1-.47.575 1.04 1.04 0 0 0 1.515-.574 6.24 6.24 0 0 0 .277-1.99V4.189a1.55 1.55 0 0 1 1.045-1.473 1.458 1.458 0 0 0-.523-.094zM18.641 8.984a1.551 1.551 0 0 0-1.045 1.473v4.702a.522.522 0 1 0 1.045 0v-4.702a1.55 1.55 0 0 1 1.045-1.473 1.503 1.503 0 0 0-1.045 0zM21.781 10.552a1.565 1.565 0 0 0-1.045 1.473v3.135a.522.522 0 1 0 1.045 0v-3.135a1.551 1.551 0 0 1 1.045-1.473 1.503 1.503 0 0 0-1.045 0zM25.436 13.069a1.452 1.452 0 0 0-.522.094 1.565 1.565 0 0 0-1.045 1.473v1.045a.523.523 0 1 0 1.045 0v-1.045a1.551 1.551 0 0 1 1.045-1.473 1.456 1.456 0 0 0-.522-.094zM24.412 18.118c-.357 0-.647.217-.647.485v2.912c0 .268.29.485.647.485s.647-.217.647-.485v-2.912c0-.268-.29-.485-.647-.485zM24.64 23.294c-.232.005-.422.276-.44.623-.032.329-.14.63-.304.852-.112.162-.156.403-.117.629s.157.403.307.462.31-.008.418-.177c.327-.456.526-1.083.555-1.752 0-.349-.187-.633-.419-.638zM16.863 28.471h-.431c-.238 0-.431.29-.431.647s.193.647.431.647h.431c.238 0 .431-.29.431-.647s-.193-.647-.431-.647zM22.039 28.471h-3.02c-.238 0-.431.29-.431.647s.193.647.431.647h3.02c.238 0 .431-.29.431-.647s-.193-.647-.431-.647z"/></symbol><symbol id="icon-fast-delivery-11" viewBox="0 0 32 32"><path fill="#e0e2e5" style="fill:var(--color13,#e0e2e5)" d="M25.889 18H21a.498.498 0 0 1-.5-.5.498.498 0 0 1 .5-.5h4.889a.498.498 0 0 1 .5.5.498.498 0 0 1-.5.5z"/><path fill="#93573d" style="fill:var(--color14,#93573d)" d="m15 11.5 1 12v1h6v-1l1-12h-8z"/><path fill="#fdd14b" style="fill:var(--color15,#fdd14b)" d="M10 11.5V11H8v1.5H6v5h4V17h2v-5.5h-2z"/><path fill="#e4bc43" style="fill:var(--color16,#e4bc43)" d="M8 19a.498.498 0 0 1-.5-.5V13a.498.498 0 0 1 .5-.5.5.5 0 0 1 .5.5v5.5a.498.498 0 0 1-.5.5zM10.072 20a.5.5 0 0 1-.5-.496l-.071-7.5a.5.5 0 0 1 1-.01l.071 7.5a.5.5 0 0 1-.495.505h-.005z"/><path fill="#e74444" style="fill:var(--color17,#e74444)" d="m5.5 16.5 1 7v1h6v-8h-7z"/><path fill="#e0e2e5" style="fill:var(--color13,#e0e2e5)" d="M29 18h-1a.498.498 0 0 1-.5-.5.498.498 0 0 1 .5-.5h1a.498.498 0 0 1 .5.5.498.498 0 0 1-.5.5z"/><path fill="#a4d4f4" style="fill:var(--color18,#a4d4f4)" d="m23 11.5-.167 2h-7.666l-.167-2h8z"/><path fill="#e0e2e5" style="fill:var(--color13,#e0e2e5)" d="M14.029 8.5a.505.505 0 0 1-.441-.264.507.507 0 0 1 .025-.513l.475-.713a.503.503 0 0 0-.116-.678l-.486-.365a1.5 1.5 0 0 1-.348-2.032l.475-.713a.518.518 0 0 1 .318-.213.492.492 0 0 1 .375.074.49.49 0 0 1 .213.318.492.492 0 0 1-.075.375l-.475.713a.503.503 0 0 0 .116.678l.486.365a1.506 1.506 0 0 1 .348 2.032l-.475.713a.505.505 0 0 1-.416.223zM10.029 8.5a.505.505 0 0 1-.441-.264.507.507 0 0 1 .025-.513l.475-.713a.503.503 0 0 0-.116-.678l-.486-.365a1.5 1.5 0 0 1-.348-2.032l.475-.713a.503.503 0 0 1 .693-.139.503.503 0 0 1 .139.693l-.475.713a.503.503 0 0 0 .116.678l.486.365a1.506 1.506 0 0 1 .348 2.032l-.475.713a.505.505 0 0 1-.416.223zM17.973 8.5a.507.507 0 0 1-.441-.264.507.507 0 0 1 .025-.513l.475-.713a.503.503 0 0 0-.116-.678l-.486-.365a1.506 1.506 0 0 1-.348-2.032l.475-.713a.503.503 0 0 1 .693-.139.518.518 0 0 1 .213.318.492.492 0 0 1-.075.375l-.475.713a.503.503 0 0 0 .116.678l.486.365a1.506 1.506 0 0 1 .348 2.032l-.475.713a.5.5 0 0 1-.418.223zM30.5 15H25a.498.498 0 0 1-.5-.5.498.498 0 0 1 .5-.5h5.5a.498.498 0 0 1 .5.5.498.498 0 0 1-.5.5zM27 21h-3a.498.498 0 0 1-.5-.5.498.498 0 0 1 .5-.5h3a.498.498 0 0 1 .5.5.498.498 0 0 1-.5.5z"/><path fill="#c2c5c6" style="fill:var(--color19,#c2c5c6)" d="M30.5 29h-29a.498.498 0 0 1-.5-.5.498.498 0 0 1 .5-.5h29a.498.498 0 0 1 .5.5.498.498 0 0 1-.5.5z"/><path fill="#fdd14b" style="fill:var(--color15,#fdd14b)" d="M1.5 23.5h25v1a.997.997 0 0 1-1 1h-23a.997.997 0 0 1-1-1v-1z"/><path fill="#6a7073" style="fill:var(--color20,#6a7073)" d="M21.5 28.5a3 3 0 1 0 0-6 3 3 0 0 0 0 6z"/><path fill="#99a2a7" style="fill:var(--color21,#99a2a7)" d="M21.5 26.5a1 1 0 1 0 0-2 1 1 0 0 0 0 2z"/><path fill="#6a7073" style="fill:var(--color20,#6a7073)" d="M6.5 28.5a3 3 0 1 0 0-6 3 3 0 0 0 0 6z"/><path fill="#99a2a7" style="fill:var(--color21,#99a2a7)" d="M6.5 26.5a1 1 0 1 0 0-2 1 1 0 0 0 0 2z"/><path fill="#ea8333" style="fill:var(--color22,#ea8333)" d="M9.5 21.5h9v1a.997.997 0 0 1-1 1h-7a.997.997 0 0 1-1-1v-1z"/><path fill="#794832" style="fill:var(--color23,#794832)" d="M18.091 19.5c.502 0 .909.448.909 1s-.407 1-.909 1H9.909c-.502 0-.909-.448-.909-1s.407-1 .909-1h8.182z"/><path fill="#fdd14b" style="fill:var(--color15,#fdd14b)" d="M10 17.5h8v2h-8v-2z"/><path fill="#3ba673" style="fill:var(--color24,#3ba673)" d="M19.5 18c0 .828-.704 1.5-1.571 1.5a1.587 1.587 0 0 1-1.31-.671 1.623 1.623 0 0 1-2.046.493 1.615 1.615 0 0 1-.574-.493 1.623 1.623 0 0 1-2.046.493 1.615 1.615 0 0 1-.574-.493 1.593 1.593 0 0 1-1.31.671c-.868 0-1.571-.672-1.571-1.5a.498.498 0 0 1 .5-.5h10a.498.498 0 0 1 .5.5z"/><path fill="#e74444" style="fill:var(--color17,#e74444)" d="M18.5 13.5v-4a.497.497 0 0 1 .314-.464l2.5-1a.504.504 0 0 1 .544.114.492.492 0 0 1 .142.356.507.507 0 0 1-.314.458l-2.186.874V13.5h-1z"/><path fill="#ce3536" style="fill:var(--color25,#ce3536)" d="M18.5 11.5h1v2h-1v-2z"/></symbol><symbol id="icon-cash-back-11" viewBox="0 0 32 32"><path d="M25.872 22.088H9.122a.679.679 0 0 1-.679-.679v-7.824c0-.375.304-.679.679-.679h16.75c.375 0 .679.304.679.679v7.824a.679.679 0 0 1-.679.679z"/><path d="m8.462 21.127.961.961h16.449a.679.679 0 0 0 .679-.679v-7.824a.679.679 0 0 0-.679-.679H9.122a.679.679 0 0 0-.679.679v7.502l.018.04z"/><path d="M24.852 21.07H8.102a.679.679 0 0 1-.679-.679v-7.824c0-.375.304-.679.679-.679h16.75c.375 0 .679.304.679.679v7.824a.679.679 0 0 1-.679.679z"/><path d="m7.442 20.109.961.961h16.449a.679.679 0 0 0 .679-.679v-7.824a.679.679 0 0 0-.679-.679H8.102a.679.679 0 0 0-.679.679v7.502l.018.04z"/><path d="M23.835 20.052H7.085a.679.679 0 0 1-.679-.679v-7.824c0-.375.304-.679.679-.679h16.75c.375 0 .679.304.679.679v7.824a.679.679 0 0 1-.679.679z"/><path d="m6.425 19.09.961.961h16.449a.679.679 0 0 0 .679-.679v-7.824a.679.679 0 0 0-.679-.679H7.085a.679.679 0 0 0-.679.679v7.502l.018.04z"/><path d="M22.878 19.093H6.128a.679.679 0 0 1-.679-.679V10.59c0-.375.304-.679.679-.679h16.75c.375 0 .679.304.679.679v7.824a.679.679 0 0 1-.679.679z"/><path d="M22.533 11.853a.978.978 0 0 1-.918-.919.948.948 0 0 1 .035-.312H7.355c.028.099.04.204.035.312a.978.978 0 0 1-.918.919.965.965 0 0 1-.468-.092v5.484a.965.965 0 0 1 .468-.092.978.978 0 0 1 .883 1.232H21.65a.975.975 0 0 1-.035-.312.979.979 0 0 1 .918-.92.963.963 0 0 1 .468.092v-5.484a.965.965 0 0 1-.468.092z"/><path d="M14.502 16.853a2.35 2.35 0 1 0 0-4.702 2.35 2.35 0 0 0 0 4.702zM11.27 11.485H7.659v1.039h3.611v-1.039zM21.344 16.481h-3.611v1.039h3.611v-1.039z"/><path d="M31.078 7.253a1.404 1.404 0 0 0-1.692.608 15.688 15.688 0 0 0-4.151-4.524C22.53 1.352 19.322.303 15.957.303S9.385 1.352 6.679 3.337a15.63 15.63 0 0 0-5.624 7.717 1.405 1.405 0 0 0 2.666.884 12.838 12.838 0 0 1 4.62-6.337c2.22-1.629 4.854-2.49 7.616-2.49s5.396.861 7.616 2.49a12.902 12.902 0 0 1 3.236 3.436 1.404 1.404 0 0 0-.69 2.708l2.924 1.07.021.007.074.024a2.072 2.072 0 0 0 .116.028l.039.008c.027.005.055.008.082.011l.034.004c.038.003.077.005.116.005.036 0 .073-.002.109-.004l.026-.003.083-.01.032-.006c.026-.005.051-.009.076-.015a1.47 1.47 0 0 0 .106-.03l.011-.003.02-.008a1.461 1.461 0 0 0 .217-.097l.027-.015a1.533 1.533 0 0 0 .201-.143l.034-.029c.024-.021.046-.044.069-.066l.019-.019c.029-.031.057-.063.083-.097l.005-.007a1.603 1.603 0 0 0 .082-.122c.016-.027.032-.054.046-.082l.018-.035c.013-.026.024-.053.036-.08l.016-.038a.07.07 0 0 0 .005-.013l1.07-2.924a1.404 1.404 0 0 0-.836-1.801zM.922 24.747a1.402 1.402 0 0 0 1.692-.608 15.688 15.688 0 0 0 4.151 4.524c2.705 1.985 5.913 3.034 9.278 3.034s6.572-1.049 9.278-3.034a15.63 15.63 0 0 0 5.624-7.717 1.405 1.405 0 0 0-2.666-.884 12.838 12.838 0 0 1-4.62 6.337c-2.22 1.629-4.854 2.49-7.616 2.49s-5.396-.861-7.616-2.49a12.902 12.902 0 0 1-3.236-3.436 1.404 1.404 0 0 0 .69-2.708l-2.924-1.07-.021-.007a1.048 1.048 0 0 0-.114-.034 2.072 2.072 0 0 0-.076-.017l-.039-.008c-.027-.005-.055-.008-.082-.011l-.034-.004a1.479 1.479 0 0 0-.116-.005c-.036 0-.073.002-.109.004l-.026.003a2.347 2.347 0 0 0-.083.01l-.032.006c-.026.005-.051.009-.076.015a1.47 1.47 0 0 0-.106.03l-.011.003-.02.008a1.461 1.461 0 0 0-.092.036l-.038.017-.087.044-.027.015a1.533 1.533 0 0 0-.201.143l-.034.029c-.024.021-.046.044-.069.066l-.019.019a1.518 1.518 0 0 0-.083.097l-.005.007a2.016 2.016 0 0 0-.082.122c-.016.027-.032.054-.046.082l-.018.035c-.013.026-.024.053-.036.08l-.016.038a.07.07 0 0 0-.005.013l-1.07 2.924a1.404 1.404 0 0 0 .836 1.801z"/></symbol><symbol id="icon-Group-11" viewBox="0 0 32 32"><path d="M15.916 13.86 5.814 15.692l3.792 14.873a.94.94 0 0 0 .898.696h10.99a.94.94 0 0 0 .898-.696l3.792-14.873-10.266-1.832zm-1.75-2.748c.506 0 .916-.41.916-.916V.916a.916.916 0 1 0-1.832 0v9.28c0 .506.41.916.916.916zm3.664 0c.506 0 .916-.41.916-.916V.916a.916.916 0 1 0-1.832 0v9.28c0 .506.41.916.916.916z"/><path d="M27.393 11.204c-.44-.22-.989-.037-1.227.421l-1.117 2.235-2.784-4.176a.932.932 0 0 0-.769-.403h-10.99a.932.932 0 0 0-.769.403L6.953 13.86l-1.117-2.235c-.238-.458-.788-.641-1.227-.421-.458.238-.641.788-.421 1.227l1.63 3.26h20.368l1.63-3.26c.22-.44.037-.989-.421-1.227zM16 20.27c-1.515 0-2.748 1.232-2.748 2.747s1.233 2.748 2.748 2.748 2.747-1.232 2.747-2.748A2.75 2.75 0 0 0 16 20.27z"/></symbol><symbol id="icon-Group1" viewBox="0 0 32 32"><path fill="#289bc3" style="fill:var(--color26,#289bc3)" d="M23.015 24.954v-13.6H2.092v13.6c0 .578.468 1.046 1.046 1.046h18.831c.578 0 1.046-.468 1.046-1.046z"/><path fill="#32283c" style="fill:var(--color27,#32283c)" d="M8.37 22.861H6.278a3.138 3.138 0 0 0 0 6.276H8.37a3.138 3.138 0 0 0 0-6.276zM27.199 22.861h-2.092a3.138 3.138 0 0 0 0 6.276h2.092a3.138 3.138 0 0 0 0-6.276z"/><path fill="#555a6e" style="fill:var(--color28,#555a6e)" d="M25.107 29.138a3.138 3.138 0 1 0 0-6.276 3.138 3.138 0 0 0 0 6.276z"/><path fill="#e6e6eb" style="fill:var(--color29,#e6e6eb)" d="M25.106 27.046a1.046 1.046 0 1 0 0-2.091 1.046 1.046 0 0 0 0 2.091z"/><path fill="#32283c" style="fill:var(--color27,#32283c)" d="M18.831 22.861h-2.092a3.138 3.138 0 0 0 0 6.276h2.092a3.138 3.138 0 0 0 0-6.276z"/><path fill="#a5c3dc" style="fill:var(--color30,#a5c3dc)" d="M29.294 12.4H13.602c-.578 0-1.046.468-1.046 1.046v1.046h16.738a1.046 1.046 0 1 0 0-2.092z"/><path fill="#d7e6f0" style="fill:var(--color31,#d7e6f0)" d="M18.832 12.4h-5.231c-.578 0-1.046.468-1.046 1.046v1.046h6.277a1.046 1.046 0 1 0 0-2.092z"/><path fill="#463c4b" style="fill:var(--color32,#463c4b)" d="M12.555 14.492h16.738v5.231H12.555v-5.231z"/><path fill="#555a6e" style="fill:var(--color28,#555a6e)" d="M12.555 14.492h6.277v5.231h-6.277v-5.231z"/><path fill="#a5c3dc" style="fill:var(--color30,#a5c3dc)" d="M30.34 26H13.602a1.046 1.046 0 0 1-1.046-1.046v-5.231h16.738c1.155 0 2.092.937 2.092 2.092v3.138c0 .578-.468 1.046-1.046 1.046z"/><path fill="#d7e6f0" style="fill:var(--color31,#d7e6f0)" d="M19.878 26h-6.277a1.046 1.046 0 0 1-1.046-1.046v-5.231h6.277c1.155 0 2.092.937 2.092 2.092v3.138c0 .578-.468 1.046-1.046 1.046z"/><path fill="#555a6e" style="fill:var(--color28,#555a6e)" d="M23.451 21.815h5.405a1.481 1.481 0 1 1 0 2.964h-5.405a1.482 1.482 0 1 1 0-2.964z"/><path fill="#00d2d2" style="fill:var(--color33,#00d2d2)" d="M23.453 24.082a.785.785 0 1 0 0-1.57.785.785 0 0 0 0 1.57zM28.854 24.082a.785.785 0 1 0 0-1.57.785.785 0 0 0 0 1.57z"/><path fill="#a5c3dc" style="fill:var(--color30,#a5c3dc)" d="M9.938 2.462H6.8a.523.523 0 1 0 0 1.046 3.666 3.666 0 0 1 3.662 3.662c0 .289.234.523.523.523h3.138a.523.523 0 0 0 .523-.523 4.713 4.713 0 0 0-4.708-4.708z"/><path fill="#a5c3dc" style="fill:var(--color30,#a5c3dc)" d="M18.307 2.462h-3.138a4.713 4.713 0 0 0-4.708 4.708c0 .289.234.523.523.523h3.138a.523.523 0 0 0 .523-.523 3.666 3.666 0 0 1 3.661-3.662.523.523 0 1 0 0-1.046z"/><path fill="#a5c3dc" style="fill:var(--color30,#a5c3dc)" d="M20.4 2.462h-3.138a.523.523 0 1 0 0 1.046c.865 0 1.569.704 1.569 1.569s-.704 1.569-1.569 1.569a.523.523 0 1 0 0 1.046H20.4c1.442 0 2.615-1.173 2.615-2.615S21.842 2.462 20.4 2.462zM7.845 6.646c-.865 0-1.569-.704-1.569-1.569s.704-1.569 1.569-1.569a.523.523 0 1 0 0-1.046H4.707c-1.442 0-2.615 1.173-2.615 2.615s1.173 2.615 2.615 2.615h3.138a.523.523 0 1 0 0-1.046z"/><path fill="#289bc3" style="fill:var(--color26,#289bc3)" d="M24.061 7.692H1.046C.468 7.692 0 8.16 0 8.738v1.569c0 .578.468 1.046 1.046 1.046h23.015c.578 0 1.046-.468 1.046-1.046V8.738c0-.578-.468-1.046-1.046-1.046z"/><path fill="#00d2d2" style="fill:var(--color33,#00d2d2)" d="M11.507 26H3.138a1.046 1.046 0 0 1-1.046-1.046V14.493h10.461v10.461c0 .578-.468 1.046-1.046 1.046zM12.554 7.692H1.046C.468 7.692 0 8.16 0 8.738v1.569c0 .578.468 1.046 1.046 1.046h11.508c.578 0 1.046-.468 1.046-1.046V8.738c0-.578-.468-1.046-1.046-1.046z"/><path fill="#d7e6f0" style="fill:var(--color31,#d7e6f0)" d="M7.322 10.308c0 .578.468 1.046 1.046 1.046H5.23a1.046 1.046 0 0 1-1.046-1.046V8.739c0-.578.468-1.046 1.046-1.046h3.138c-.578 0-1.046.468-1.046 1.046v1.569z"/><path fill="#a5c3dc" style="fill:var(--color30,#a5c3dc)" d="M17.787 10.308c0 .578-.468 1.046-1.046 1.046h3.138c.578 0 1.046-.468 1.046-1.046V8.739c0-.578-.468-1.046-1.046-1.046h-3.138c.578 0 1.046.468 1.046 1.046v1.569z"/><path fill="#d7e6f0" style="fill:var(--color31,#d7e6f0)" d="M17.263 7.692h-6.8v-.523a4.713 4.713 0 0 1 4.708-4.708h2.092c1.442 0 2.615 1.173 2.615 2.615s-1.173 2.615-2.615 2.615zm-5.716-1.046h5.717c.865 0 1.569-.704 1.569-1.569s-.704-1.569-1.569-1.569h-2.092a3.667 3.667 0 0 0-3.624 3.138z"/><path fill="#d7e6f0" style="fill:var(--color31,#d7e6f0)" d="M11.507 7.692h-6.8c-1.442 0-2.615-1.173-2.615-2.615s1.173-2.615 2.615-2.615h2.092a4.713 4.713 0 0 1 4.708 4.708v.523zm-6.8-4.184c-.865 0-1.569.704-1.569 1.569s.704 1.569 1.569 1.569h5.717A3.667 3.667 0 0 0 6.8 3.508H4.708z"/><path fill="#555a6e" style="fill:var(--color28,#555a6e)" d="M16.739 29.138a3.138 3.138 0 1 0 0-6.276 3.138 3.138 0 0 0 0 6.276z"/><path fill="#e6e6eb" style="fill:var(--color29,#e6e6eb)" d="M16.738 27.046a1.046 1.046 0 1 0 0-2.091 1.046 1.046 0 0 0 0 2.091z"/><path fill="#555a6e" style="fill:var(--color28,#555a6e)" d="M6.278 29.138a3.138 3.138 0 1 0 0-6.276 3.138 3.138 0 0 0 0 6.276z"/><path fill="#e6e6eb" style="fill:var(--color29,#e6e6eb)" d="M6.275 27.046a1.046 1.046 0 1 0 0-2.091 1.046 1.046 0 0 0 0 2.091z"/></symbol><symbol id="icon-images-removebg-preview-11" viewBox="0 0 32 32"><path d="M0 0h32v32H0V0z"/></symbol><symbol id="icon-menu" viewBox="0 0 32 32"><path d="M6.4 11.734V9.6h19.2v2.134H6.4zm0 5.332h19.2v-2.133H6.4v2.133zm0 5.334h19.2v-2.134H6.4V22.4z"/></symbol><symbol id="icon-add-to-cart" viewBox="0 0 32 32"><path fill="#f9c2d2" style="fill:var(--color1,#f9c2d2)" d="M26.377 27.25H8.56a2.815 2.815 0 0 1-2.811-2.811 2.815 2.815 0 0 1 2.811-2.814h2.811l-1.689 1.874h-1.12a.937.937 0 1 0 0 1.874h17.81v1.874z"/><path fill="#f98aab" style="fill:var(--color2,#f98aab)" d="M17.938 25.376h8.437v1.874h-8.437v-1.874z"/><path fill="#f98aab" style="fill:var(--color2,#f98aab)" opacity=".5" d="m6.773 10.377-.837-3.753H0V4.75h7.44l1.623 7.273-2.29-1.646z"/><path fill="#f9c2d2" style="fill:var(--color1,#f9c2d2)" d="m21.966 10.697-.281-.32H6.778l2.91 13.122h16.48l3.303-12.786c-.64.16-4.439 3.506-7.504-.016zm4.717 3.31L26.164 16h-4.393l.238-2.859a6.685 6.685 0 0 0 4.674.866zM15.991 16l-.313-3.749h4.526L19.891 16h-3.902zm3.744 1.874-.313 3.749h-2.965l-.313-3.749h3.589zm-5.938-5.623L14.11 16H9.943l-.83-3.749h4.681zm-3.436 5.623h3.904l.313 3.749h-3.385l-.832-3.749zm10.942 3.749.311-3.749h4.069l-.969 3.749h-3.41z"/><path fill="#f98aab" style="fill:var(--color2,#f98aab)" d="m21.963 10.697-.281-.32h-3.744v1.874h2.263L19.886 16h-1.95v1.874h1.794l-.313 3.749h-1.481V23.5h8.226l3.303-12.786c-.64.16-4.439 3.506-7.504-.016zm2.748 10.926h-3.408l.311-3.749h4.069l-.969 3.749zm1.968-7.616L26.165 16H21.77l.238-2.859a6.68 6.68 0 0 0 4.672.866z"/><path fill="#665151" style="fill:var(--color3,#665151)" d="M12.313 31.001a2.817 2.817 0 0 1-.008-5.622h.008a2.81 2.81 0 1 1 0 5.62z"/><path fill="#4d3535" style="fill:var(--color4,#4d3535)" d="M21.687 31.001a2.817 2.817 0 0 1-.008-5.622h.008a2.809 2.809 0 0 1 2.811 2.809 2.813 2.813 0 0 1-2.811 2.811z"/><path fill="#f9c2d2" style="fill:var(--color1,#f9c2d2)" d="M25.438 14.126a6.564 6.564 0 0 1-6.562-6.562A6.572 6.572 0 0 1 25.435.999h.001a6.572 6.572 0 0 1 6.565 6.567v.005a6.555 6.555 0 0 1-6.555 6.555h-.007z"/><path fill="#fff7e6" style="fill:var(--color5,#fff7e6)" d="M12.313 29.125a.937.937 0 1 0 0-1.874.937.937 0 1 0 0 1.874z"/><path fill="#ffeacc" style="fill:var(--color6,#ffeacc)" d="M21.687 29.125a.937.937 0 1 0 0-1.874.937.937 0 1 0 0 1.874z"/><path fill="#f98aab" style="fill:var(--color2,#f98aab)" d="M32 7.563A6.572 6.572 0 0 0 25.438.998v13.127h.007A6.555 6.555 0 0 0 32 7.57v-.007z"/><path fill="#fff" style="fill:var(--color7,#fff)" d="M28.251 6.624h-1.874V4.75H24.5v1.874h-1.874v1.874H24.5v1.877h1.874V8.501h1.874V6.627z"/><path fill="#fff" style="fill:var(--color7,#fff)" d="M25.438 4.75v5.627h.937V8.503h1.874V6.629h-1.874V4.755h-.937z"/></symbol><symbol id="icon-Download_on_the_App_Store_Badge" viewBox="0 0 108 32"><path fill="#a6a6a6" style="fill:var(--color1,#a6a6a6)" d="M104.158 32H3.784a3.791 3.791 0 0 1-3.783-3.786V3.781A3.787 3.787 0 0 1 3.784 0h100.374C106.243 0 108 1.696 108 3.781v24.433c0 2.084-1.758 3.786-3.842 3.786z"/><path style="fill:var(--color2,#000)" d="M107.226 28.214a3.064 3.064 0 0 1-3.067 3.064H3.784a3.068 3.068 0 0 1-3.071-3.064V3.78A3.072 3.072 0 0 1 3.784.712h100.374a3.067 3.067 0 0 1 3.067 3.068l.001 24.434z"/><path fill="#fff" style="fill:var(--color3,#fff)" d="M24.102 15.827c-.023-2.578 2.111-3.833 2.209-3.891-1.209-1.762-3.082-2.003-3.741-2.022-1.574-.166-3.1.942-3.902.942-.818 0-2.052-.926-3.382-.898-1.712.026-3.314 1.018-4.192 2.557-1.813 3.138-.461 7.75 1.276 10.287.869 1.242 1.884 2.63 3.213 2.581 1.3-.054 1.786-.829 3.354-.829 1.554 0 2.01.829 3.366.798 1.395-.022 2.274-1.248 3.112-2.502 1.004-1.424 1.407-2.826 1.423-2.898-.033-.011-2.71-1.033-2.736-4.123zM21.542 8.245c.699-.874 1.178-2.064 1.045-3.271-1.012.045-2.278.7-3.006 1.555-.645.754-1.221 1.989-1.072 3.15 1.137.085 2.304-.574 3.034-1.434zM42.916 25.203h-1.817l-.995-3.127h-3.459l-.948 3.127h-1.769l3.427-10.646h2.117l3.444 10.646zm-3.112-4.439-.9-2.78c-.095-.284-.274-.953-.537-2.006h-.032a78.349 78.349 0 0 1-.506 2.006l-.884 2.78h2.858zM51.73 21.27c0 1.306-.353 2.338-1.058 3.095-.632.674-1.417 1.011-2.354 1.011-1.011 0-1.738-.363-2.18-1.09h-.032v4.044H44.4v-8.278c0-.821-.022-1.663-.063-2.527h1.5l.095 1.217h.032c.569-.917 1.432-1.374 2.59-1.374.906 0 1.662.358 2.266 1.074.606.717.909 1.659.909 2.828zm-1.738.063c0-.747-.168-1.363-.506-1.848-.369-.506-.864-.758-1.485-.758-.421 0-.803.141-1.145.418-.342.28-.566.646-.671 1.098a2.219 2.219 0 0 0-.079.52v1.28c0 .558.171 1.03.514 1.414s.787.577 1.334.577c.642 0 1.142-.248 1.5-.742s.538-1.148.538-1.959zM60.559 21.27c0 1.306-.353 2.338-1.059 3.095-.631.674-1.416 1.011-2.353 1.011-1.011 0-1.738-.363-2.179-1.09h-.032v4.044H53.23v-8.278c0-.821-.022-1.663-.063-2.527h1.5l.095 1.217h.032c.568-.917 1.431-1.374 2.59-1.374.905 0 1.661.358 2.267 1.074.604.717.907 1.659.907 2.828zm-1.737.063c0-.747-.169-1.363-.506-1.848-.369-.506-.862-.758-1.484-.758a1.78 1.78 0 0 0-1.146.418c-.342.28-.566.646-.67 1.098a2.273 2.273 0 0 0-.079.52v1.28c0 .558.171 1.03.512 1.414.342.384.787.577 1.336.577.642 0 1.142-.248 1.5-.742s.538-1.148.538-1.959zM70.431 22.218c0 .906-.314 1.642-.946 2.211-.694.622-1.659.932-2.9.932-1.146 0-2.064-.221-2.759-.663l.395-1.422c.749.453 1.57.68 2.466.68.642 0 1.142-.146 1.502-.435.358-.29.536-.678.536-1.163 0-.432-.147-.796-.442-1.091-.294-.295-.784-.57-1.469-.823-1.864-.695-2.795-1.714-2.795-3.053 0-.875.326-1.593.98-2.151.651-.559 1.52-.838 2.606-.838.969 0 1.774.169 2.416.506l-.426 1.39c-.6-.326-1.278-.49-2.038-.49-.6 0-1.069.148-1.405.442a1.263 1.263 0 0 0-.426.964c0 .421.162.769.489 1.042.284.253.8.526 1.549.822.916.369 1.589.8 2.022 1.294.431.493.646 1.11.646 1.846zM76.07 18.806h-1.88v3.727c0 .948.331 1.422.995 1.422.305 0 .558-.026.758-.079l.047 1.295c-.336.126-.778.189-1.326.189-.674 0-1.2-.206-1.58-.616-.378-.411-.569-1.101-.569-2.07v-3.87h-1.12v-1.28h1.12v-1.406l1.675-.506v1.911h1.88v1.282zM84.553 21.302c0 1.18-.338 2.149-1.011 2.906-.706.78-1.644 1.169-2.813 1.169-1.126 0-2.023-.374-2.692-1.121s-1.003-1.69-1.003-2.827c0-1.19.344-2.164 1.034-2.922.689-.758 1.618-1.138 2.787-1.138 1.126 0 2.033.374 2.717 1.122.654.726.981 1.662.981 2.81zm-1.77.055c0-.708-.151-1.315-.458-1.822-.358-.613-.869-.918-1.531-.918-.686 0-1.206.306-1.564.918-.306.507-.458 1.124-.458 1.854 0 .708.151 1.315.458 1.821.369.613.884.918 1.549.918.651 0 1.162-.312 1.531-.934.314-.516.473-1.13.473-1.837zM90.097 19.026a2.984 2.984 0 0 0-.538-.047c-.6 0-1.064.226-1.39.68-.284.4-.426.906-.426 1.516v4.028h-1.705l.016-5.259c0-.885-.022-1.69-.064-2.417h1.486l.062 1.469h.047c.18-.505.464-.911.853-1.216.38-.274.79-.411 1.233-.411.158 0 .3.011.426.031v1.626zM97.725 21.002c0 .306-.02.563-.062.774h-5.117c.02.758.267 1.338.742 1.738.431.358.989.537 1.674.537.758 0 1.449-.121 2.07-.363l.267 1.184c-.726.317-1.584.474-2.574.474-1.19 0-2.125-.35-2.805-1.05-.678-.7-1.018-1.64-1.018-2.819 0-1.158.316-2.122.949-2.89.662-.821 1.558-1.231 2.684-1.231 1.106 0 1.944.41 2.513 1.231.45.652.677 1.458.677 2.416zm-1.627-.443c.011-.506-.1-.942-.331-1.311-.295-.474-.749-.711-1.359-.711-.558 0-1.011.231-1.358.695a2.545 2.545 0 0 0-.505 1.326h3.553zM39.24 8.007c0 .942-.282 1.65-.846 2.126-.522.439-1.265.659-2.226.659-.477 0-.885-.021-1.226-.062V5.585a9.057 9.057 0 0 1 1.444-.109c.916 0 1.606.199 2.072.598.522.45.783 1.094.783 1.933zm-.884.023c0-.61-.162-1.078-.485-1.405s-.795-.489-1.417-.489c-.264 0-.489.018-.675.054v3.911c.103.016.292.023.566.023.642 0 1.137-.178 1.486-.535s.525-.877.525-1.56zM43.927 8.83c0 .58-.166 1.055-.497 1.428-.347.383-.807.574-1.382.574-.554 0-.994-.183-1.323-.551s-.492-.83-.492-1.389c0-.584.169-1.063.508-1.435s.795-.558 1.37-.558c.554 0 .998.183 1.335.55.32.357.481.818.481 1.381zm-.869.027c0-.348-.075-.646-.225-.895-.176-.301-.426-.451-.752-.451-.337 0-.593.15-.769.451-.15.249-.225.552-.225.91 0 .348.075.646.225.895.182.301.434.451.761.451.32 0 .571-.153.752-.459.155-.254.233-.554.233-.902zM50.212 6.975l-1.18 3.771h-.768l-.489-1.638a12.165 12.165 0 0 1-.303-1.218h-.015c-.073.414-.174.82-.303 1.218l-.519 1.638h-.777l-1.11-3.771h.862l.426 1.793c.103.424.188.828.256 1.21h.015c.062-.315.166-.717.311-1.202l.535-1.8h.683l.513 1.762c.124.43.225.843.302 1.242h.023c.057-.388.142-.802.256-1.242l.458-1.762h.823zM54.558 10.746h-.838v-2.16c0-.666-.253-.998-.76-.998a.757.757 0 0 0-.606.274.975.975 0 0 0-.233.646v2.237h-.838V8.052c0-.331-.01-.69-.03-1.079h.737l.039.59h.023c.098-.183.243-.334.434-.455.227-.141.482-.212.76-.212.352 0 .645.114.878.342.29.279.434.696.434 1.25v2.259zM56.87 10.746h-.838V5.244h.838v5.502zM61.806 8.83c0 .58-.166 1.055-.497 1.428-.347.383-.808.574-1.382.574-.554 0-.995-.183-1.323-.551s-.492-.83-.492-1.389c0-.584.169-1.063.508-1.435s.795-.558 1.369-.558c.554 0 .998.183 1.336.55.32.357.481.818.481 1.381zm-.87.027c0-.348-.075-.646-.225-.895-.175-.301-.426-.451-.751-.451-.338 0-.594.15-.769.451-.15.249-.225.552-.225.91 0 .348.075.646.225.895.182.301.434.451.761.451.32 0 .57-.153.751-.459.156-.254.233-.554.233-.902zM65.864 10.746h-.753l-.062-.434h-.023c-.258.346-.625.52-1.102.52-.356 0-.644-.114-.861-.342a1.07 1.07 0 0 1-.295-.768c0-.461.192-.812.578-1.055s.928-.362 1.626-.357v-.07c0-.497-.261-.745-.783-.745-.372 0-.7.094-.983.279l-.17-.55c.35-.217.783-.326 1.294-.326.986 0 1.48.52 1.48 1.56v1.389c0 .377.018.677.054.899zm-.87-1.296v-.582c-.925-.016-1.387.238-1.387.76 0 .197.053.344.161.442s.246.147.41.147c.184 0 .356-.058.513-.174a.715.715 0 0 0 .304-.593zM70.628 10.746h-.744l-.039-.606h-.023c-.238.461-.642.691-1.211.691-.454 0-.833-.178-1.133-.535s-.45-.82-.45-1.389c0-.61.162-1.105.489-1.482a1.503 1.503 0 0 1 1.164-.528c.506 0 .861.17 1.062.512h.016V5.244h.839V9.73c0 .367.01.706.03 1.016zm-.869-1.59v-.629a.955.955 0 0 0-.326-.772.824.824 0 0 0-.561-.206.86.86 0 0 0-.738.373c-.178.249-.269.566-.269.954 0 .373.086.675.258.908a.863.863 0 0 0 .733.372.807.807 0 0 0 .662-.31c.162-.191.241-.422.241-.69zM77.798 8.83c0 .58-.166 1.055-.497 1.428-.347.383-.806.574-1.382.574-.553 0-.994-.183-1.323-.551-.328-.367-.492-.83-.492-1.389 0-.584.169-1.063.508-1.435s.795-.558 1.37-.558c.553 0 .998.183 1.334.55.32.357.481.818.481 1.381zm-.868.027c0-.348-.075-.646-.225-.895-.177-.301-.426-.451-.753-.451-.336 0-.592.15-.769.451-.15.249-.225.552-.225.91 0 .348.075.646.225.895.182.301.434.451.761.451.32 0 .572-.153.753-.459.154-.254.233-.554.233-.902zM82.306 10.746h-.838v-2.16c0-.666-.253-.998-.761-.998-.249 0-.45.091-.605.274s-.233.399-.233.646v2.237h-.839V8.052c0-.331-.01-.69-.03-1.079h.736l.039.59h.023c.098-.183.244-.334.434-.455a1.42 1.42 0 0 1 .761-.212c.351 0 .644.114.877.342.29.279.434.696.434 1.25v2.259zM87.949 7.603h-.923v1.832c0 .466.164.698.489.698.15 0 .275-.013.374-.039l.022.636a1.893 1.893 0 0 1-.651.094c-.331 0-.589-.101-.775-.302s-.28-.541-.28-1.017V7.603h-.551v-.628h.551v-.691l.822-.248v.938h.923v.629zM92.387 10.746h-.839V8.602c0-.676-.253-1.014-.759-1.014-.389 0-.654.196-.8.588a1.045 1.045 0 0 0-.039.302v2.268h-.838V5.245h.838v2.273h.016c.264-.414.642-.62 1.133-.62.347 0 .634.114.862.342.284.284.426.706.426 1.265v2.242zM96.966 8.682c0 .15-.011.277-.031.38h-2.514c.011.373.131.657.364.854.213.176.487.264.823.264.372 0 .711-.059 1.017-.178l.131.582c-.358.155-.778.233-1.266.233-.584 0-1.044-.172-1.377-.516-.334-.344-.5-.806-.5-1.385 0-.569.154-1.042.466-1.42.325-.403.764-.605 1.318-.605.542 0 .954.202 1.233.605.225.32.336.716.336 1.186zm-.8-.216a1.137 1.137 0 0 0-.162-.644c-.146-.233-.367-.35-.667-.35a.795.795 0 0 0-.667.342 1.27 1.27 0 0 0-.249.652h1.746z"/></symbol><symbol id="icon-Google_Play_Store_badge_EN" viewBox="0 0 108 32"><path style="fill:var(--color2,#000)" d="M104.427 32H4.018C1.804 32 0 30.197 0 28V4c0-2.204 1.804-4 4.018-4h100.409c2.212 0 4.018 1.796 4.018 4v24c0 2.197-1.805 4-4.018 4z"/><path fill="#a6a6a6" style="fill:var(--color1,#a6a6a6)" d="M104.427.64c1.857 0 3.378 1.51 3.378 3.36v24c0 1.849-1.51 3.36-3.378 3.36H4.018C2.161 31.36.64 29.85.64 28V4C.64 2.151 2.15.64 4.018.64h100.409zm0-.64H4.018C1.804 0 0 1.804 0 4v24c0 2.204 1.804 4 4.018 4h100.409c2.212 0 4.018-1.796 4.018-4V4c0-2.196-1.805-4-4.018-4z"/><path fill="#fff" style="fill:var(--color3,#fff)" d="M57.129 10.586c-.724 0-1.335-.253-1.817-.752a2.56 2.56 0 0 1-.734-1.835c0-.728.247-1.345.734-1.833.481-.499 1.091-.752 1.815-.752.716 0 1.327.253 1.817.752.487.505.734 1.121.734 1.833-.008.73-.255 1.347-.734 1.833-.481.503-1.091.754-1.815.754zm-21.548 0a2.522 2.522 0 0 1-1.825-.742c-.499-.491-.752-1.111-.752-1.843s.253-1.353.752-1.843c.493-.493 1.107-.742 1.825-.742.351 0 .692.07 1.019.211.321.138.583.325.776.555l.048.058-.541.531-.056-.066c-.305-.363-.714-.541-1.255-.541-.483 0-.904.172-1.251.511-.349.341-.527.788-.527 1.329s.178.988.527 1.329c.347.339.768.511 1.251.511.515 0 .948-.172 1.285-.511.2-.2.323-.479.367-.832H35.49v-.746h2.478l.01.068c.018.126.036.255.036.375 0 .688-.207 1.245-.618 1.656-.467.487-1.077.734-1.815.734zm28.65-.106h-.764l-2.34-3.745.02.674v3.068h-.764V5.519h.872l.024.038 2.2 3.527-.02-.672V5.519h.772v4.96zm-12.843 0h-.774V6.267h-1.343v-.746h3.457v.746h-1.343v4.213zm-2.748 0h-.772V5.52h.772v4.96zm-4.339 0h-.772V6.267h-1.343v-.746h3.457v.746H44.3v4.213zm-2.603-.008h-2.961V5.52h2.961v.746h-2.187v1.361h1.973v.738h-1.973v1.361h2.187v.746zm14.18-1.151c.345.345.764.519 1.251.519.501 0 .91-.17 1.251-.519.339-.339.511-.784.511-1.321s-.172-.984-.509-1.321a1.712 1.712 0 0 0-1.251-.519c-.501 0-.91.17-1.249.519-.339.339-.511.784-.511 1.321s.17.984.507 1.321zM54.506 17.404c-1.885 0-3.413 1.43-3.413 3.404 0 1.955 1.538 3.404 3.413 3.404 1.885 0 3.413-1.44 3.413-3.404 0-1.973-1.528-3.404-3.413-3.404zm0 5.459c-1.031 0-1.919-.854-1.919-2.063 0-1.227.89-2.063 1.919-2.063 1.031 0 1.919.836 1.919 2.063.002 1.217-.888 2.063-1.919 2.063zm-7.448-5.459c-1.885 0-3.413 1.43-3.413 3.404 0 1.955 1.538 3.404 3.413 3.404 1.885 0 3.413-1.44 3.413-3.404 0-1.973-1.53-3.404-3.413-3.404zm0 5.459c-1.031 0-1.919-.854-1.919-2.063 0-1.227.89-2.063 1.919-2.063 1.031 0 1.919.836 1.919 2.063 0 1.217-.888 2.063-1.919 2.063zm-8.861-4.419v1.44h3.457c-.106.808-.373 1.404-.782 1.813-.507.507-1.289 1.057-2.667 1.057-2.125 0-3.787-1.716-3.787-3.84s1.662-3.84 3.787-3.84c1.147 0 1.983.453 2.603 1.031l1.021-1.021c-.862-.826-2.009-1.458-3.617-1.458-2.915 0-5.361 2.374-5.361 5.281 0 2.915 2.444 5.281 5.361 5.281 1.574 0 2.755-.515 3.689-1.484.952-.952 1.253-2.294 1.253-3.378 0-.337-.026-.64-.08-.898h-4.88c.002-.002.002.016.002.016zm36.247 1.121c-.285-.764-1.147-2.169-2.915-2.169-1.752 0-3.208 1.379-3.208 3.404 0 1.911 1.44 3.404 3.378 3.404 1.556 0 2.462-.952 2.835-1.51l-1.155-.774c-.383.569-.916.942-1.672.942-.764 0-1.299-.347-1.654-1.031l4.551-1.885-.16-.379zm-4.641 1.137c-.036-1.315 1.021-1.983 1.778-1.983.597 0 1.093.293 1.263.72l-3.04 1.263zM66.107 24h1.494v-9.999h-1.494V24zm-2.454-5.839h-.054c-.337-.401-.978-.764-1.795-.764-1.698 0-3.262 1.494-3.262 3.413 0 1.911 1.556 3.388 3.262 3.388.808 0 1.458-.365 1.795-.774h.054v.489c0 1.299-.694 1.999-1.813 1.999-.916 0-1.484-.658-1.716-1.209l-1.299.543c.373.898 1.369 2.009 3.012 2.009 1.752 0 3.236-1.031 3.236-3.547v-6.107h-1.412v.561h-.008zm-1.716 4.702c-1.031 0-1.893-.862-1.893-2.053 0-1.201.862-2.071 1.893-2.071 1.021 0 1.813.88 1.813 2.071.01 1.191-.79 2.053-1.813 2.053zm19.503-8.862h-3.573V24h1.494v-3.787h2.081c1.654 0 3.28-1.199 3.28-3.102s-1.62-3.11-3.282-3.11zm.044 4.816h-2.125v-3.431h2.125c1.119 0 1.752.924 1.752 1.716 0 .784-.64 1.716-1.752 1.716zm9.227-1.43c-1.085 0-2.204.481-2.667 1.528l1.325.551c.285-.551.808-.738 1.361-.738.774 0 1.556.463 1.574 1.289v.106a3.342 3.342 0 0 0-1.556-.383c-1.43 0-2.881.782-2.881 2.248 0 1.343 1.173 2.204 2.48 2.204 1.004 0 1.556-.453 1.901-.978h.054v.774h1.44v-3.83c0-1.784-1.325-2.771-3.03-2.771zm-.187 5.476c-.489 0-1.173-.239-1.173-.854 0-.774.854-1.067 1.582-1.067.658 0 .97.142 1.361.337a1.799 1.799 0 0 1-1.77 1.584zm8.472-5.263-1.716 4.337h-.054L95.448 17.6H93.84l2.667 6.063-1.52 3.37h1.556l4.104-9.432h-1.652zM85.546 24h1.494v-9.999h-1.494V24z"/><path style="fill:var(--color2,#000)" d="M8.347 6.027c-.231.249-.365.63-.365 1.129v17.69c0 .499.134.88.373 1.119l.062.054 9.911-9.911v-.221L8.409 5.974l-.062.054z"/><path style="fill:var(--color2,#000)" d="m21.626 19.421-3.306-3.306v-.231l3.306-3.306.072.044 3.91 2.222c1.119.63 1.119 1.672 0 2.31l-3.91 2.222-.072.044z"/><path style="fill:var(--color2,#000)" d="M21.698 19.378 18.32 16l-9.973 9.973c.365.391.978.435 1.662.054l11.689-6.649zM21.698 12.622 10.009 5.983c-.684-.391-1.299-.337-1.662.054L18.32 16l3.378-3.378z"/><path style="fill:var(--color2,#000)" opacity=".2" d="m21.626 19.306-11.609 6.596c-.648.373-1.227.347-1.6.008l-.062.062.062.054c.373.337.952.365 1.6-.008l11.689-6.639-.08-.072z"/><path style="fill:var(--color2,#000)" opacity=".12" d="m25.608 17.039-3.992 2.266.072.072 3.91-2.222c.561-.319.836-.738.836-1.155-.034.383-.319.746-.826 1.039z"/><path fill="#fff" style="fill:var(--color3,#fff)" opacity=".25" d="m10.009 6.099 15.599 8.862c.507.285.792.658.836 1.039 0-.417-.275-.836-.836-1.155L10.009 5.983c-1.119-.64-2.027-.106-2.027 1.173v.116c0-1.281.908-1.806 2.027-1.173z"/></symbol><symbol id="icon-paypal" viewBox="0 0 28 32"><path fill="#03a9f4" style="fill:var(--color1,#03a9f4)" d="M24.248 7.359a.664.664 0 0 0-1 .503 7.268 7.268 0 0 1-.108.667c-1.305 5.924-3.927 8.805-8.016 8.805h-6a.667.667 0 0 0-.652.533l-2 9.375-.357 2.387a2 2 0 0 0 1.956 2.372h4.013a1.99 1.99 0 0 0 1.94-1.519l1.621-6.481h3.479c4.105 0 6.943-3.273 7.989-9.217a6.968 6.968 0 0 0-2.865-7.424z"/><path fill="#283593" style="fill:var(--color2,#283593)" d="M22.989 2.376A7.017 7.017 0 0 0 17.789 0H6.749A3.317 3.317 0 0 0 3.45 2.835L.022 25.703A2 2 0 0 0 2.002 28h5.12a.667.667 0 0 0 .652-.533l1.887-8.8h5.467c4.744 0 7.879-3.316 9.319-9.867.058-.261.102-.525.133-.791a6.884 6.884 0 0 0-1.591-5.633z"/></symbol><symbol id="icon-facebook" viewBox="0 0 32 32"><path fill="#afb1b8" style="fill:var(--color3,#afb1b8)" d="M21.328 5.312h2.923V.224A36.478 36.478 0 0 0 20.144 0h-.157.008c-4.213 0-7.099 2.65-7.099 7.52V12H8.25v5.688h4.646V32h5.699V17.69h4.459l.709-5.688h-5.17V8.08c0-1.643.443-2.768 2.734-2.768z"/></symbol><symbol id="icon-instagram" viewBox="0 0 32 32"><path fill="#afb1b8" style="fill:var(--color3,#afb1b8)" d="M31.968 9.408c-.074-1.701-.349-2.869-.742-3.882a7.839 7.839 0 0 0-1.85-2.837l-.001-.001A7.906 7.906 0 0 0 26.597.861l-.054-.018C25.524.449 24.362.176 22.661.101 20.949.019 20.405 0 16.059 0c-4.344 0-4.888.019-6.595.094-1.699.074-2.869.349-3.88.742a7.847 7.847 0 0 0-2.839 1.85l-.001.001A7.9 7.9 0 0 0 .919 5.465l-.018.054C.506 6.538.232 7.7.157 9.401c-.082 1.712-.101 2.256-.101 6.602 0 4.344.019 4.888.094 6.595.075 1.701.35 2.869.744 3.882a7.915 7.915 0 0 0 1.849 2.837l.001.001c.8.813 1.77 1.443 2.832 1.843 1.019.395 2.182.67 3.882.744 1.707.075 2.251.094 6.595.094 4.346 0 4.89-.019 6.595-.094 1.701-.074 2.869-.349 3.882-.742a8.237 8.237 0 0 0 4.664-4.628l.019-.055c.394-1.019.669-2.182.744-3.882.075-1.707.093-2.251.093-6.595s-.006-4.888-.08-6.595zm-2.88 13.066c-.07 1.563-.333 2.406-.55 2.97a5.341 5.341 0 0 1-3.004 3.024l-.036.012c-.56.219-1.411.482-2.968.55-1.688.075-2.194.094-6.464.094-4.269 0-4.782-.019-6.464-.094-1.563-.069-2.406-.331-2.97-.55a4.953 4.953 0 0 1-1.836-1.192l-.001-.001a4.978 4.978 0 0 1-1.184-1.803L3.6 25.45c-.218-.563-.48-1.413-.549-2.97-.075-1.688-.094-2.195-.094-6.464 0-4.27.019-4.784.094-6.464.069-1.563.331-2.406.549-2.97a4.897 4.897 0 0 1 1.198-1.837l.002-.002a4.972 4.972 0 0 1 1.806-1.182l.034-.011c.56-.219 1.411-.48 2.968-.55 1.688-.074 2.195-.093 6.464-.093 4.275 0 4.782.019 6.464.093 1.563.069 2.406.331 2.97.55a4.91 4.91 0 0 1 1.837 1.194c.531.52.938 1.144 1.195 1.84.218.56.48 1.411.549 2.968.075 1.688.094 2.194.094 6.464 0 4.269-.019 4.768-.094 6.458z"/><path fill="#afb1b8" style="fill:var(--color3,#afb1b8)" d="M16.059 7.782a8.223 8.223 0 0 0-8.219 8.221 8.223 8.223 0 0 0 16.442.008v-.009a8.223 8.223 0 0 0-8.221-8.221zm0 13.552a5.333 5.333 0 0 1 .001-10.666h.001a5.334 5.334 0 1 1 0 10.668zM26.525 7.458a1.92 1.92 0 0 1-3.84 0 1.92 1.92 0 0 1 3.84 0z"/></symbol><symbol id="icon-linkedin" viewBox="0 0 32 32"><path fill="#afb1b8" style="fill:var(--color1,#afb1b8)" d="M31.992 32H32V20.262c0-5.741-1.237-10.163-7.947-10.163-3.227 0-5.392 1.77-6.277 3.45h-.093v-2.914h-6.365v21.363h6.627V21.42c0-2.786.528-5.48 3.978-5.48 3.398 0 3.448 3.179 3.448 5.658V32h6.621zM.528 10.635h6.635V32H.528V10.635zM3.843 0A3.843 3.843 0 0 0 0 3.843c0 2.12 1.722 3.878 3.843 3.878 2.12 0 3.842-1.757 3.842-3.878S5.965.002 3.844 0z"/></symbol><symbol id="icon-twitter" viewBox="0 0 32 32"><path fill="#afb1b8" style="fill:var(--color1,#afb1b8)" d="M32 6.078c-1.1.493-2.376.857-3.713 1.028l-.068.007a6.556 6.556 0 0 0 2.873-3.579l.013-.046a12.88 12.88 0 0 1-4.076 1.573l-.084.014A6.558 6.558 0 0 0 15.6 9.557v.004c0 .52.043 1.021.152 1.496-5.454-.266-10.28-2.88-13.522-6.861a6.524 6.524 0 0 0-.902 3.313v.001a6.57 6.57 0 0 0 2.914 5.451 6.453 6.453 0 0 1-2.994-.823l.033.017v.072a6.592 6.592 0 0 0 5.213 6.44l.043.008a6.403 6.403 0 0 1-1.662.215h-.061.003c-.419 0-.843-.024-1.242-.112.85 2.598 3.261 4.509 6.13 4.57a13.093 13.093 0 0 1-8.122 2.8H1.57h.001-.062c-.531 0-1.055-.034-1.569-.099l.061.006c2.826 1.846 6.287 2.944 10.004 2.944h.063-.003c12.072 0 18.672-10 18.672-18.669 0-.288-.01-.57-.024-.848a13.203 13.203 0 0 0 3.258-3.355l.03-.047z"/></symbol><symbol id="icon-visa" viewBox="0 0 98 32"><path fill="#2394bc" style="fill:var(--color1,#2394bc)" d="m39.984.769-4.756 29.597h7.602L47.583.769h-7.599zm22.931 12.056c-2.657-1.312-4.285-2.197-4.285-3.539.033-1.22 1.377-2.47 4.38-2.47 2.47-.062 4.285.518 5.662 1.096l.69.308 1.034-6.192c-1.502-.58-3.882-1.22-6.823-1.22-7.507 0-12.794 3.903-12.827 9.486-.062 4.12 3.785 6.406 6.664 7.777 2.941 1.407 3.942 2.319 3.942 3.569-.032 1.919-2.378 2.804-4.566 2.804-3.032 0-4.661-.456-7.134-1.525l-1.001-.456-1.063 6.436c1.786.794 5.07 1.492 8.479 1.528 7.978 0 13.17-3.844 13.235-9.794.026-3.264-2.002-5.763-6.385-7.807zM89.885.86h-5.882c-1.812 0-3.19.521-3.974 2.381L68.737 30.366h7.978l2.197-5.873h8.926l1.14 5.896h7.037L89.885.86zm-8.76 17.707c.154.015 3.062-9.586 3.062-9.586l2.316 9.586h-5.378zM28.876.769l-7.448 20.109-.811-3.966c-1.377-4.576-5.695-9.548-10.513-12.018l6.82 25.442h8.044L36.921.771 28.877.768z"/><path fill="#efc75e" style="fill:var(--color2,#efc75e)" d="M18.113 4.587C17.533 2.33 15.681.808 13.167.776H1.371l-.121.548c9.202 2.268 16.925 9.249 19.43 15.814L18.112 4.587z"/></symbol><symbol id="icon-mastercard" viewBox="0 0 53 32"><path fill="#ffb600" style="fill:var(--color1,#ffb600)" d="M52.759 16.528c0 8.514-6.877 15.473-15.472 15.473-8.514 0-15.473-6.959-15.473-15.473S28.691 1.056 37.205 1.056c8.678 0 15.554 6.959 15.554 15.472z"/><path fill="#f7981d" style="fill:var(--color2,#f7981d)" d="M37.287 1.055c8.514 0 15.472 6.959 15.472 15.472S45.882 32 37.287 32c-8.514 0-15.473-6.959-15.473-15.473z"/><path fill="#ff8500" style="fill:var(--color3,#ff8500)" d="M37.286 1.055c8.514 0 15.473 6.959 15.473 15.472S45.882 32 37.286 32z"/><path fill="#ff5050" style="fill:var(--color4,#ff5050)" d="M16.493 1.055C8.061 1.137 1.184 8.014 1.184 16.527S8.061 32 16.657 32c4.011 0 7.613-1.555 10.397-4.011.573-.491 1.064-1.064 1.555-1.637h-3.193a18.848 18.848 0 0 1-1.146-1.555h5.485c.327-.491.655-1.064.9-1.637h-7.286a9.738 9.738 0 0 1-.655-1.637h8.514c.491-1.555.819-3.193.819-4.912 0-1.146-.164-2.21-.327-3.275h-9.496c.082-.573.246-1.064.409-1.637h8.514a9.738 9.738 0 0 0-.655-1.637h-7.204c.245-.573.573-1.064.9-1.637h5.485a7.77 7.77 0 0 0-1.228-1.637h-3.029c.491-.573.982-1.064 1.555-1.555-2.702-2.538-6.385-4.011-10.397-4.011 0-.164 0-.164-.082-.164z"/><path fill="#e52836" style="fill:var(--color5,#e52836)" d="M1.185 16.528c0 8.514 6.877 15.473 15.473 15.473 4.011 0 7.613-1.555 10.397-4.011.573-.491 1.064-1.064 1.555-1.637h-3.193a18.848 18.848 0 0 1-1.146-1.555h5.485c.327-.491.655-1.064.9-1.637H23.37a9.738 9.738 0 0 1-.655-1.637h8.514c.491-1.555.819-3.193.819-4.912 0-1.146-.164-2.21-.327-3.275h-9.496c.082-.573.246-1.064.409-1.637h8.514a9.738 9.738 0 0 0-.655-1.637h-7.204c.245-.573.573-1.064.9-1.637h5.485a7.77 7.77 0 0 0-1.228-1.637h-3.029c.491-.573.982-1.064 1.555-1.555-2.702-2.538-6.385-4.011-10.397-4.011h-.082z"/><path fill="#cb2026" style="fill:var(--color6,#cb2026)" d="M16.658 32c4.011 0 7.613-1.555 10.397-4.011.573-.491 1.064-1.064 1.555-1.637h-3.193a18.848 18.848 0 0 1-1.146-1.555h5.485c.327-.491.655-1.064.901-1.637h-7.286a9.823 9.823 0 0 1-.655-1.637h8.514c.491-1.555.819-3.193.819-4.912 0-1.146-.164-2.21-.327-3.275h-9.496c.082-.573.246-1.064.409-1.637h8.514a9.738 9.738 0 0 0-.655-1.637H23.29c.246-.573.573-1.064.901-1.637h5.485a7.77 7.77 0 0 0-1.228-1.637h-3.029c.491-.573.982-1.064 1.555-1.555-2.702-2.538-6.386-4.011-10.397-4.011h-.082z"/><path fill="#fff" style="fill:var(--color7,#fff)" d="m22.14 20.456.246-1.392c-.082 0-.246.082-.409.082-.573 0-.655-.327-.573-.491l.491-2.865h.901l.245-1.555h-.819l.164-.982h-1.637s-.982 5.403-.982 6.058c0 .982.573 1.392 1.31 1.392.491 0 .9-.164 1.064-.246zM22.719 17.836c0 2.292 1.555 2.865 2.865 2.865 1.228 0 1.719-.246 1.719-.246l.327-1.555s-.9.409-1.719.409c-1.801 0-1.474-1.31-1.474-1.31h3.357s.245-1.064.245-1.474c0-1.064-.573-2.374-2.374-2.374-1.719-.164-2.947 1.637-2.947 3.684zm2.865-2.374c.901 0 .737 1.064.737 1.146H24.52c0-.082.164-1.146 1.064-1.146zM35.989 20.456l.327-1.801s-.819.409-1.392.409c-1.146 0-1.637-.9-1.637-1.883 0-1.965.982-3.029 2.128-3.029.819 0 1.474.491 1.474.491l.245-1.719s-.982-.409-1.883-.409c-1.883 0-3.766 1.637-3.766 4.748 0 2.047.982 3.438 2.947 3.438.655 0 1.555-.246 1.555-.246zM13.139 13.988c-1.146 0-1.965.327-1.965.327l-.246 1.392s.737-.327 1.801-.327c.573 0 1.064.082 1.064.573 0 .327-.082.409-.082.409h-.737c-1.392 0-2.947.573-2.947 2.456 0 1.474.982 1.801 1.555 1.801 1.146 0 1.637-.737 1.719-.737l-.082.655h1.474l.655-4.503c0-1.965-1.637-2.047-2.21-2.047zm.328 3.684c0 .245-.164 1.555-1.146 1.555-.491 0-.655-.409-.655-.655 0-.409.246-.982 1.474-.982.246.082.327.082.327.082zM16.905 20.619c.409 0 2.456.082 2.456-2.129 0-2.047-1.965-1.637-1.965-2.456 0-.409.327-.573.901-.573.245 0 1.146.082 1.146.082l.246-1.474s-.573-.164-1.555-.164c-1.228 0-2.456.491-2.456 2.128 0 1.883 2.047 1.719 2.047 2.456 0 .491-.573.573-.982.573-.737 0-1.474-.246-1.474-.246l-.246 1.474c.082.164.491.327 1.883.327zM49.576 12.679l-.327 2.21s-.655-.819-1.556-.819c-1.474 0-2.783 1.801-2.783 3.93 0 1.31.655 2.702 2.047 2.702.982 0 1.555-.655 1.555-.655l-.082.573h1.637l1.228-7.859-1.719-.082zm-.737 4.338c0 .901-.409 2.047-1.31 2.047-.573 0-.9-.491-.9-1.31 0-1.31.573-2.128 1.31-2.128.573 0 .9.409.9 1.392zM4.221 20.538l.982-5.894.164 5.894h1.146l2.129-5.894-.901 5.894H9.46l1.31-7.859H8.068l-1.637 4.83-.082-4.83H3.975l-1.31 7.859H4.22zM29.599 20.537c.491-2.702.573-4.912 1.719-4.503.164-1.064.409-1.474.573-1.883h-.327c-.737 0-1.31.982-1.31.982l.164-.901h-1.555l-1.064 6.385H29.6v-.082zM39.753 13.988c-1.146 0-1.965.327-1.965.327l-.245 1.392s.737-.327 1.801-.327c.573 0 1.064.082 1.064.573 0 .327-.082.409-.082.409h-.737c-1.392 0-2.947.573-2.947 2.456 0 1.474.982 1.801 1.555 1.801 1.146 0 1.637-.737 1.719-.737l-.082.655h1.474l.655-4.503c.082-1.965-1.637-2.047-2.21-2.047zm.409 3.684c0 .245-.164 1.555-1.146 1.555-.491 0-.655-.409-.655-.655 0-.409.246-.982 1.474-.982.246.082.246.082.327.082zM43.349 20.537c.491-2.702.573-4.912 1.719-4.503.164-1.064.409-1.474.573-1.883h-.327c-.737 0-1.31.982-1.31.982l.164-.901h-1.556l-1.064 6.385h1.801v-.082z"/><path fill="#dce5e5" style="fill:var(--color8,#dce5e5)" d="M19.606 19.31c0 .982.573 1.392 1.31 1.392.573 0 1.064-.164 1.228-.246l.245-1.392c-.082 0-.245.082-.409.082-.573 0-.655-.327-.573-.491l.491-2.865h.901l.245-1.555h-.819l.164-.982zM23.534 17.836c0 2.292.737 2.865 2.047 2.865 1.228 0 1.719-.246 1.719-.246l.327-1.555s-.9.409-1.719.409c-1.801 0-1.474-1.31-1.474-1.31h3.357s.246-1.064.246-1.474c0-1.064-.573-2.374-2.374-2.374-1.719-.164-2.129 1.637-2.129 3.684zm2.047-2.374c.901 0 1.064 1.064 1.064 1.146h-2.129c0-.082.164-1.146 1.064-1.146zM35.986 20.456l.327-1.801s-.819.409-1.392.409c-1.146 0-1.637-.9-1.637-1.883 0-1.965.982-3.029 2.129-3.029.819 0 1.474.491 1.474.491l.246-1.719s-.982-.409-1.883-.409c-1.883 0-2.947 1.637-2.947 4.748 0 2.047.164 3.438 2.129 3.438.655 0 1.555-.246 1.555-.246zM10.929 15.789s.737-.327 1.801-.327c.573 0 1.064.082 1.064.573 0 .327-.082.409-.082.409h-.737c-1.392 0-2.947.573-2.947 2.456 0 1.474.982 1.801 1.555 1.801 1.146 0 1.637-.737 1.719-.737l-.082.655h1.474l.655-4.503c0-1.883-1.637-1.965-2.292-1.965l-2.128 1.637zm3.356 1.883c0 .246-.982 1.555-1.965 1.555-.491 0-.655-.409-.655-.655 0-.409.246-.982 1.474-.982.246.082 1.146.082 1.146.082zM15.106 20.455s.491.164 1.883.164c.409 0 2.456.082 2.456-2.129 0-2.047-1.965-1.637-1.965-2.456 0-.409.327-.573.9-.573.246 0 1.146.082 1.146.082l.246-1.474s-.573-.164-1.555-.164c-1.228 0-1.637.491-1.637 2.128 0 1.883 1.228 1.719 1.228 2.456 0 .491-.573.573-.982.573zM49.244 14.889s-.655-.819-1.556-.819c-1.474 0-1.965 1.801-1.965 3.93 0 1.31-.164 2.702 1.228 2.702.982 0 1.556-.655 1.556-.655l-.082.573h1.637l1.228-7.859-2.047 2.128zm-.082 2.128c0 .9-.737 2.047-1.637 2.047-.573 0-.901-.491-.901-1.31 0-1.31.573-2.128 1.31-2.128.573 0 1.228.409 1.228 1.392zM4.221 20.538l.982-5.894.164 5.894h1.146l2.129-5.894-.901 5.894H9.46l1.31-7.859H8.723l-2.292 4.83-.082-4.83h-.901l-2.783 7.859H4.22zM27.878 20.537h1.719c.491-2.702.573-4.912 1.719-4.503.164-1.064.409-1.474.573-1.883h-.327c-.737 0-1.31.982-1.31.982l.164-.901zM37.543 15.789s.737-.327 1.801-.327c.573 0 1.064.082 1.064.573 0 .327-.082.409-.082.409h-.737c-1.392 0-2.947.573-2.947 2.456 0 1.474.982 1.801 1.555 1.801 1.146 0 1.637-.737 1.719-.737l-.082.655h1.474l.655-4.503c0-1.883-1.637-1.965-2.292-1.965l-2.128 1.637zm3.356 1.883c0 .246-.982 1.555-1.965 1.555-.491 0-.655-.409-.655-.655 0-.409.245-.982 1.474-.982.327.082 1.146.082 1.146.082zM41.635 20.537h1.719c.491-2.702.573-4.912 1.719-4.503.164-1.064.409-1.474.573-1.883h-.327c-.737 0-1.31.982-1.31.982l.164-.901z"/></symbol><symbol id="icon-Free-Shipping" viewBox="0 0 38 32"><path fill="#289bc3" style="fill:var(--color1,#289bc3)" d="M27.199 26.582V10.509H2.472v16.073c0 .683.554 1.236 1.236 1.236h22.254c.683 0 1.236-.553 1.236-1.236z"/><path fill="#32283c" style="fill:var(--color2,#32283c)" d="M9.892 24.109H7.419a3.71 3.71 0 0 0 0 7.418h2.473a3.709 3.709 0 1 0 0-7.418zM32.145 24.109h-2.473a3.709 3.709 0 1 0 0 7.418h2.473a3.71 3.71 0 0 0 0-7.418z"/><path fill="#555a6e" style="fill:var(--color3,#555a6e)" d="M29.672 31.527a3.71 3.71 0 1 0-.001-7.42 3.71 3.71 0 0 0 .001 7.42z"/><path fill="#e6e6eb" style="fill:var(--color4,#e6e6eb)" d="M29.671 29.054a1.236 1.236 0 1 0 0-2.472 1.236 1.236 0 0 0 0 2.472z"/><path fill="#32283c" style="fill:var(--color2,#32283c)" d="M22.255 24.109h-2.473a3.71 3.71 0 0 0 0 7.418h2.473a3.709 3.709 0 1 0 0-7.418z"/><path fill="#a5c3dc" style="fill:var(--color5,#a5c3dc)" d="M34.62 11.745H16.075c-.683 0-1.236.553-1.236 1.236v1.236h19.782a1.236 1.236 0 1 0 0-2.472z"/><path fill="#d7e6f0" style="fill:var(--color6,#d7e6f0)" d="M22.256 11.745h-6.182c-.683 0-1.236.553-1.236 1.236v1.236h7.418a1.236 1.236 0 1 0 0-2.472z"/><path fill="#463c4b" style="fill:var(--color7,#463c4b)" d="M14.838 14.218H34.62V20.4H14.838v-6.182z"/><path fill="#555a6e" style="fill:var(--color3,#555a6e)" d="M14.838 14.218h7.418V20.4h-7.418v-6.182z"/><path fill="#a5c3dc" style="fill:var(--color5,#a5c3dc)" d="M35.856 27.818H16.074a1.236 1.236 0 0 1-1.236-1.236V20.4H34.62a2.473 2.473 0 0 1 2.473 2.473v3.709c0 .683-.554 1.236-1.236 1.236z"/><path fill="#d7e6f0" style="fill:var(--color6,#d7e6f0)" d="M23.493 27.818h-7.418a1.236 1.236 0 0 1-1.236-1.236V20.4h7.418a2.473 2.473 0 0 1 2.473 2.473v3.709c0 .683-.554 1.236-1.236 1.236z"/><path fill="#555a6e" style="fill:var(--color3,#555a6e)" d="M27.714 22.873h6.388a1.752 1.752 0 0 1 0 3.504h-6.388a1.752 1.752 0 0 1 0-3.504z"/><path fill="#00d2d2" style="fill:var(--color8,#00d2d2)" d="M27.717 25.551a.927.927 0 1 0 0-1.854.927.927 0 0 0 0 1.854zM34.101 25.551a.927.927 0 1 0 0-1.854.927.927 0 0 0 0 1.854z"/><path fill="#a5c3dc" style="fill:var(--color5,#a5c3dc)" d="M11.745 0H8.036a.618.618 0 0 0 0 1.236 4.332 4.332 0 0 1 4.327 4.327c0 .341.277.618.618.618h3.709a.618.618 0 0 0 .618-.618 5.57 5.57 0 0 0-5.564-5.564z"/><path fill="#a5c3dc" style="fill:var(--color5,#a5c3dc)" d="M21.636 0h-3.709a5.57 5.57 0 0 0-5.564 5.564c0 .341.277.618.618.618h3.709a.618.618 0 0 0 .618-.618 4.332 4.332 0 0 1 4.327-4.327.618.618 0 0 0 0-1.236z"/><path fill="#a5c3dc" style="fill:var(--color5,#a5c3dc)" d="M24.109 0H20.4a.618.618 0 0 0 0 1.236c1.023 0 1.855.832 1.855 1.855s-.832 1.855-1.855 1.855a.618.618 0 0 0 0 1.236h3.709c1.704 0 3.091-1.387 3.091-3.091S25.813 0 24.109 0zM9.272 4.945c-1.023 0-1.855-.832-1.855-1.855s.832-1.855 1.855-1.855a.618.618 0 0 0 0-1.236H5.563c-1.704 0-3.091 1.387-3.091 3.091s1.387 3.091 3.091 3.091h3.709a.618.618 0 0 0 0-1.236z"/><path fill="#289bc3" style="fill:var(--color1,#289bc3)" d="M28.436 6.182h-27.2C.553 6.182 0 6.735 0 7.418v1.855c0 .683.553 1.236 1.236 1.236h27.2c.683 0 1.236-.554 1.236-1.236V7.418c0-.683-.554-1.236-1.236-1.236z"/><path fill="#00d2d2" style="fill:var(--color8,#00d2d2)" d="M13.599 27.818H3.708a1.236 1.236 0 0 1-1.236-1.236V14.218h12.364v12.364c0 .683-.553 1.236-1.236 1.236zM14.836 6.182h-13.6C.553 6.182 0 6.735 0 7.418v1.855c0 .683.553 1.236 1.236 1.236h13.6c.683 0 1.236-.554 1.236-1.236V7.418c0-.683-.554-1.236-1.236-1.236z"/><path fill="#d7e6f0" style="fill:var(--color6,#d7e6f0)" d="M8.653 9.273c0 .683.554 1.236 1.236 1.236H6.18a1.236 1.236 0 0 1-1.236-1.236V7.418c0-.683.553-1.236 1.236-1.236h3.709c-.683 0-1.236.553-1.236 1.236v1.855z"/><path fill="#a5c3dc" style="fill:var(--color5,#a5c3dc)" d="M21.02 9.273c0 .683-.553 1.236-1.236 1.236h3.709c.683 0 1.236-.554 1.236-1.236V7.418c0-.683-.554-1.236-1.236-1.236h-3.709c.683 0 1.236.553 1.236 1.236v1.855z"/><path fill="#d7e6f0" style="fill:var(--color6,#d7e6f0)" d="M20.402 6.182h-8.036v-.618A5.57 5.57 0 0 1 17.93 0h2.473c1.704 0 3.091 1.387 3.091 3.091s-1.387 3.091-3.091 3.091zm-6.756-1.237h6.756c1.023 0 1.855-.832 1.855-1.855s-.832-1.855-1.855-1.855h-2.473a4.334 4.334 0 0 0-4.283 3.709z"/><path fill="#d7e6f0" style="fill:var(--color6,#d7e6f0)" d="M13.599 6.182H5.563c-1.704 0-3.091-1.387-3.091-3.091S3.859 0 5.563 0h2.473A5.57 5.57 0 0 1 13.6 5.564v.618zM5.563 1.236c-1.023 0-1.855.832-1.855 1.855s.832 1.855 1.855 1.855h6.756a4.334 4.334 0 0 0-4.283-3.709H5.563z"/><path fill="#555a6e" style="fill:var(--color3,#555a6e)" d="M19.783 31.527a3.709 3.709 0 1 0 0-7.418 3.709 3.709 0 0 0 0 7.418z"/><path fill="#e6e6eb" style="fill:var(--color4,#e6e6eb)" d="M19.782 29.054a1.236 1.236 0 1 0 0-2.472 1.236 1.236 0 0 0 0 2.472z"/><path fill="#555a6e" style="fill:var(--color3,#555a6e)" d="M7.419 31.527a3.71 3.71 0 1 0-.001-7.42 3.71 3.71 0 0 0 .001 7.42z"/><path fill="#e6e6eb" style="fill:var(--color4,#e6e6eb)" d="M7.416 29.054a1.236 1.236 0 1 0 0-2.472 1.236 1.236 0 0 0 0 2.472z"/></symbol><symbol id="icon-Money-Back" viewBox="0 0 32 32"><path fill="#f9ba48" style="fill:var(--color1,#f9ba48)" d="M23.153 16a7.153 7.153 0 1 1-14.306 0 7.153 7.153 0 0 1 14.306 0z"/><path fill="#333" style="fill:var(--color2,#333)" d="M31.715 15.667c-.086-.1-.833-.955-2.134-2.047a14.215 14.215 0 0 0-.163-.827l-.668.159c-2.718-2.09-7.159-4.617-12.75-4.617S5.967 10.862 3.249 12.952l-.668-.159c-.065.271-.115.55-.163.827C1.117 14.712.37 15.567.284 15.667L-.001 16l.285.333c.086.1.833.955 2.134 2.047.048.277.099.556.163.827l.668-.159c2.717 2.089 7.159 4.617 12.75 4.617s10.033-2.528 12.751-4.617l.668.159c.065-.271.115-.549.163-.827 1.301-1.092 2.048-1.947 2.134-2.047L32 16l-.285-.333zM16 22.642c-7.715 0-13.293-5.254-14.631-6.642C2.706 14.611 8.273 9.358 16 9.358c7.715 0 13.293 5.254 14.631 6.642-1.337 1.389-6.904 6.642-14.631 6.642zM11.117 4.194l-.391-.944c-.666.276-1.315.607-1.93.984l.535.871a12.709 12.709 0 0 1 1.786-.91zM7.709 6.285l-.664-.777c-.548.468-1.063.983-1.531 1.531l.777.664c.434-.507.911-.984 1.419-1.418zM15.004 3.266l-.078-1.019c-.72.055-1.44.168-2.14.335l.238.994a12.688 12.688 0 0 1 1.98-.31zM5.111 9.324l-.871-.535a13.844 13.844 0 0 0-.985 1.929l.944.392c.254-.615.562-1.216.911-1.786zM25.718 7.713l.777-.663a13.93 13.93 0 0 0-1.53-1.533l-.664.777c.507.434.984.911 1.417 1.419zM19.229 2.586a13.745 13.745 0 0 0-2.139-.338l-.079 1.019c.667.052 1.333.157 1.98.312l.238-.993zM23.217 4.242a13.729 13.729 0 0 0-1.928-.986l-.392.944c.616.255 1.216.563 1.785.913l.535-.871zM28.751 10.733a13.734 13.734 0 0 0-.983-1.93l-.871.534c.349.57.655 1.171.909 1.787l.945-.39zM24.291 25.715l.664.777a13.929 13.929 0 0 0 1.532-1.531l-.777-.664c-.434.507-.911.984-1.418 1.418zM20.883 27.806l.391.944a13.996 13.996 0 0 0 1.929-.983l-.534-.871c-.57.349-1.171.655-1.786.91zM16.996 28.734l.079 1.019a13.814 13.814 0 0 0 2.139-.335l-.237-.994a13 13 0 0 1-1.981.31zM26.89 22.675l.871.535a13.94 13.94 0 0 0 .985-1.928l-.943-.392a12.817 12.817 0 0 1-.912 1.785zM3.249 21.268c.275.666.606 1.315.983 1.93l.871-.534a12.651 12.651 0 0 1-.909-1.786l-.945.39zM6.282 24.287l-.777.664c.468.547.982 1.063 1.53 1.532l.665-.777a12.828 12.828 0 0 1-1.417-1.419zM12.771 29.414c.699.168 1.419.281 2.139.337l.079-1.019a12.83 12.83 0 0 1-1.98-.312l-.238.994zM8.783 27.758c.613.377 1.261.709 1.928.986l.393-.943a12.876 12.876 0 0 1-1.785-.913l-.535.87z"/><path fill="#333" style="fill:var(--color2,#333)" d="M17.533 11.402h-1.022V9.869h-1.022v1.533h-1.022c-1.409 0-2.554 1.146-2.554 2.554s1.146 2.554 2.554 2.554h3.065c.845 0 1.533.688 1.533 1.533s-.688 1.533-1.533 1.533h-3.065a1.535 1.535 0 0 1-1.533-1.533v-.511h-1.022v.511a2.557 2.557 0 0 0 2.554 2.554h1.022v1.533h1.022v-1.533h1.022c1.409 0 2.554-1.146 2.554-2.554s-1.146-2.554-2.554-2.554h-3.065c-.845 0-1.533-.688-1.533-1.533s.688-1.533 1.533-1.533h3.065c.845 0 1.533.688 1.533 1.533v.511h1.022v-.511a2.557 2.557 0 0 0-2.554-2.554z"/></symbol><symbol id="icon-Quick-Packaging" viewBox="0 0 32 32"><path fill="#4391b2" style="fill:var(--color1,#4391b2)" d="M31.009 9c0 .55-.45 1-1 1H1.989c-.36 0-.69-.19-.87-.5-.17-.31-.17-.69 0-1l4-7c.18-.31.51-.5.87-.5h20c.36 0 .69.19.87.5l3.91 6.85a1 1 0 0 1 .24.65z"/><path fill="#48b1dd" style="fill:var(--color2,#48b1dd)" d="M31 9v21c0 .55-.45 1-1 1H2c-.55 0-1-.45-1-1V9h30z"/><path fill="#96cee5" style="fill:var(--color3,#96cee5)" d="M16 27c-3.86 0-7-3.141-7-7s3.14-7 7-7 7 3.141 7 7-3.14 7-7 7zm0-12c-2.757 0-5 2.243-5 5s2.243 5 5 5 5-2.243 5-5-2.243-5-5-5z"/><path fill="#96cee5" style="fill:var(--color3,#96cee5)" d="M19 22a.996.996 0 0 1-.316-.052l-3-1A1 1 0 0 1 15 20v-3a1 1 0 1 1 2 0v2.279l2.316.773a.999.999 0 0 1-.317 1.949z"/></symbol></defs></svg>