<svg aria-hidden="true" style="width:0;height:0;position:absolute;overflow:hidden" xmlns="http://www.w3.org/2000/svg"><defs><symbol id="icon-Group-3" viewBox="0 0 32 32"><path fill="#2394bc" style="fill:var(--color1,#2394bc)" d="m13.056 11.026-1.553 9.664h2.482l1.552-9.664h-2.481zm7.488 3.937c-.868-.428-1.399-.717-1.399-1.156.011-.398.45-.806 1.43-.806a4.32 4.32 0 0 1 1.849.358l.225.101.337-2.022a6.256 6.256 0 0 0-2.228-.398c-2.451 0-4.178 1.275-4.188 3.097-.02 1.345 1.236 2.092 2.176 2.539.96.459 1.287.757 1.287 1.165-.011.627-.776.916-1.491.916-.99 0-1.522-.149-2.33-.498l-.327-.149-.347 2.101c.583.259 1.655.487 2.769.499 2.605 0 4.3-1.255 4.322-3.198.009-1.066-.654-1.882-2.085-2.549zm8.806-3.907h-1.921c-.592 0-1.041.17-1.298.778l-3.687 8.857h2.605l.717-1.918h2.915l.372 1.925h2.298l-2.002-9.642zm-2.86 5.782c.05.005 1-3.13 1-3.13l.756 3.13H26.49zM9.429 11.026l-2.432 6.566-.265-1.295c-.45-1.494-1.86-3.118-3.433-3.924l2.227 8.308h2.626l3.903-9.654-2.626-.001z"/><path fill="#efc75e" style="fill:var(--color2,#efc75e)" d="M5.914 12.273c-.19-.737-.794-1.234-1.615-1.245H.447l-.04.179c3.005.741 5.527 3.02 6.345 5.164l-.838-4.098z"/></symbol><symbol id="icon-quotes-left" viewBox="0 0 35 32"><path fill="#f6762c" style="fill:var(--color2,#f6762c)" d="M22.951 0h8.099c1.125 0 2.081.424 2.869 1.273S35.1 3.152 35.1 4.364v8.727c0 1.212-.394 2.242-1.181 3.091s-1.744 1.273-2.869 1.273h-4.725c-.562 0-1.04.212-1.434.636s-.591.939-.591 1.546v.727c0 1.606.527 2.977 1.582 4.114s2.327 1.704 3.818 1.704h1.35c.366 0 .682.144.949.432s.401.629.401 1.023v2.909c0 .393-.133.735-.401 1.023s-.584.432-.949.432H29.7c-1.462 0-2.858-.307-4.187-.921s-2.478-1.443-3.448-2.489c-.97-1.046-1.74-2.284-2.309-3.716s-.854-2.936-.854-4.511v-16c0-1.212.394-2.243 1.181-3.091S21.827 0 22.951 0zM1.183 1.273C1.97.425 2.926 0 4.051 0h8.099c1.125 0 2.081.424 2.868 1.273s1.181 1.879 1.181 3.091v8.727c0 1.212-.394 2.242-1.181 3.091s-1.743 1.273-2.868 1.273H7.425c-.562 0-1.041.212-1.434.636s-.591.939-.591 1.546v.727c0 1.606.527 2.977 1.582 4.114s2.327 1.704 3.817 1.704h1.35c.366 0 .682.144.949.432s.401.629.401 1.023v2.909c0 .393-.134.735-.401 1.023s-.584.432-.949.432h-1.35c-1.462 0-2.858-.307-4.187-.921s-2.478-1.443-3.448-2.489c-.97-1.046-1.741-2.284-2.31-3.716S0 21.939 0 20.364v-16c0-1.212.394-2.243 1.181-3.091z"/></symbol><symbol id="icon-quotes-right" viewBox="0 0 35 32"><path fill="#f6762c" style="fill:var(--color2,#f6762c)" d="M12.149 0H4.05C2.925 0 1.969.424 1.181 1.273S0 3.152 0 4.364v8.727c0 1.212.394 2.242 1.181 3.091s1.744 1.273 2.869 1.273h4.725c.562 0 1.04.212 1.434.636s.591.939.591 1.546v.727c0 1.606-.527 2.977-1.582 4.114S6.891 26.182 5.4 26.182H4.05c-.366 0-.682.144-.949.432s-.401.629-.401 1.023v2.909c0 .393.134.735.401 1.023s.583.432.949.432H5.4c1.463 0 2.858-.307 4.187-.921s2.478-1.443 3.448-2.489c.97-1.046 1.74-2.284 2.309-3.716s.854-2.936.854-4.511v-16c0-1.212-.394-2.243-1.181-3.091S13.273 0 12.149 0zM33.917 1.273C33.13.425 32.174 0 31.049 0H22.95c-1.125 0-2.081.424-2.868 1.273s-1.181 1.879-1.181 3.091v8.727c0 1.212.394 2.242 1.181 3.091s1.743 1.273 2.868 1.273h4.725c.562 0 1.041.212 1.434.636s.591.939.591 1.546v.727c0 1.606-.527 2.977-1.582 4.114s-2.327 1.704-3.817 1.704h-1.35c-.366 0-.682.144-.949.432s-.401.629-.401 1.023v2.909c0 .393.134.735.401 1.023s.584.432.949.432h1.35c1.462 0 2.858-.307 4.187-.921s2.478-1.443 3.448-2.489c.97-1.046 1.741-2.284 2.31-3.716s.854-2.936.854-4.511v-16c0-1.212-.394-2.243-1.181-3.091z"/></symbol><symbol id="icon-right-arrow-1" viewBox="0 0 32 32"><path fill="#d64374" style="fill:var(--color1,#d64374)" opacity=".5" d="m7.112 17.249 14.24 14.24c.329.33.769.511 1.238.511s.908-.181 1.238-.511l1.049-1.048a1.752 1.752 0 0 0 0-2.476L12.919 16.007 24.89 4.036c.329-.33.511-.769.511-1.238s-.182-.908-.511-1.238L23.841.512c-.33-.33-.769-.511-1.238-.511s-.908.182-1.238.511L7.111 14.765c-.33.331-.511.772-.51 1.242-.001.471.18.912.51 1.243z"/></symbol><symbol id="icon-right-arrow-2" viewBox="0 0 32 32"><path fill="#d64374" style="fill:var(--color1,#d64374)" d="m24.888 17.249-14.24 14.24c-.329.33-.769.511-1.238.511s-.908-.181-1.238-.511l-1.049-1.048a1.754 1.754 0 0 1 0-2.476l11.958-11.958L7.11 4.036c-.329-.33-.511-.769-.511-1.238s.182-.908.511-1.238L8.159.512c.33-.33.769-.511 1.238-.511s.908.182 1.238.511l14.254 14.253c.33.331.512.772.51 1.242.001.471-.18.912-.51 1.243z"/></symbol><symbol id="icon-Group-117" viewBox="0 0 32 32"><path fill="#ffb600" style="fill:var(--color3,#ffb600)" d="M31.655 16.317c0 5.108-4.126 9.284-9.283 9.284-5.108 0-9.284-4.175-9.284-9.284s4.126-9.284 9.234-9.284c5.207 0 9.333 4.175 9.333 9.284z"/><path fill="#f7981d" style="fill:var(--color4,#f7981d)" d="M22.372 7.033c5.108 0 9.283 4.175 9.283 9.284s-4.126 9.284-9.283 9.284c-5.108 0-9.284-4.175-9.284-9.284z"/><path fill="#ff8500" style="fill:var(--color5,#ff8500)" d="M22.372 7.033c5.108 0 9.284 4.175 9.284 9.284s-4.126 9.284-9.284 9.284z"/><path fill="#ff5050" style="fill:var(--color6,#ff5050)" d="M9.896 7.033C4.837 7.082.711 11.208.711 16.317s4.126 9.284 9.284 9.284c2.407 0 4.568-.933 6.238-2.407.344-.295.639-.639.933-.982H15.25a11.535 11.535 0 0 1-.688-.933h3.291c.196-.295.393-.639.54-.982h-4.372a5.899 5.899 0 0 1-.393-.982h5.108c.295-.933.491-1.916.491-2.947 0-.688-.098-1.326-.196-1.965h-5.698c.049-.344.147-.639.246-.982h5.108a5.83 5.83 0 0 0-.393-.982h-4.322c.147-.344.344-.639.54-.982h3.291a4.622 4.622 0 0 0-.737-.982h-1.817c.295-.344.589-.639.933-.933-1.621-1.523-3.831-2.407-6.238-2.407 0-.098 0-.098-.049-.098z"/><path fill="#e52836" style="fill:var(--color7,#e52836)" d="M.711 16.317c0 5.108 4.126 9.284 9.284 9.284 2.407 0 4.568-.933 6.238-2.407.344-.295.639-.639.933-.982H15.25a11.535 11.535 0 0 1-.688-.933h3.291c.196-.295.393-.639.54-.982h-4.372a5.899 5.899 0 0 1-.393-.982h5.108c.295-.933.491-1.916.491-2.947 0-.688-.098-1.326-.196-1.965h-5.698c.049-.344.147-.639.246-.982h5.108a5.83 5.83 0 0 0-.393-.982h-4.322c.147-.344.344-.639.54-.982h3.291a4.622 4.622 0 0 0-.737-.982h-1.817c.295-.344.589-.639.933-.933-1.621-1.523-3.831-2.407-6.238-2.407h-.049z"/><path fill="#cb2026" style="fill:var(--color8,#cb2026)" d="M9.995 25.6c2.407 0 4.568-.933 6.238-2.407.344-.295.639-.639.933-.982H15.25a11.535 11.535 0 0 1-.688-.933h3.291c.196-.295.393-.639.54-.982h-4.372a5.899 5.899 0 0 1-.393-.982h5.108c.295-.933.491-1.916.491-2.947 0-.688-.098-1.326-.196-1.965h-5.698c.049-.344.147-.639.246-.982h5.108a5.83 5.83 0 0 0-.393-.982h-4.322c.147-.344.344-.639.54-.982h3.291a4.622 4.622 0 0 0-.737-.982h-1.817c.295-.344.589-.639.933-.933-1.621-1.523-3.831-2.407-6.238-2.407h-.049z"/><path fill="#fff" style="fill:var(--color9,#fff)" d="m13.284 18.673.147-.835c-.049 0-.147.049-.246.049-.344 0-.393-.196-.344-.295l.295-1.719h.54l.147-.933h-.491l.098-.589h-.982s-.589 3.242-.589 3.635c0 .589.344.835.786.835.295 0 .54-.098.639-.147zM13.631 17.101c0 1.375.933 1.719 1.719 1.719.737 0 1.031-.147 1.031-.147l.196-.933s-.54.246-1.031.246c-1.081 0-.884-.786-.884-.786h2.014s.147-.639.147-.884c0-.639-.344-1.425-1.424-1.425-1.031-.098-1.768.982-1.768 2.21zm1.719-1.424c.54 0 .442.639.442.688h-1.081c0-.049.098-.688.639-.688zM21.593 18.673l.196-1.081s-.491.246-.835.246c-.688 0-.982-.54-.982-1.13 0-1.179.589-1.817 1.277-1.817.491 0 .884.295.884.295l.147-1.031s-.589-.246-1.13-.246c-1.13 0-2.259.982-2.259 2.849 0 1.228.589 2.063 1.768 2.063.393 0 .933-.147.933-.147zM7.883 14.793c-.688 0-1.179.196-1.179.196l-.147.835s.442-.196 1.081-.196c.344 0 .639.049.639.344 0 .196-.049.246-.049.246h-.442c-.835 0-1.768.344-1.768 1.474 0 .884.589 1.081.933 1.081.688 0 .982-.442 1.032-.442l-.049.393h.884l.393-2.702c0-1.179-.982-1.228-1.326-1.228zm.197 2.21c0 .147-.098.933-.688.933-.295 0-.393-.246-.393-.393 0-.246.147-.589.884-.589.147.049.196.049.196.049zM10.143 18.772c.246 0 1.474.049 1.474-1.277 0-1.228-1.179-.982-1.179-1.474 0-.246.196-.344.54-.344.147 0 .688.049.688.049l.147-.884s-.344-.098-.933-.098c-.737 0-1.474.295-1.474 1.277 0 1.13 1.228 1.032 1.228 1.474 0 .295-.344.344-.589.344-.442 0-.884-.147-.884-.147l-.147.884c.049.098.295.196 1.13.196zM29.745 14.007l-.196 1.326s-.393-.491-.933-.491c-.884 0-1.67 1.081-1.67 2.358 0 .786.393 1.621 1.228 1.621.589 0 .933-.393.933-.393l-.049.344h.982l.737-4.715-1.032-.049zm-.442 2.603c0 .54-.246 1.228-.786 1.228-.344 0-.54-.295-.54-.786 0-.786.344-1.277.786-1.277.344 0 .54.246.54.835zM2.532 18.723l.589-3.537.098 3.537h.688l1.277-3.537-.54 3.537h1.032l.786-4.715H4.841l-.982 2.898-.049-2.898H2.386L1.6 18.723h.933zM17.759 18.722c.295-1.621.344-2.947 1.032-2.702.098-.639.246-.884.344-1.13h-.196c-.442 0-.786.589-.786.589l.098-.54h-.933l-.639 3.831h1.081v-.049zM23.852 14.793c-.688 0-1.179.196-1.179.196l-.147.835s.442-.196 1.081-.196c.344 0 .639.049.639.344 0 .196-.049.246-.049.246h-.442c-.835 0-1.768.344-1.768 1.474 0 .884.589 1.081.933 1.081.688 0 .982-.442 1.032-.442l-.049.393h.884l.393-2.702c.049-1.179-.982-1.228-1.326-1.228zm.245 2.21c0 .147-.098.933-.688.933-.295 0-.393-.246-.393-.393 0-.246.147-.589.884-.589.147.049.147.049.196.049zM26.009 18.722c.295-1.621.344-2.947 1.032-2.702.098-.639.246-.884.344-1.13h-.196c-.442 0-.786.589-.786.589l.098-.54h-.933l-.639 3.831h1.081v-.049z"/><path fill="#dce5e5" style="fill:var(--color10,#dce5e5)" d="M11.763 17.986c0 .589.344.835.786.835.344 0 .639-.098.737-.147l.147-.835c-.049 0-.147.049-.246.049-.344 0-.393-.196-.344-.295l.295-1.719h.54l.147-.933h-.491l.098-.589zM14.12 17.101c0 1.375.442 1.719 1.228 1.719.737 0 1.031-.147 1.031-.147l.196-.933s-.54.246-1.031.246c-1.081 0-.884-.786-.884-.786h2.014s.147-.639.147-.884c0-.639-.344-1.425-1.424-1.425-1.031-.098-1.277.982-1.277 2.21zm1.228-1.424c.54 0 .639.639.639.688H14.71c0-.049.098-.688.639-.688zM21.592 18.673l.196-1.081s-.491.246-.835.246c-.688 0-.982-.54-.982-1.13 0-1.179.589-1.817 1.277-1.817.491 0 .884.295.884.295l.147-1.031s-.589-.246-1.13-.246c-1.13 0-1.768.982-1.768 2.849 0 1.228.098 2.063 1.277 2.063.393 0 .933-.147.933-.147zM6.557 15.873s.442-.196 1.081-.196c.344 0 .639.049.639.344 0 .196-.049.246-.049.246h-.442c-.835 0-1.768.344-1.768 1.474 0 .884.589 1.081.933 1.081.688 0 .982-.442 1.032-.442l-.049.393h.884l.393-2.702c0-1.13-.982-1.179-1.375-1.179l-1.277.982zm2.014 1.13c0 .147-.589.933-1.179.933-.295 0-.393-.246-.393-.393 0-.246.147-.589.884-.589.147.049.688.049.688.049zM9.063 18.673s.295.098 1.13.098c.246 0 1.474.049 1.474-1.277 0-1.228-1.179-.982-1.179-1.474 0-.246.196-.344.54-.344.147 0 .688.049.688.049l.147-.884s-.344-.098-.933-.098c-.737 0-.982.295-.982 1.277 0 1.13.737 1.032.737 1.474 0 .295-.344.344-.589.344zM29.547 15.333s-.393-.491-.933-.491c-.884 0-1.179 1.081-1.179 2.358 0 .786-.098 1.621.737 1.621.589 0 .933-.393.933-.393l-.049.344h.982l.737-4.715-1.228 1.277zm-.05 1.277c0 .54-.442 1.228-.982 1.228-.344 0-.54-.295-.54-.786 0-.786.344-1.277.786-1.277.344 0 .737.246.737.835zM2.532 18.723l.589-3.537.098 3.537h.688l1.277-3.537-.54 3.537h1.032l.786-4.715H5.234l-1.375 2.898-.049-2.898h-.54L1.6 18.723h.933zM16.727 18.722h1.032c.295-1.621.344-2.947 1.032-2.702.098-.639.246-.884.344-1.13h-.196c-.442 0-.786.589-.786.589l.098-.54zM22.526 15.873s.442-.196 1.081-.196c.344 0 .639.049.639.344 0 .196-.049.246-.049.246h-.442c-.835 0-1.768.344-1.768 1.474 0 .884.589 1.081.933 1.081.688 0 .982-.442 1.032-.442l-.049.393h.884l.393-2.702c0-1.13-.982-1.179-1.375-1.179l-1.277.982zm2.013 1.13c0 .147-.589.933-1.179.933-.295 0-.393-.246-.393-.393 0-.246.147-.589.884-.589.196.049.688.049.688.049zM24.981 18.722h1.032c.295-1.621.344-2.947 1.032-2.702.098-.639.246-.884.344-1.13h-.196c-.442 0-.786.589-.786.589l.098-.54z"/></symbol><symbol id="icon-linkedin-1" viewBox="0 0 32 32"><path d="M0 0h32v32H0V0z"/></symbol><symbol id="icon-twitter-1" viewBox="0 0 32 32"><path d="M0 0h32v32H0V0z"/></symbol><symbol id="icon-Group-2" viewBox="0 0 32 32"><path fill="#f98aab" style="fill:var(--color11,#f98aab)" d="M4.313 12.104h4.843a.625.625 0 0 0 0-1.25H4.313a.625.625 0 0 0 0 1.25zM4.313 16.434h4.843a.625.625 0 0 0 0-1.25H4.313a.625.625 0 0 0 0 1.25zM10.318 26.91c-.131-.314-.501-.469-.816-.338s-.468.502-.338.816c.131.315.501.468.816.338s.469-.502.338-.816z"/><path fill="#f98aab" style="fill:var(--color11,#f98aab)" d="m31.832 17.238-7.434-7.98 2.276-2.271c.395-.391.613-.913.613-1.469 0-.548-.212-1.065-.598-1.454a2.085 2.085 0 0 0-2.925-.023l-.006.006-3.121 3.113h-1.166v-2.4a.625.625 0 0 0-.625-.625h-3.31v-.511a.625.625 0 0 0-1.25 0v.511h-2.283v-.511a.625.625 0 0 0-1.25 0v.511H8.47v-.511a.625.625 0 0 0-1.25 0v.511H4.937v-.511a.625.625 0 0 0-1.25 0v.511H.624a.625.625 0 0 0-.625.625v22.388c0 .345.28.625.625.625h6.38a.625.625 0 0 0 0-1.25H1.249V5.385h2.438v.567a.625.625 0 0 0 1.25 0v-.567H7.22v.567a.625.625 0 0 0 1.25 0v-.567h2.283v.567a.625.625 0 0 0 1.25 0v-.567h2.283v.567a.625.625 0 0 0 1.25 0v-.567h2.685v1.779a4.522 4.522 0 0 0-2.991 1.311l-4.599 4.599a.631.631 0 0 0 .102.967 4.244 4.244 0 0 0 2.319.683h.003l-.717.716a.64.64 0 0 0-.124.178l-2.005 3.012a1.362 1.362 0 0 0-.227.882h-5.67a.625.625 0 0 0 0 1.25h7.039c.271 0 .543-.09.766-.242l3.047-2.071a.67.67 0 0 0 .101-.082l1.413-1.41 1.542 1.539v8.028h-5.719a.625.625 0 0 0 0 1.25h6.344c.345 0 .625-.28.625-.625v-7.433a4.384 4.384 0 0 0 2.816 1.014h2.493c.519 0 1.021.215 1.376.587l4.762 5.06c.379.403 1.08.125 1.08-.428v-8.284c0-.158-.06-.31-.168-.426zM16.116 9.359a3.25 3.25 0 0 1 2.291-.949h.979l-3.894 3.885c-.36.346-.701.685-1.163.899a3.052 3.052 0 0 1-2.188.14l3.975-3.975zm8.523-4.423a.83.83 0 0 1 1.163.008.81.81 0 0 1 .236.574.81.81 0 0 1-.244.582l-6.532 6.517-.315-.315a2.438 2.438 0 0 0-1.068-.622l6.76-6.744zm-13.223 14.55c-.053.036-.103.032-.15-.014-.069-.069-.034-.121-.015-.15l1.633-2.453.965.963-2.433 1.653zm3.41-2.445-1.16-1.16 1.191-1.188c.112.407.335.778.633 1.076l.305.304-.969.967zm15.924 7.331-3.685-3.916a3.172 3.172 0 0 0-2.284-.977h-2.493a3.147 3.147 0 0 1-2.236-.924l-3.68-3.672c-.531-.398-.413-1.282 0-1.701.464-.451 1.237-.45 1.691.003l2.99 2.99c.241.24.643.241.884 0a.625.625 0 0 0 0-.884L20.145 13.5l3.367-3.359 7.237 7.769v6.462z"/></symbol><symbol id="icon-Group-91" viewBox="0 0 32 32"><path fill="#f98aab" style="fill:var(--color11,#f98aab)" d="M17.664 7.765c1.64-.681 2.522-2.267 2.123-3.818S17.815 1.294 16 1.294s-3.388 1.102-3.787 2.653.483 3.137 2.124 3.818h3.327z"/><path fill="#f98aab" style="fill:var(--color11,#f98aab)" d="M11.6 9.059a.503.503 0 0 1-.377-.172c-2.15-2.406-2.266-6.128-.27-8.678.116-.156.303-.233.489-.202s.34.167.404.353a.569.569 0 0 1-.096.545c-1.664 2.125-1.566 5.228.227 7.231.141.159.18.392.098.592s-.269.33-.475.33zM21.208 6.471c-.199 0-.383-.084-.486-.221s-.111-.308-.021-.451c1.04-1.637.773-3.618-.679-5.035-.136-.127-.176-.303-.105-.46s.241-.272.446-.298.411.039.539.17c1.742 1.701 2.063 4.078.815 6.044-.098.154-.294.251-.508.251z"/><path fill="#f98aab" style="fill:var(--color11,#f98aab)" d="M26.353 14.804v8.346s0 2.842-1.729 4.487a1.027 1.027 0 0 0-.299.749v1.618c-.002.582-.455 1.053-1.014 1.055h-8.114c-.56-.002-1.013-.473-1.014-1.055v-.195a3.197 3.197 0 0 0-.908-2.246c-.979-.991-2.49-2.705-3.149-4.413-1.014-2.636-3.043-6.327-4.057-7.381s0-2.109 1.014-2.109 3.043 2.109 4.057 3.691c.323.509.701.978 1.126 1.397.252.244.607.337.941.248s.6-.35.707-.691c.193-.65.284-1.329.269-2.009V4.17c-.003-.67.405-1.268 1.014-1.487.162-.064.334-.096.507-.095.84 0 1.522.708 1.522 1.582v6.327c-.003-.67.405-1.268 1.014-1.487.162-.064.334-.096.507-.095.84 0 1.521.708 1.521 1.582v1.582c0-.419.161-.822.446-1.118a1.43 1.43 0 0 1 .568-.369c.162-.064.334-.096.507-.095.84 0 1.521.708 1.521 1.582v2.636c0-.419.16-.822.446-1.118a1.43 1.43 0 0 1 .568-.369c.198-.075.409-.106.619-.089.815.09 1.427.814 1.41 1.666z"/><path fill="#f8edf0" style="fill:var(--color12,#f8edf0)" d="M16.028 2.621a1.452 1.452 0 0 0-.522.094 1.551 1.551 0 0 0-1.045 1.473v12.015a6.24 6.24 0 0 1-.277 1.99 1.06 1.06 0 0 1-.47.575 1.04 1.04 0 0 0 1.515-.574 6.24 6.24 0 0 0 .277-1.99V4.189a1.55 1.55 0 0 1 1.045-1.473 1.458 1.458 0 0 0-.523-.094zM18.641 8.984a1.551 1.551 0 0 0-1.045 1.473v4.702a.522.522 0 1 0 1.045 0v-4.702a1.55 1.55 0 0 1 1.045-1.473 1.503 1.503 0 0 0-1.045 0zM21.781 10.552a1.565 1.565 0 0 0-1.045 1.473v3.135a.522.522 0 1 0 1.045 0v-3.135a1.551 1.551 0 0 1 1.045-1.473 1.503 1.503 0 0 0-1.045 0zM25.436 13.069a1.452 1.452 0 0 0-.522.094 1.565 1.565 0 0 0-1.045 1.473v1.045a.523.523 0 1 0 1.045 0v-1.045a1.551 1.551 0 0 1 1.045-1.473 1.456 1.456 0 0 0-.522-.094zM24.412 18.118c-.357 0-.647.217-.647.485v2.912c0 .268.29.485.647.485s.647-.217.647-.485v-2.912c0-.268-.29-.485-.647-.485zM24.64 23.294c-.232.005-.422.276-.44.623-.032.329-.14.63-.304.852-.112.162-.156.403-.117.629s.157.403.307.462.31-.008.418-.177c.327-.456.526-1.083.555-1.752 0-.349-.187-.633-.419-.638zM16.863 28.471h-.431c-.238 0-.431.29-.431.647s.193.647.431.647h.431c.238 0 .431-.29.431-.647s-.193-.647-.431-.647zM22.039 28.471h-3.02c-.238 0-.431.29-.431.647s.193.647.431.647h3.02c.238 0 .431-.29.431-.647s-.193-.647-.431-.647z"/></symbol><symbol id="icon-fast-delivery-1" viewBox="0 0 32 32"><path fill="#e0e2e5" style="fill:var(--color13,#e0e2e5)" d="M25.889 18H21a.498.498 0 0 1-.5-.5.498.498 0 0 1 .5-.5h4.889a.498.498 0 0 1 .5.5.498.498 0 0 1-.5.5z"/><path fill="#93573d" style="fill:var(--color14,#93573d)" d="m15 11.5 1 12v1h6v-1l1-12h-8z"/><path fill="#fdd14b" style="fill:var(--color15,#fdd14b)" d="M10 11.5V11H8v1.5H6v5h4V17h2v-5.5h-2z"/><path fill="#e4bc43" style="fill:var(--color16,#e4bc43)" d="M8 19a.498.498 0 0 1-.5-.5V13a.498.498 0 0 1 .5-.5.5.5 0 0 1 .5.5v5.5a.498.498 0 0 1-.5.5zM10.072 20a.5.5 0 0 1-.5-.496l-.071-7.5a.5.5 0 0 1 1-.01l.071 7.5a.5.5 0 0 1-.495.505h-.005z"/><path fill="#e74444" style="fill:var(--color17,#e74444)" d="m5.5 16.5 1 7v1h6v-8h-7z"/><path fill="#e0e2e5" style="fill:var(--color13,#e0e2e5)" d="M29 18h-1a.498.498 0 0 1-.5-.5.498.498 0 0 1 .5-.5h1a.498.498 0 0 1 .5.5.498.498 0 0 1-.5.5z"/><path fill="#a4d4f4" style="fill:var(--color18,#a4d4f4)" d="m23 11.5-.167 2h-7.666l-.167-2h8z"/><path fill="#e0e2e5" style="fill:var(--color13,#e0e2e5)" d="M14.029 8.5a.505.505 0 0 1-.441-.264.507.507 0 0 1 .025-.513l.475-.713a.503.503 0 0 0-.116-.678l-.486-.365a1.5 1.5 0 0 1-.348-2.032l.475-.713a.518.518 0 0 1 .318-.213.492.492 0 0 1 .375.074.49.49 0 0 1 .213.318.492.492 0 0 1-.075.375l-.475.713a.503.503 0 0 0 .116.678l.486.365a1.506 1.506 0 0 1 .348 2.032l-.475.713a.505.505 0 0 1-.416.223zM10.029 8.5a.505.505 0 0 1-.441-.264.507.507 0 0 1 .025-.513l.475-.713a.503.503 0 0 0-.116-.678l-.486-.365a1.5 1.5 0 0 1-.348-2.032l.475-.713a.503.503 0 0 1 .693-.139.503.503 0 0 1 .139.693l-.475.713a.503.503 0 0 0 .116.678l.486.365a1.506 1.506 0 0 1 .348 2.032l-.475.713a.505.505 0 0 1-.416.223zM17.973 8.5a.507.507 0 0 1-.441-.264.507.507 0 0 1 .025-.513l.475-.713a.503.503 0 0 0-.116-.678l-.486-.365a1.506 1.506 0 0 1-.348-2.032l.475-.713a.503.503 0 0 1 .693-.139.518.518 0 0 1 .213.318.492.492 0 0 1-.075.375l-.475.713a.503.503 0 0 0 .116.678l.486.365a1.506 1.506 0 0 1 .348 2.032l-.475.713a.5.5 0 0 1-.418.223zM30.5 15H25a.498.498 0 0 1-.5-.5.498.498 0 0 1 .5-.5h5.5a.498.498 0 0 1 .5.5.498.498 0 0 1-.5.5zM27 21h-3a.498.498 0 0 1-.5-.5.498.498 0 0 1 .5-.5h3a.498.498 0 0 1 .5.5.498.498 0 0 1-.5.5z"/><path fill="#c2c5c6" style="fill:var(--color19,#c2c5c6)" d="M30.5 29h-29a.498.498 0 0 1-.5-.5.498.498 0 0 1 .5-.5h29a.498.498 0 0 1 .5.5.498.498 0 0 1-.5.5z"/><path fill="#fdd14b" style="fill:var(--color15,#fdd14b)" d="M1.5 23.5h25v1a.997.997 0 0 1-1 1h-23a.997.997 0 0 1-1-1v-1z"/><path fill="#6a7073" style="fill:var(--color20,#6a7073)" d="M21.5 28.5a3 3 0 1 0 0-6 3 3 0 0 0 0 6z"/><path fill="#99a2a7" style="fill:var(--color21,#99a2a7)" d="M21.5 26.5a1 1 0 1 0 0-2 1 1 0 0 0 0 2z"/><path fill="#6a7073" style="fill:var(--color20,#6a7073)" d="M6.5 28.5a3 3 0 1 0 0-6 3 3 0 0 0 0 6z"/><path fill="#99a2a7" style="fill:var(--color21,#99a2a7)" d="M6.5 26.5a1 1 0 1 0 0-2 1 1 0 0 0 0 2z"/><path fill="#ea8333" style="fill:var(--color22,#ea8333)" d="M9.5 21.5h9v1a.997.997 0 0 1-1 1h-7a.997.997 0 0 1-1-1v-1z"/><path fill="#794832" style="fill:var(--color23,#794832)" d="M18.091 19.5c.502 0 .909.448.909 1s-.407 1-.909 1H9.909c-.502 0-.909-.448-.909-1s.407-1 .909-1h8.182z"/><path fill="#fdd14b" style="fill:var(--color15,#fdd14b)" d="M10 17.5h8v2h-8v-2z"/><path fill="#3ba673" style="fill:var(--color24,#3ba673)" d="M19.5 18c0 .828-.704 1.5-1.571 1.5a1.587 1.587 0 0 1-1.31-.671 1.623 1.623 0 0 1-2.046.493 1.615 1.615 0 0 1-.574-.493 1.623 1.623 0 0 1-2.046.493 1.615 1.615 0 0 1-.574-.493 1.593 1.593 0 0 1-1.31.671c-.868 0-1.571-.672-1.571-1.5a.498.498 0 0 1 .5-.5h10a.498.498 0 0 1 .5.5z"/><path fill="#e74444" style="fill:var(--color17,#e74444)" d="M18.5 13.5v-4a.497.497 0 0 1 .314-.464l2.5-1a.504.504 0 0 1 .544.114.492.492 0 0 1 .142.356.507.507 0 0 1-.314.458l-2.186.874V13.5h-1z"/><path fill="#ce3536" style="fill:var(--color25,#ce3536)" d="M18.5 11.5h1v2h-1v-2z"/></symbol><symbol id="icon-cash-back-1" viewBox="0 0 32 32"><path d="M25.872 22.088H9.122a.679.679 0 0 1-.679-.679v-7.824c0-.375.304-.679.679-.679h16.75c.375 0 .679.304.679.679v7.824a.679.679 0 0 1-.679.679z"/><path d="m8.462 21.127.961.961h16.449a.679.679 0 0 0 .679-.679v-7.824a.679.679 0 0 0-.679-.679H9.122a.679.679 0 0 0-.679.679v7.502l.018.04z"/><path d="M24.852 21.07H8.102a.679.679 0 0 1-.679-.679v-7.824c0-.375.304-.679.679-.679h16.75c.375 0 .679.304.679.679v7.824a.679.679 0 0 1-.679.679z"/><path d="m7.442 20.109.961.961h16.449a.679.679 0 0 0 .679-.679v-7.824a.679.679 0 0 0-.679-.679H8.102a.679.679 0 0 0-.679.679v7.502l.018.04z"/><path d="M23.835 20.052H7.085a.679.679 0 0 1-.679-.679v-7.824c0-.375.304-.679.679-.679h16.75c.375 0 .679.304.679.679v7.824a.679.679 0 0 1-.679.679z"/><path d="m6.425 19.09.961.961h16.449a.679.679 0 0 0 .679-.679v-7.824a.679.679 0 0 0-.679-.679H7.085a.679.679 0 0 0-.679.679v7.502l.018.04z"/><path d="M22.878 19.093H6.128a.679.679 0 0 1-.679-.679V10.59c0-.375.304-.679.679-.679h16.75c.375 0 .679.304.679.679v7.824a.679.679 0 0 1-.679.679z"/><path d="M22.533 11.853a.978.978 0 0 1-.918-.919.948.948 0 0 1 .035-.312H7.355c.028.099.04.204.035.312a.978.978 0 0 1-.918.919.965.965 0 0 1-.468-.092v5.484a.965.965 0 0 1 .468-.092.978.978 0 0 1 .883 1.232H21.65a.975.975 0 0 1-.035-.312.979.979 0 0 1 .918-.92.963.963 0 0 1 .468.092v-5.484a.965.965 0 0 1-.468.092z"/><path d="M14.502 16.853a2.35 2.35 0 1 0 0-4.702 2.35 2.35 0 0 0 0 4.702zM11.27 11.485H7.659v1.039h3.611v-1.039zM21.344 16.481h-3.611v1.039h3.611v-1.039z"/><path d="M31.078 7.253a1.404 1.404 0 0 0-1.692.608 15.688 15.688 0 0 0-4.151-4.524C22.53 1.352 19.322.303 15.957.303S9.385 1.352 6.679 3.337a15.63 15.63 0 0 0-5.624 7.717 1.405 1.405 0 0 0 2.666.884 12.838 12.838 0 0 1 4.62-6.337c2.22-1.629 4.854-2.49 7.616-2.49s5.396.861 7.616 2.49a12.902 12.902 0 0 1 3.236 3.436 1.404 1.404 0 0 0-.69 2.708l2.924 1.07.021.007.074.024a2.072 2.072 0 0 0 .116.028l.039.008c.027.005.055.008.082.011l.034.004c.038.003.077.005.116.005.036 0 .073-.002.109-.004l.026-.003.083-.01.032-.006c.026-.005.051-.009.076-.015a1.47 1.47 0 0 0 .106-.03l.011-.003.02-.008a1.461 1.461 0 0 0 .217-.097l.027-.015a1.533 1.533 0 0 0 .201-.143l.034-.029c.024-.021.046-.044.069-.066l.019-.019c.029-.031.057-.063.083-.097l.005-.007a1.603 1.603 0 0 0 .082-.122c.016-.027.032-.054.046-.082l.018-.035c.013-.026.024-.053.036-.08l.016-.038a.07.07 0 0 0 .005-.013l1.07-2.924a1.404 1.404 0 0 0-.836-1.801zM.922 24.747a1.402 1.402 0 0 0 1.692-.608 15.688 15.688 0 0 0 4.151 4.524c2.705 1.985 5.913 3.034 9.278 3.034s6.572-1.049 9.278-3.034a15.63 15.63 0 0 0 5.624-7.717 1.405 1.405 0 0 0-2.666-.884 12.838 12.838 0 0 1-4.62 6.337c-2.22 1.629-4.854 2.49-7.616 2.49s-5.396-.861-7.616-2.49a12.902 12.902 0 0 1-3.236-3.436 1.404 1.404 0 0 0 .69-2.708l-2.924-1.07-.021-.007a1.048 1.048 0 0 0-.114-.034 2.072 2.072 0 0 0-.076-.017l-.039-.008c-.027-.005-.055-.008-.082-.011l-.034-.004a1.479 1.479 0 0 0-.116-.005c-.036 0-.073.002-.109.004l-.026.003a2.347 2.347 0 0 0-.083.01l-.032.006c-.026.005-.051.009-.076.015a1.47 1.47 0 0 0-.106.03l-.011.003-.02.008a1.461 1.461 0 0 0-.092.036l-.038.017-.087.044-.027.015a1.533 1.533 0 0 0-.201.143l-.034.029c-.024.021-.046.044-.069.066l-.019.019a1.518 1.518 0 0 0-.083.097l-.005.007a2.016 2.016 0 0 0-.082.122c-.016.027-.032.054-.046.082l-.018.035c-.013.026-.024.053-.036.08l-.016.038a.07.07 0 0 0-.005.013l-1.07 2.924a1.404 1.404 0 0 0 .836 1.801z"/></symbol><symbol id="icon-Group-1" viewBox="0 0 32 32"><path d="M15.916 13.86 5.814 15.692l3.792 14.873a.94.94 0 0 0 .898.696h10.99a.94.94 0 0 0 .898-.696l3.792-14.873-10.266-1.832zm-1.75-2.748c.506 0 .916-.41.916-.916V.916a.916.916 0 1 0-1.832 0v9.28c0 .506.41.916.916.916zm3.664 0c.506 0 .916-.41.916-.916V.916a.916.916 0 1 0-1.832 0v9.28c0 .506.41.916.916.916z"/><path d="M27.393 11.204c-.44-.22-.989-.037-1.227.421l-1.117 2.235-2.784-4.176a.932.932 0 0 0-.769-.403h-10.99a.932.932 0 0 0-.769.403L6.953 13.86l-1.117-2.235c-.238-.458-.788-.641-1.227-.421-.458.238-.641.788-.421 1.227l1.63 3.26h20.368l1.63-3.26c.22-.44.037-.989-.421-1.227zM16 20.27c-1.515 0-2.748 1.232-2.748 2.747s1.233 2.748 2.748 2.748 2.747-1.232 2.747-2.748A2.75 2.75 0 0 0 16 20.27z"/></symbol><symbol id="icon-Group" viewBox="0 0 32 32"><path fill="#289bc3" style="fill:var(--color26,#289bc3)" d="M23.015 24.954v-13.6H2.092v13.6c0 .578.468 1.046 1.046 1.046h18.831c.578 0 1.046-.468 1.046-1.046z"/><path fill="#32283c" style="fill:var(--color27,#32283c)" d="M8.37 22.861H6.278a3.138 3.138 0 0 0 0 6.276H8.37a3.138 3.138 0 0 0 0-6.276zM27.199 22.861h-2.092a3.138 3.138 0 0 0 0 6.276h2.092a3.138 3.138 0 0 0 0-6.276z"/><path fill="#555a6e" style="fill:var(--color28,#555a6e)" d="M25.107 29.138a3.138 3.138 0 1 0 0-6.276 3.138 3.138 0 0 0 0 6.276z"/><path fill="#e6e6eb" style="fill:var(--color29,#e6e6eb)" d="M25.106 27.046a1.046 1.046 0 1 0 0-2.091 1.046 1.046 0 0 0 0 2.091z"/><path fill="#32283c" style="fill:var(--color27,#32283c)" d="M18.831 22.861h-2.092a3.138 3.138 0 0 0 0 6.276h2.092a3.138 3.138 0 0 0 0-6.276z"/><path fill="#a5c3dc" style="fill:var(--color30,#a5c3dc)" d="M29.294 12.4H13.602c-.578 0-1.046.468-1.046 1.046v1.046h16.738a1.046 1.046 0 1 0 0-2.092z"/><path fill="#d7e6f0" style="fill:var(--color31,#d7e6f0)" d="M18.832 12.4h-5.231c-.578 0-1.046.468-1.046 1.046v1.046h6.277a1.046 1.046 0 1 0 0-2.092z"/><path fill="#463c4b" style="fill:var(--color32,#463c4b)" d="M12.555 14.492h16.738v5.231H12.555v-5.231z"/><path fill="#555a6e" style="fill:var(--color28,#555a6e)" d="M12.555 14.492h6.277v5.231h-6.277v-5.231z"/><path fill="#a5c3dc" style="fill:var(--color30,#a5c3dc)" d="M30.34 26H13.602a1.046 1.046 0 0 1-1.046-1.046v-5.231h16.738c1.155 0 2.092.937 2.092 2.092v3.138c0 .578-.468 1.046-1.046 1.046z"/><path fill="#d7e6f0" style="fill:var(--color31,#d7e6f0)" d="M19.878 26h-6.277a1.046 1.046 0 0 1-1.046-1.046v-5.231h6.277c1.155 0 2.092.937 2.092 2.092v3.138c0 .578-.468 1.046-1.046 1.046z"/><path fill="#555a6e" style="fill:var(--color28,#555a6e)" d="M23.451 21.815h5.405a1.481 1.481 0 1 1 0 2.964h-5.405a1.482 1.482 0 1 1 0-2.964z"/><path fill="#00d2d2" style="fill:var(--color33,#00d2d2)" d="M23.453 24.082a.785.785 0 1 0 0-1.57.785.785 0 0 0 0 1.57zM28.854 24.082a.785.785 0 1 0 0-1.57.785.785 0 0 0 0 1.57z"/><path fill="#a5c3dc" style="fill:var(--color30,#a5c3dc)" d="M9.938 2.462H6.8a.523.523 0 1 0 0 1.046 3.666 3.666 0 0 1 3.662 3.662c0 .289.234.523.523.523h3.138a.523.523 0 0 0 .523-.523 4.713 4.713 0 0 0-4.708-4.708z"/><path fill="#a5c3dc" style="fill:var(--color30,#a5c3dc)" d="M18.307 2.462h-3.138a4.713 4.713 0 0 0-4.708 4.708c0 .289.234.523.523.523h3.138a.523.523 0 0 0 .523-.523 3.666 3.666 0 0 1 3.661-3.662.523.523 0 1 0 0-1.046z"/><path fill="#a5c3dc" style="fill:var(--color30,#a5c3dc)" d="M20.4 2.462h-3.138a.523.523 0 1 0 0 1.046c.865 0 1.569.704 1.569 1.569s-.704 1.569-1.569 1.569a.523.523 0 1 0 0 1.046H20.4c1.442 0 2.615-1.173 2.615-2.615S21.842 2.462 20.4 2.462zM7.845 6.646c-.865 0-1.569-.704-1.569-1.569s.704-1.569 1.569-1.569a.523.523 0 1 0 0-1.046H4.707c-1.442 0-2.615 1.173-2.615 2.615s1.173 2.615 2.615 2.615h3.138a.523.523 0 1 0 0-1.046z"/><path fill="#289bc3" style="fill:var(--color26,#289bc3)" d="M24.061 7.692H1.046C.468 7.692 0 8.16 0 8.738v1.569c0 .578.468 1.046 1.046 1.046h23.015c.578 0 1.046-.468 1.046-1.046V8.738c0-.578-.468-1.046-1.046-1.046z"/><path fill="#00d2d2" style="fill:var(--color33,#00d2d2)" d="M11.507 26H3.138a1.046 1.046 0 0 1-1.046-1.046V14.493h10.461v10.461c0 .578-.468 1.046-1.046 1.046zM12.554 7.692H1.046C.468 7.692 0 8.16 0 8.738v1.569c0 .578.468 1.046 1.046 1.046h11.508c.578 0 1.046-.468 1.046-1.046V8.738c0-.578-.468-1.046-1.046-1.046z"/><path fill="#d7e6f0" style="fill:var(--color31,#d7e6f0)" d="M7.322 10.308c0 .578.468 1.046 1.046 1.046H5.23a1.046 1.046 0 0 1-1.046-1.046V8.739c0-.578.468-1.046 1.046-1.046h3.138c-.578 0-1.046.468-1.046 1.046v1.569z"/><path fill="#a5c3dc" style="fill:var(--color30,#a5c3dc)" d="M17.787 10.308c0 .578-.468 1.046-1.046 1.046h3.138c.578 0 1.046-.468 1.046-1.046V8.739c0-.578-.468-1.046-1.046-1.046h-3.138c.578 0 1.046.468 1.046 1.046v1.569z"/><path fill="#d7e6f0" style="fill:var(--color31,#d7e6f0)" d="M17.263 7.692h-6.8v-.523a4.713 4.713 0 0 1 4.708-4.708h2.092c1.442 0 2.615 1.173 2.615 2.615s-1.173 2.615-2.615 2.615zm-5.716-1.046h5.717c.865 0 1.569-.704 1.569-1.569s-.704-1.569-1.569-1.569h-2.092a3.667 3.667 0 0 0-3.624 3.138z"/><path fill="#d7e6f0" style="fill:var(--color31,#d7e6f0)" d="M11.507 7.692h-6.8c-1.442 0-2.615-1.173-2.615-2.615s1.173-2.615 2.615-2.615h2.092a4.713 4.713 0 0 1 4.708 4.708v.523zm-6.8-4.184c-.865 0-1.569.704-1.569 1.569s.704 1.569 1.569 1.569h5.717A3.667 3.667 0 0 0 6.8 3.508H4.708z"/><path fill="#555a6e" style="fill:var(--color28,#555a6e)" d="M16.739 29.138a3.138 3.138 0 1 0 0-6.276 3.138 3.138 0 0 0 0 6.276z"/><path fill="#e6e6eb" style="fill:var(--color29,#e6e6eb)" d="M16.738 27.046a1.046 1.046 0 1 0 0-2.091 1.046 1.046 0 0 0 0 2.091z"/><path fill="#555a6e" style="fill:var(--color28,#555a6e)" d="M6.278 29.138a3.138 3.138 0 1 0 0-6.276 3.138 3.138 0 0 0 0 6.276z"/><path fill="#e6e6eb" style="fill:var(--color29,#e6e6eb)" d="M6.275 27.046a1.046 1.046 0 1 0 0-2.091 1.046 1.046 0 0 0 0 2.091z"/></symbol><symbol id="icon-images-removebg-preview-1" viewBox="0 0 32 32"><path d="M0 0h32v32H0V0z"/></symbol><symbol id="icon-Group-1171" viewBox="0 0 32 32"><path fill="#ffb600" style="fill:var(--color3,#ffb600)" d="M31.655 16.317c0 5.108-4.126 9.284-9.283 9.284-5.108 0-9.284-4.175-9.284-9.284s4.126-9.284 9.234-9.284c5.207 0 9.333 4.175 9.333 9.284z"/><path fill="#f7981d" style="fill:var(--color4,#f7981d)" d="M22.372 7.033c5.108 0 9.283 4.175 9.283 9.284s-4.126 9.284-9.283 9.284c-5.108 0-9.284-4.175-9.284-9.284z"/><path fill="#ff8500" style="fill:var(--color5,#ff8500)" d="M22.372 7.033c5.108 0 9.284 4.175 9.284 9.284s-4.126 9.284-9.284 9.284z"/><path fill="#ff5050" style="fill:var(--color6,#ff5050)" d="M9.896 7.033C4.837 7.082.711 11.208.711 16.317s4.126 9.284 9.284 9.284c2.407 0 4.568-.933 6.238-2.407.344-.295.639-.639.933-.982H15.25a11.535 11.535 0 0 1-.688-.933h3.291c.196-.295.393-.639.54-.982h-4.372a5.899 5.899 0 0 1-.393-.982h5.108c.295-.933.491-1.916.491-2.947 0-.688-.098-1.326-.196-1.965h-5.698c.049-.344.147-.639.246-.982h5.108a5.83 5.83 0 0 0-.393-.982h-4.322c.147-.344.344-.639.54-.982h3.291a4.622 4.622 0 0 0-.737-.982h-1.817c.295-.344.589-.639.933-.933-1.621-1.523-3.831-2.407-6.238-2.407 0-.098 0-.098-.049-.098z"/><path fill="#e52836" style="fill:var(--color7,#e52836)" d="M.711 16.317c0 5.108 4.126 9.284 9.284 9.284 2.407 0 4.568-.933 6.238-2.407.344-.295.639-.639.933-.982H15.25a11.535 11.535 0 0 1-.688-.933h3.291c.196-.295.393-.639.54-.982h-4.372a5.899 5.899 0 0 1-.393-.982h5.108c.295-.933.491-1.916.491-2.947 0-.688-.098-1.326-.196-1.965h-5.698c.049-.344.147-.639.246-.982h5.108a5.83 5.83 0 0 0-.393-.982h-4.322c.147-.344.344-.639.54-.982h3.291a4.622 4.622 0 0 0-.737-.982h-1.817c.295-.344.589-.639.933-.933-1.621-1.523-3.831-2.407-6.238-2.407h-.049z"/><path fill="#cb2026" style="fill:var(--color8,#cb2026)" d="M9.995 25.6c2.407 0 4.568-.933 6.238-2.407.344-.295.639-.639.933-.982H15.25a11.535 11.535 0 0 1-.688-.933h3.291c.196-.295.393-.639.54-.982h-4.372a5.899 5.899 0 0 1-.393-.982h5.108c.295-.933.491-1.916.491-2.947 0-.688-.098-1.326-.196-1.965h-5.698c.049-.344.147-.639.246-.982h5.108a5.83 5.83 0 0 0-.393-.982h-4.322c.147-.344.344-.639.54-.982h3.291a4.622 4.622 0 0 0-.737-.982h-1.817c.295-.344.589-.639.933-.933-1.621-1.523-3.831-2.407-6.238-2.407h-.049z"/><path fill="#fff" style="fill:var(--color9,#fff)" d="m13.284 18.673.147-.835c-.049 0-.147.049-.246.049-.344 0-.393-.196-.344-.295l.295-1.719h.54l.147-.933h-.491l.098-.589h-.982s-.589 3.242-.589 3.635c0 .589.344.835.786.835.295 0 .54-.098.639-.147zM13.631 17.101c0 1.375.933 1.719 1.719 1.719.737 0 1.031-.147 1.031-.147l.196-.933s-.54.246-1.031.246c-1.081 0-.884-.786-.884-.786h2.014s.147-.639.147-.884c0-.639-.344-1.425-1.424-1.425-1.031-.098-1.768.982-1.768 2.21zm1.719-1.424c.54 0 .442.639.442.688h-1.081c0-.049.098-.688.639-.688zM21.593 18.673l.196-1.081s-.491.246-.835.246c-.688 0-.982-.54-.982-1.13 0-1.179.589-1.817 1.277-1.817.491 0 .884.295.884.295l.147-1.031s-.589-.246-1.13-.246c-1.13 0-2.259.982-2.259 2.849 0 1.228.589 2.063 1.768 2.063.393 0 .933-.147.933-.147zM7.883 14.793c-.688 0-1.179.196-1.179.196l-.147.835s.442-.196 1.081-.196c.344 0 .639.049.639.344 0 .196-.049.246-.049.246h-.442c-.835 0-1.768.344-1.768 1.474 0 .884.589 1.081.933 1.081.688 0 .982-.442 1.032-.442l-.049.393h.884l.393-2.702c0-1.179-.982-1.228-1.326-1.228zm.197 2.21c0 .147-.098.933-.688.933-.295 0-.393-.246-.393-.393 0-.246.147-.589.884-.589.147.049.196.049.196.049zM10.143 18.772c.246 0 1.474.049 1.474-1.277 0-1.228-1.179-.982-1.179-1.474 0-.246.196-.344.54-.344.147 0 .688.049.688.049l.147-.884s-.344-.098-.933-.098c-.737 0-1.474.295-1.474 1.277 0 1.13 1.228 1.032 1.228 1.474 0 .295-.344.344-.589.344-.442 0-.884-.147-.884-.147l-.147.884c.049.098.295.196 1.13.196zM29.745 14.007l-.196 1.326s-.393-.491-.933-.491c-.884 0-1.67 1.081-1.67 2.358 0 .786.393 1.621 1.228 1.621.589 0 .933-.393.933-.393l-.049.344h.982l.737-4.715-1.032-.049zm-.442 2.603c0 .54-.246 1.228-.786 1.228-.344 0-.54-.295-.54-.786 0-.786.344-1.277.786-1.277.344 0 .54.246.54.835zM2.532 18.723l.589-3.537.098 3.537h.688l1.277-3.537-.54 3.537h1.032l.786-4.715H4.841l-.982 2.898-.049-2.898H2.386L1.6 18.723h.933zM17.759 18.722c.295-1.621.344-2.947 1.032-2.702.098-.639.246-.884.344-1.13h-.196c-.442 0-.786.589-.786.589l.098-.54h-.933l-.639 3.831h1.081v-.049zM23.852 14.793c-.688 0-1.179.196-1.179.196l-.147.835s.442-.196 1.081-.196c.344 0 .639.049.639.344 0 .196-.049.246-.049.246h-.442c-.835 0-1.768.344-1.768 1.474 0 .884.589 1.081.933 1.081.688 0 .982-.442 1.032-.442l-.049.393h.884l.393-2.702c.049-1.179-.982-1.228-1.326-1.228zm.245 2.21c0 .147-.098.933-.688.933-.295 0-.393-.246-.393-.393 0-.246.147-.589.884-.589.147.049.147.049.196.049zM26.009 18.722c.295-1.621.344-2.947 1.032-2.702.098-.639.246-.884.344-1.13h-.196c-.442 0-.786.589-.786.589l.098-.54h-.933l-.639 3.831h1.081v-.049z"/><path fill="#dce5e5" style="fill:var(--color10,#dce5e5)" d="M11.763 17.986c0 .589.344.835.786.835.344 0 .639-.098.737-.147l.147-.835c-.049 0-.147.049-.246.049-.344 0-.393-.196-.344-.295l.295-1.719h.54l.147-.933h-.491l.098-.589zM14.12 17.101c0 1.375.442 1.719 1.228 1.719.737 0 1.031-.147 1.031-.147l.196-.933s-.54.246-1.031.246c-1.081 0-.884-.786-.884-.786h2.014s.147-.639.147-.884c0-.639-.344-1.425-1.424-1.425-1.031-.098-1.277.982-1.277 2.21zm1.228-1.424c.54 0 .639.639.639.688H14.71c0-.049.098-.688.639-.688zM21.592 18.673l.196-1.081s-.491.246-.835.246c-.688 0-.982-.54-.982-1.13 0-1.179.589-1.817 1.277-1.817.491 0 .884.295.884.295l.147-1.031s-.589-.246-1.13-.246c-1.13 0-1.768.982-1.768 2.849 0 1.228.098 2.063 1.277 2.063.393 0 .933-.147.933-.147zM6.557 15.873s.442-.196 1.081-.196c.344 0 .639.049.639.344 0 .196-.049.246-.049.246h-.442c-.835 0-1.768.344-1.768 1.474 0 .884.589 1.081.933 1.081.688 0 .982-.442 1.032-.442l-.049.393h.884l.393-2.702c0-1.13-.982-1.179-1.375-1.179l-1.277.982zm2.014 1.13c0 .147-.589.933-1.179.933-.295 0-.393-.246-.393-.393 0-.246.147-.589.884-.589.147.049.688.049.688.049zM9.063 18.673s.295.098 1.13.098c.246 0 1.474.049 1.474-1.277 0-1.228-1.179-.982-1.179-1.474 0-.246.196-.344.54-.344.147 0 .688.049.688.049l.147-.884s-.344-.098-.933-.098c-.737 0-.982.295-.982 1.277 0 1.13.737 1.032.737 1.474 0 .295-.344.344-.589.344zM29.547 15.333s-.393-.491-.933-.491c-.884 0-1.179 1.081-1.179 2.358 0 .786-.098 1.621.737 1.621.589 0 .933-.393.933-.393l-.049.344h.982l.737-4.715-1.228 1.277zm-.05 1.277c0 .54-.442 1.228-.982 1.228-.344 0-.54-.295-.54-.786 0-.786.344-1.277.786-1.277.344 0 .737.246.737.835zM2.532 18.723l.589-3.537.098 3.537h.688l1.277-3.537-.54 3.537h1.032l.786-4.715H5.234l-1.375 2.898-.049-2.898h-.54L1.6 18.723h.933zM16.727 18.722h1.032c.295-1.621.344-2.947 1.032-2.702.098-.639.246-.884.344-1.13h-.196c-.442 0-.786.589-.786.589l.098-.54zM22.526 15.873s.442-.196 1.081-.196c.344 0 .639.049.639.344 0 .196-.049.246-.049.246h-.442c-.835 0-1.768.344-1.768 1.474 0 .884.589 1.081.933 1.081.688 0 .982-.442 1.032-.442l-.049.393h.884l.393-2.702c0-1.13-.982-1.179-1.375-1.179l-1.277.982zm2.013 1.13c0 .147-.589.933-1.179.933-.295 0-.393-.246-.393-.393 0-.246.147-.589.884-.589.196.049.688.049.688.049zM24.981 18.722h1.032c.295-1.621.344-2.947 1.032-2.702.098-.639.246-.884.344-1.13h-.196c-.442 0-.786.589-.786.589l.098-.54z"/></symbol><symbol id="icon-linkedin-11" viewBox="0 0 32 32"><path d="M0 0h32v32H0V0z"/></symbol><symbol id="icon-twitter-11" viewBox="0 0 32 32"><path d="M0 0h32v32H0V0z"/></symbol><symbol id="icon-Group-21" viewBox="0 0 32 32"><path fill="#f98aab" style="fill:var(--color11,#f98aab)" d="M4.313 12.104h4.843a.625.625 0 0 0 0-1.25H4.313a.625.625 0 0 0 0 1.25zM4.313 16.434h4.843a.625.625 0 0 0 0-1.25H4.313a.625.625 0 0 0 0 1.25zM10.318 26.91c-.131-.314-.501-.469-.816-.338s-.468.502-.338.816c.131.315.501.468.816.338s.469-.502.338-.816z"/><path fill="#f98aab" style="fill:var(--color11,#f98aab)" d="m31.832 17.238-7.434-7.98 2.276-2.271c.395-.391.613-.913.613-1.469 0-.548-.212-1.065-.598-1.454a2.085 2.085 0 0 0-2.925-.023l-.006.006-3.121 3.113h-1.166v-2.4a.625.625 0 0 0-.625-.625h-3.31v-.511a.625.625 0 0 0-1.25 0v.511h-2.283v-.511a.625.625 0 0 0-1.25 0v.511H8.47v-.511a.625.625 0 0 0-1.25 0v.511H4.937v-.511a.625.625 0 0 0-1.25 0v.511H.624a.625.625 0 0 0-.625.625v22.388c0 .345.28.625.625.625h6.38a.625.625 0 0 0 0-1.25H1.249V5.385h2.438v.567a.625.625 0 0 0 1.25 0v-.567H7.22v.567a.625.625 0 0 0 1.25 0v-.567h2.283v.567a.625.625 0 0 0 1.25 0v-.567h2.283v.567a.625.625 0 0 0 1.25 0v-.567h2.685v1.779a4.522 4.522 0 0 0-2.991 1.311l-4.599 4.599a.631.631 0 0 0 .102.967 4.244 4.244 0 0 0 2.319.683h.003l-.717.716a.64.64 0 0 0-.124.178l-2.005 3.012a1.362 1.362 0 0 0-.227.882h-5.67a.625.625 0 0 0 0 1.25h7.039c.271 0 .543-.09.766-.242l3.047-2.071a.67.67 0 0 0 .101-.082l1.413-1.41 1.542 1.539v8.028h-5.719a.625.625 0 0 0 0 1.25h6.344c.345 0 .625-.28.625-.625v-7.433a4.384 4.384 0 0 0 2.816 1.014h2.493c.519 0 1.021.215 1.376.587l4.762 5.06c.379.403 1.08.125 1.08-.428v-8.284c0-.158-.06-.31-.168-.426zM16.116 9.359a3.25 3.25 0 0 1 2.291-.949h.979l-3.894 3.885c-.36.346-.701.685-1.163.899a3.052 3.052 0 0 1-2.188.14l3.975-3.975zm8.523-4.423a.83.83 0 0 1 1.163.008.81.81 0 0 1 .236.574.81.81 0 0 1-.244.582l-6.532 6.517-.315-.315a2.438 2.438 0 0 0-1.068-.622l6.76-6.744zm-13.223 14.55c-.053.036-.103.032-.15-.014-.069-.069-.034-.121-.015-.15l1.633-2.453.965.963-2.433 1.653zm3.41-2.445-1.16-1.16 1.191-1.188c.112.407.335.778.633 1.076l.305.304-.969.967zm15.924 7.331-3.685-3.916a3.172 3.172 0 0 0-2.284-.977h-2.493a3.147 3.147 0 0 1-2.236-.924l-3.68-3.672c-.531-.398-.413-1.282 0-1.701.464-.451 1.237-.45 1.691.003l2.99 2.99c.241.24.643.241.884 0a.625.625 0 0 0 0-.884L20.145 13.5l3.367-3.359 7.237 7.769v6.462z"/></symbol><symbol id="icon-Group-911" viewBox="0 0 32 32"><path fill="#f98aab" style="fill:var(--color11,#f98aab)" d="M17.664 7.765c1.64-.681 2.522-2.267 2.123-3.818S17.815 1.294 16 1.294s-3.388 1.102-3.787 2.653.483 3.137 2.124 3.818h3.327z"/><path fill="#f98aab" style="fill:var(--color11,#f98aab)" d="M11.6 9.059a.503.503 0 0 1-.377-.172c-2.15-2.406-2.266-6.128-.27-8.678.116-.156.303-.233.489-.202s.34.167.404.353a.569.569 0 0 1-.096.545c-1.664 2.125-1.566 5.228.227 7.231.141.159.18.392.098.592s-.269.33-.475.33zM21.208 6.471c-.199 0-.383-.084-.486-.221s-.111-.308-.021-.451c1.04-1.637.773-3.618-.679-5.035-.136-.127-.176-.303-.105-.46s.241-.272.446-.298.411.039.539.17c1.742 1.701 2.063 4.078.815 6.044-.098.154-.294.251-.508.251z"/><path fill="#f98aab" style="fill:var(--color11,#f98aab)" d="M26.353 14.804v8.346s0 2.842-1.729 4.487a1.027 1.027 0 0 0-.299.749v1.618c-.002.582-.455 1.053-1.014 1.055h-8.114c-.56-.002-1.013-.473-1.014-1.055v-.195a3.197 3.197 0 0 0-.908-2.246c-.979-.991-2.49-2.705-3.149-4.413-1.014-2.636-3.043-6.327-4.057-7.381s0-2.109 1.014-2.109 3.043 2.109 4.057 3.691c.323.509.701.978 1.126 1.397.252.244.607.337.941.248s.6-.35.707-.691c.193-.65.284-1.329.269-2.009V4.17c-.003-.67.405-1.268 1.014-1.487.162-.064.334-.096.507-.095.84 0 1.522.708 1.522 1.582v6.327c-.003-.67.405-1.268 1.014-1.487.162-.064.334-.096.507-.095.84 0 1.521.708 1.521 1.582v1.582c0-.419.161-.822.446-1.118a1.43 1.43 0 0 1 .568-.369c.162-.064.334-.096.507-.095.84 0 1.521.708 1.521 1.582v2.636c0-.419.16-.822.446-1.118a1.43 1.43 0 0 1 .568-.369c.198-.075.409-.106.619-.089.815.09 1.427.814 1.41 1.666z"/><path fill="#f8edf0" style="fill:var(--color12,#f8edf0)" d="M16.028 2.621a1.452 1.452 0 0 0-.522.094 1.551 1.551 0 0 0-1.045 1.473v12.015a6.24 6.24 0 0 1-.277 1.99 1.06 1.06 0 0 1-.47.575 1.04 1.04 0 0 0 1.515-.574 6.24 6.24 0 0 0 .277-1.99V4.189a1.55 1.55 0 0 1 1.045-1.473 1.458 1.458 0 0 0-.523-.094zM18.641 8.984a1.551 1.551 0 0 0-1.045 1.473v4.702a.522.522 0 1 0 1.045 0v-4.702a1.55 1.55 0 0 1 1.045-1.473 1.503 1.503 0 0 0-1.045 0zM21.781 10.552a1.565 1.565 0 0 0-1.045 1.473v3.135a.522.522 0 1 0 1.045 0v-3.135a1.551 1.551 0 0 1 1.045-1.473 1.503 1.503 0 0 0-1.045 0zM25.436 13.069a1.452 1.452 0 0 0-.522.094 1.565 1.565 0 0 0-1.045 1.473v1.045a.523.523 0 1 0 1.045 0v-1.045a1.551 1.551 0 0 1 1.045-1.473 1.456 1.456 0 0 0-.522-.094zM24.412 18.118c-.357 0-.647.217-.647.485v2.912c0 .268.29.485.647.485s.647-.217.647-.485v-2.912c0-.268-.29-.485-.647-.485zM24.64 23.294c-.232.005-.422.276-.44.623-.032.329-.14.63-.304.852-.112.162-.156.403-.117.629s.157.403.307.462.31-.008.418-.177c.327-.456.526-1.083.555-1.752 0-.349-.187-.633-.419-.638zM16.863 28.471h-.431c-.238 0-.431.29-.431.647s.193.647.431.647h.431c.238 0 .431-.29.431-.647s-.193-.647-.431-.647zM22.039 28.471h-3.02c-.238 0-.431.29-.431.647s.193.647.431.647h3.02c.238 0 .431-.29.431-.647s-.193-.647-.431-.647z"/></symbol><symbol id="icon-fast-delivery-11" viewBox="0 0 32 32"><path fill="#e0e2e5" style="fill:var(--color13,#e0e2e5)" d="M25.889 18H21a.498.498 0 0 1-.5-.5.498.498 0 0 1 .5-.5h4.889a.498.498 0 0 1 .5.5.498.498 0 0 1-.5.5z"/><path fill="#93573d" style="fill:var(--color14,#93573d)" d="m15 11.5 1 12v1h6v-1l1-12h-8z"/><path fill="#fdd14b" style="fill:var(--color15,#fdd14b)" d="M10 11.5V11H8v1.5H6v5h4V17h2v-5.5h-2z"/><path fill="#e4bc43" style="fill:var(--color16,#e4bc43)" d="M8 19a.498.498 0 0 1-.5-.5V13a.498.498 0 0 1 .5-.5.5.5 0 0 1 .5.5v5.5a.498.498 0 0 1-.5.5zM10.072 20a.5.5 0 0 1-.5-.496l-.071-7.5a.5.5 0 0 1 1-.01l.071 7.5a.5.5 0 0 1-.495.505h-.005z"/><path fill="#e74444" style="fill:var(--color17,#e74444)" d="m5.5 16.5 1 7v1h6v-8h-7z"/><path fill="#e0e2e5" style="fill:var(--color13,#e0e2e5)" d="M29 18h-1a.498.498 0 0 1-.5-.5.498.498 0 0 1 .5-.5h1a.498.498 0 0 1 .5.5.498.498 0 0 1-.5.5z"/><path fill="#a4d4f4" style="fill:var(--color18,#a4d4f4)" d="m23 11.5-.167 2h-7.666l-.167-2h8z"/><path fill="#e0e2e5" style="fill:var(--color13,#e0e2e5)" d="M14.029 8.5a.505.505 0 0 1-.441-.264.507.507 0 0 1 .025-.513l.475-.713a.503.503 0 0 0-.116-.678l-.486-.365a1.5 1.5 0 0 1-.348-2.032l.475-.713a.518.518 0 0 1 .318-.213.492.492 0 0 1 .375.074.49.49 0 0 1 .213.318.492.492 0 0 1-.075.375l-.475.713a.503.503 0 0 0 .116.678l.486.365a1.506 1.506 0 0 1 .348 2.032l-.475.713a.505.505 0 0 1-.416.223zM10.029 8.5a.505.505 0 0 1-.441-.264.507.507 0 0 1 .025-.513l.475-.713a.503.503 0 0 0-.116-.678l-.486-.365a1.5 1.5 0 0 1-.348-2.032l.475-.713a.503.503 0 0 1 .693-.139.503.503 0 0 1 .139.693l-.475.713a.503.503 0 0 0 .116.678l.486.365a1.506 1.506 0 0 1 .348 2.032l-.475.713a.505.505 0 0 1-.416.223zM17.973 8.5a.507.507 0 0 1-.441-.264.507.507 0 0 1 .025-.513l.475-.713a.503.503 0 0 0-.116-.678l-.486-.365a1.506 1.506 0 0 1-.348-2.032l.475-.713a.503.503 0 0 1 .693-.139.518.518 0 0 1 .213.318.492.492 0 0 1-.075.375l-.475.713a.503.503 0 0 0 .116.678l.486.365a1.506 1.506 0 0 1 .348 2.032l-.475.713a.5.5 0 0 1-.418.223zM30.5 15H25a.498.498 0 0 1-.5-.5.498.498 0 0 1 .5-.5h5.5a.498.498 0 0 1 .5.5.498.498 0 0 1-.5.5zM27 21h-3a.498.498 0 0 1-.5-.5.498.498 0 0 1 .5-.5h3a.498.498 0 0 1 .5.5.498.498 0 0 1-.5.5z"/><path fill="#c2c5c6" style="fill:var(--color19,#c2c5c6)" d="M30.5 29h-29a.498.498 0 0 1-.5-.5.498.498 0 0 1 .5-.5h29a.498.498 0 0 1 .5.5.498.498 0 0 1-.5.5z"/><path fill="#fdd14b" style="fill:var(--color15,#fdd14b)" d="M1.5 23.5h25v1a.997.997 0 0 1-1 1h-23a.997.997 0 0 1-1-1v-1z"/><path fill="#6a7073" style="fill:var(--color20,#6a7073)" d="M21.5 28.5a3 3 0 1 0 0-6 3 3 0 0 0 0 6z"/><path fill="#99a2a7" style="fill:var(--color21,#99a2a7)" d="M21.5 26.5a1 1 0 1 0 0-2 1 1 0 0 0 0 2z"/><path fill="#6a7073" style="fill:var(--color20,#6a7073)" d="M6.5 28.5a3 3 0 1 0 0-6 3 3 0 0 0 0 6z"/><path fill="#99a2a7" style="fill:var(--color21,#99a2a7)" d="M6.5 26.5a1 1 0 1 0 0-2 1 1 0 0 0 0 2z"/><path fill="#ea8333" style="fill:var(--color22,#ea8333)" d="M9.5 21.5h9v1a.997.997 0 0 1-1 1h-7a.997.997 0 0 1-1-1v-1z"/><path fill="#794832" style="fill:var(--color23,#794832)" d="M18.091 19.5c.502 0 .909.448.909 1s-.407 1-.909 1H9.909c-.502 0-.909-.448-.909-1s.407-1 .909-1h8.182z"/><path fill="#fdd14b" style="fill:var(--color15,#fdd14b)" d="M10 17.5h8v2h-8v-2z"/><path fill="#3ba673" style="fill:var(--color24,#3ba673)" d="M19.5 18c0 .828-.704 1.5-1.571 1.5a1.587 1.587 0 0 1-1.31-.671 1.623 1.623 0 0 1-2.046.493 1.615 1.615 0 0 1-.574-.493 1.623 1.623 0 0 1-2.046.493 1.615 1.615 0 0 1-.574-.493 1.593 1.593 0 0 1-1.31.671c-.868 0-1.571-.672-1.571-1.5a.498.498 0 0 1 .5-.5h10a.498.498 0 0 1 .5.5z"/><path fill="#e74444" style="fill:var(--color17,#e74444)" d="M18.5 13.5v-4a.497.497 0 0 1 .314-.464l2.5-1a.504.504 0 0 1 .544.114.492.492 0 0 1 .142.356.507.507 0 0 1-.314.458l-2.186.874V13.5h-1z"/><path fill="#ce3536" style="fill:var(--color25,#ce3536)" d="M18.5 11.5h1v2h-1v-2z"/></symbol><symbol id="icon-cash-back-11" viewBox="0 0 32 32"><path d="M25.872 22.088H9.122a.679.679 0 0 1-.679-.679v-7.824c0-.375.304-.679.679-.679h16.75c.375 0 .679.304.679.679v7.824a.679.679 0 0 1-.679.679z"/><path d="m8.462 21.127.961.961h16.449a.679.679 0 0 0 .679-.679v-7.824a.679.679 0 0 0-.679-.679H9.122a.679.679 0 0 0-.679.679v7.502l.018.04z"/><path d="M24.852 21.07H8.102a.679.679 0 0 1-.679-.679v-7.824c0-.375.304-.679.679-.679h16.75c.375 0 .679.304.679.679v7.824a.679.679 0 0 1-.679.679z"/><path d="m7.442 20.109.961.961h16.449a.679.679 0 0 0 .679-.679v-7.824a.679.679 0 0 0-.679-.679H8.102a.679.679 0 0 0-.679.679v7.502l.018.04z"/><path d="M23.835 20.052H7.085a.679.679 0 0 1-.679-.679v-7.824c0-.375.304-.679.679-.679h16.75c.375 0 .679.304.679.679v7.824a.679.679 0 0 1-.679.679z"/><path d="m6.425 19.09.961.961h16.449a.679.679 0 0 0 .679-.679v-7.824a.679.679 0 0 0-.679-.679H7.085a.679.679 0 0 0-.679.679v7.502l.018.04z"/><path d="M22.878 19.093H6.128a.679.679 0 0 1-.679-.679V10.59c0-.375.304-.679.679-.679h16.75c.375 0 .679.304.679.679v7.824a.679.679 0 0 1-.679.679z"/><path d="M22.533 11.853a.978.978 0 0 1-.918-.919.948.948 0 0 1 .035-.312H7.355c.028.099.04.204.035.312a.978.978 0 0 1-.918.919.965.965 0 0 1-.468-.092v5.484a.965.965 0 0 1 .468-.092.978.978 0 0 1 .883 1.232H21.65a.975.975 0 0 1-.035-.312.979.979 0 0 1 .918-.92.963.963 0 0 1 .468.092v-5.484a.965.965 0 0 1-.468.092z"/><path d="M14.502 16.853a2.35 2.35 0 1 0 0-4.702 2.35 2.35 0 0 0 0 4.702zM11.27 11.485H7.659v1.039h3.611v-1.039zM21.344 16.481h-3.611v1.039h3.611v-1.039z"/><path d="M31.078 7.253a1.404 1.404 0 0 0-1.692.608 15.688 15.688 0 0 0-4.151-4.524C22.53 1.352 19.322.303 15.957.303S9.385 1.352 6.679 3.337a15.63 15.63 0 0 0-5.624 7.717 1.405 1.405 0 0 0 2.666.884 12.838 12.838 0 0 1 4.62-6.337c2.22-1.629 4.854-2.49 7.616-2.49s5.396.861 7.616 2.49a12.902 12.902 0 0 1 3.236 3.436 1.404 1.404 0 0 0-.69 2.708l2.924 1.07.021.007.074.024a2.072 2.072 0 0 0 .116.028l.039.008c.027.005.055.008.082.011l.034.004c.038.003.077.005.116.005.036 0 .073-.002.109-.004l.026-.003.083-.01.032-.006c.026-.005.051-.009.076-.015a1.47 1.47 0 0 0 .106-.03l.011-.003.02-.008a1.461 1.461 0 0 0 .217-.097l.027-.015a1.533 1.533 0 0 0 .201-.143l.034-.029c.024-.021.046-.044.069-.066l.019-.019c.029-.031.057-.063.083-.097l.005-.007a1.603 1.603 0 0 0 .082-.122c.016-.027.032-.054.046-.082l.018-.035c.013-.026.024-.053.036-.08l.016-.038a.07.07 0 0 0 .005-.013l1.07-2.924a1.404 1.404 0 0 0-.836-1.801zM.922 24.747a1.402 1.402 0 0 0 1.692-.608 15.688 15.688 0 0 0 4.151 4.524c2.705 1.985 5.913 3.034 9.278 3.034s6.572-1.049 9.278-3.034a15.63 15.63 0 0 0 5.624-7.717 1.405 1.405 0 0 0-2.666-.884 12.838 12.838 0 0 1-4.62 6.337c-2.22 1.629-4.854 2.49-7.616 2.49s-5.396-.861-7.616-2.49a12.902 12.902 0 0 1-3.236-3.436 1.404 1.404 0 0 0 .69-2.708l-2.924-1.07-.021-.007a1.048 1.048 0 0 0-.114-.034 2.072 2.072 0 0 0-.076-.017l-.039-.008c-.027-.005-.055-.008-.082-.011l-.034-.004a1.479 1.479 0 0 0-.116-.005c-.036 0-.073.002-.109.004l-.026.003a2.347 2.347 0 0 0-.083.01l-.032.006c-.026.005-.051.009-.076.015a1.47 1.47 0 0 0-.106.03l-.011.003-.02.008a1.461 1.461 0 0 0-.092.036l-.038.017-.087.044-.027.015a1.533 1.533 0 0 0-.201.143l-.034.029c-.024.021-.046.044-.069.066l-.019.019a1.518 1.518 0 0 0-.083.097l-.005.007a2.016 2.016 0 0 0-.082.122c-.016.027-.032.054-.046.082l-.018.035c-.013.026-.024.053-.036.08l-.016.038a.07.07 0 0 0-.005.013l-1.07 2.924a1.404 1.404 0 0 0 .836 1.801z"/></symbol><symbol id="icon-Group-11" viewBox="0 0 32 32"><path d="M15.916 13.86 5.814 15.692l3.792 14.873a.94.94 0 0 0 .898.696h10.99a.94.94 0 0 0 .898-.696l3.792-14.873-10.266-1.832zm-1.75-2.748c.506 0 .916-.41.916-.916V.916a.916.916 0 1 0-1.832 0v9.28c0 .506.41.916.916.916zm3.664 0c.506 0 .916-.41.916-.916V.916a.916.916 0 1 0-1.832 0v9.28c0 .506.41.916.916.916z"/><path d="M27.393 11.204c-.44-.22-.989-.037-1.227.421l-1.117 2.235-2.784-4.176a.932.932 0 0 0-.769-.403h-10.99a.932.932 0 0 0-.769.403L6.953 13.86l-1.117-2.235c-.238-.458-.788-.641-1.227-.421-.458.238-.641.788-.421 1.227l1.63 3.26h20.368l1.63-3.26c.22-.44.037-.989-.421-1.227zM16 20.27c-1.515 0-2.748 1.232-2.748 2.747s1.233 2.748 2.748 2.748 2.747-1.232 2.747-2.748A2.75 2.75 0 0 0 16 20.27z"/></symbol><symbol id="icon-Group1" viewBox="0 0 32 32"><path fill="#289bc3" style="fill:var(--color26,#289bc3)" d="M23.015 24.954v-13.6H2.092v13.6c0 .578.468 1.046 1.046 1.046h18.831c.578 0 1.046-.468 1.046-1.046z"/><path fill="#32283c" style="fill:var(--color27,#32283c)" d="M8.37 22.861H6.278a3.138 3.138 0 0 0 0 6.276H8.37a3.138 3.138 0 0 0 0-6.276zM27.199 22.861h-2.092a3.138 3.138 0 0 0 0 6.276h2.092a3.138 3.138 0 0 0 0-6.276z"/><path fill="#555a6e" style="fill:var(--color28,#555a6e)" d="M25.107 29.138a3.138 3.138 0 1 0 0-6.276 3.138 3.138 0 0 0 0 6.276z"/><path fill="#e6e6eb" style="fill:var(--color29,#e6e6eb)" d="M25.106 27.046a1.046 1.046 0 1 0 0-2.091 1.046 1.046 0 0 0 0 2.091z"/><path fill="#32283c" style="fill:var(--color27,#32283c)" d="M18.831 22.861h-2.092a3.138 3.138 0 0 0 0 6.276h2.092a3.138 3.138 0 0 0 0-6.276z"/><path fill="#a5c3dc" style="fill:var(--color30,#a5c3dc)" d="M29.294 12.4H13.602c-.578 0-1.046.468-1.046 1.046v1.046h16.738a1.046 1.046 0 1 0 0-2.092z"/><path fill="#d7e6f0" style="fill:var(--color31,#d7e6f0)" d="M18.832 12.4h-5.231c-.578 0-1.046.468-1.046 1.046v1.046h6.277a1.046 1.046 0 1 0 0-2.092z"/><path fill="#463c4b" style="fill:var(--color32,#463c4b)" d="M12.555 14.492h16.738v5.231H12.555v-5.231z"/><path fill="#555a6e" style="fill:var(--color28,#555a6e)" d="M12.555 14.492h6.277v5.231h-6.277v-5.231z"/><path fill="#a5c3dc" style="fill:var(--color30,#a5c3dc)" d="M30.34 26H13.602a1.046 1.046 0 0 1-1.046-1.046v-5.231h16.738c1.155 0 2.092.937 2.092 2.092v3.138c0 .578-.468 1.046-1.046 1.046z"/><path fill="#d7e6f0" style="fill:var(--color31,#d7e6f0)" d="M19.878 26h-6.277a1.046 1.046 0 0 1-1.046-1.046v-5.231h6.277c1.155 0 2.092.937 2.092 2.092v3.138c0 .578-.468 1.046-1.046 1.046z"/><path fill="#555a6e" style="fill:var(--color28,#555a6e)" d="M23.451 21.815h5.405a1.481 1.481 0 1 1 0 2.964h-5.405a1.482 1.482 0 1 1 0-2.964z"/><path fill="#00d2d2" style="fill:var(--color33,#00d2d2)" d="M23.453 24.082a.785.785 0 1 0 0-1.57.785.785 0 0 0 0 1.57zM28.854 24.082a.785.785 0 1 0 0-1.57.785.785 0 0 0 0 1.57z"/><path fill="#a5c3dc" style="fill:var(--color30,#a5c3dc)" d="M9.938 2.462H6.8a.523.523 0 1 0 0 1.046 3.666 3.666 0 0 1 3.662 3.662c0 .289.234.523.523.523h3.138a.523.523 0 0 0 .523-.523 4.713 4.713 0 0 0-4.708-4.708z"/><path fill="#a5c3dc" style="fill:var(--color30,#a5c3dc)" d="M18.307 2.462h-3.138a4.713 4.713 0 0 0-4.708 4.708c0 .289.234.523.523.523h3.138a.523.523 0 0 0 .523-.523 3.666 3.666 0 0 1 3.661-3.662.523.523 0 1 0 0-1.046z"/><path fill="#a5c3dc" style="fill:var(--color30,#a5c3dc)" d="M20.4 2.462h-3.138a.523.523 0 1 0 0 1.046c.865 0 1.569.704 1.569 1.569s-.704 1.569-1.569 1.569a.523.523 0 1 0 0 1.046H20.4c1.442 0 2.615-1.173 2.615-2.615S21.842 2.462 20.4 2.462zM7.845 6.646c-.865 0-1.569-.704-1.569-1.569s.704-1.569 1.569-1.569a.523.523 0 1 0 0-1.046H4.707c-1.442 0-2.615 1.173-2.615 2.615s1.173 2.615 2.615 2.615h3.138a.523.523 0 1 0 0-1.046z"/><path fill="#289bc3" style="fill:var(--color26,#289bc3)" d="M24.061 7.692H1.046C.468 7.692 0 8.16 0 8.738v1.569c0 .578.468 1.046 1.046 1.046h23.015c.578 0 1.046-.468 1.046-1.046V8.738c0-.578-.468-1.046-1.046-1.046z"/><path fill="#00d2d2" style="fill:var(--color33,#00d2d2)" d="M11.507 26H3.138a1.046 1.046 0 0 1-1.046-1.046V14.493h10.461v10.461c0 .578-.468 1.046-1.046 1.046zM12.554 7.692H1.046C.468 7.692 0 8.16 0 8.738v1.569c0 .578.468 1.046 1.046 1.046h11.508c.578 0 1.046-.468 1.046-1.046V8.738c0-.578-.468-1.046-1.046-1.046z"/><path fill="#d7e6f0" style="fill:var(--color31,#d7e6f0)" d="M7.322 10.308c0 .578.468 1.046 1.046 1.046H5.23a1.046 1.046 0 0 1-1.046-1.046V8.739c0-.578.468-1.046 1.046-1.046h3.138c-.578 0-1.046.468-1.046 1.046v1.569z"/><path fill="#a5c3dc" style="fill:var(--color30,#a5c3dc)" d="M17.787 10.308c0 .578-.468 1.046-1.046 1.046h3.138c.578 0 1.046-.468 1.046-1.046V8.739c0-.578-.468-1.046-1.046-1.046h-3.138c.578 0 1.046.468 1.046 1.046v1.569z"/><path fill="#d7e6f0" style="fill:var(--color31,#d7e6f0)" d="M17.263 7.692h-6.8v-.523a4.713 4.713 0 0 1 4.708-4.708h2.092c1.442 0 2.615 1.173 2.615 2.615s-1.173 2.615-2.615 2.615zm-5.716-1.046h5.717c.865 0 1.569-.704 1.569-1.569s-.704-1.569-1.569-1.569h-2.092a3.667 3.667 0 0 0-3.624 3.138z"/><path fill="#d7e6f0" style="fill:var(--color31,#d7e6f0)" d="M11.507 7.692h-6.8c-1.442 0-2.615-1.173-2.615-2.615s1.173-2.615 2.615-2.615h2.092a4.713 4.713 0 0 1 4.708 4.708v.523zm-6.8-4.184c-.865 0-1.569.704-1.569 1.569s.704 1.569 1.569 1.569h5.717A3.667 3.667 0 0 0 6.8 3.508H4.708z"/><path fill="#555a6e" style="fill:var(--color28,#555a6e)" d="M16.739 29.138a3.138 3.138 0 1 0 0-6.276 3.138 3.138 0 0 0 0 6.276z"/><path fill="#e6e6eb" style="fill:var(--color29,#e6e6eb)" d="M16.738 27.046a1.046 1.046 0 1 0 0-2.091 1.046 1.046 0 0 0 0 2.091z"/><path fill="#555a6e" style="fill:var(--color28,#555a6e)" d="M6.278 29.138a3.138 3.138 0 1 0 0-6.276 3.138 3.138 0 0 0 0 6.276z"/><path fill="#e6e6eb" style="fill:var(--color29,#e6e6eb)" d="M6.275 27.046a1.046 1.046 0 1 0 0-2.091 1.046 1.046 0 0 0 0 2.091z"/></symbol><symbol id="icon-images-removebg-preview-11" viewBox="0 0 32 32"><path d="M0 0h32v32H0V0z"/></symbol><symbol id="icon-menu" viewBox="0 0 32 32"><path d="M6.4 11.734V9.6h19.2v2.134H6.4zm0 5.332h19.2v-2.133H6.4v2.133zm0 5.334h19.2v-2.134H6.4V22.4z"/></symbol></defs></svg>